<svg width="24" height="24" viewBox="0 0 24 24" fill="none" xmlns="http://www.w3.org/2000/svg">
<path d="M22.2196 17.6479L21.0132 9.53714C20.5233 6.24267 17.7914 3.56545 14.1646 2.78306V1.91489C14.1646 0.858985 13.1936 0 11.9999 0C10.8063 0 9.83532 0.858985 9.83532 1.91489V2.78306C6.20843 3.56536 3.47651 6.24263 2.98658 9.53714L1.78014 17.6479C0.769443 17.8088 0 18.5921 0 19.5319V21.0638C0 21.2754 0.193831 21.4468 0.432915 21.4468H16.1813C15.1763 22.5629 13.6357 23.2341 11.9999 23.2341C10.8338 23.2341 9.72611 22.9076 8.79654 22.29C8.6053 22.163 8.33395 22.1972 8.1904 22.3662C8.04686 22.5353 8.08538 22.7754 8.27656 22.9024C9.35731 23.6205 10.6448 24 11.9999 24C14.1237 24 16.1094 23.027 17.243 21.4468H23.5671C23.8062 21.4468 24 21.2754 24 21.0638V19.5319C24 18.5921 23.2305 17.8088 22.2196 17.6479ZM23.1342 20.6808H0.865829V19.5319C0.865829 18.8984 1.44838 18.3829 2.16436 18.3829H16.6402C16.8794 18.3829 17.0732 18.2115 17.0732 18C17.0732 17.7884 16.8794 17.617 16.6402 17.617H2.65805L3.8451 9.63703C4.30228 6.56259 6.91816 4.0823 10.3544 3.46514C10.5562 3.42895 10.7012 3.27202 10.7012 3.08981V1.91489C10.7012 1.28138 11.2838 0.765938 12 0.765938C12.7161 0.765938 13.2988 1.28138 13.2988 1.91489V3.08986C13.2988 3.27202 13.4438 3.42895 13.6456 3.46519C17.0817 4.08234 19.6977 6.56264 20.1549 9.63708L21.3418 17.617H18.372C18.1328 17.617 17.939 17.7885 17.939 18C17.939 18.2115 18.1328 18.383 18.372 18.383H21.8336C22.5516 18.3831 23.1341 18.8985 23.1341 19.5319V20.6808H23.1342Z" fill="#3C5A40"/>
<path d="M11.9993 1.53192C11.7602 1.53192 11.5664 1.70334 11.5664 1.91489V2.93616C11.5664 3.1477 11.7602 3.31912 11.9993 3.31912C12.2385 3.31912 12.4322 3.1477 12.4322 2.93616V1.91489C12.4322 1.70334 12.2385 1.53192 11.9993 1.53192Z" fill="#3C5A40"/>
<path d="M14.8118 8.94892C15.0509 8.94892 15.2447 8.77746 15.2447 8.56595C15.2447 8.35444 15.0509 8.18298 14.8118 8.18298C14.5727 8.18298 14.3789 8.35444 14.3789 8.56595C14.3789 8.77746 14.5727 8.94892 14.8118 8.94892Z" fill="#3C5A40"/>
<path d="M17.1204 9.97022C17.3595 9.97022 17.5533 9.79876 17.5533 9.58725C17.5533 9.37575 17.3595 9.20428 17.1204 9.20428C16.8813 9.20428 16.6875 9.37575 16.6875 9.58725C16.6875 9.79876 16.8813 9.97022 17.1204 9.97022Z" fill="#3C5A40"/>
<path d="M6.8792 15.0766C7.1183 15.0766 7.31212 14.9051 7.31212 14.6936C7.31212 14.4821 7.1183 14.3107 6.8792 14.3107C6.64011 14.3107 6.44629 14.4821 6.44629 14.6936C6.44629 14.9051 6.64011 15.0766 6.8792 15.0766Z" fill="#3C5A40"/>
</svg>
