<svg width="40" height="40" viewBox="0 0 40 40" fill="none" xmlns="http://www.w3.org/2000/svg">
<rect width="40" height="40" rx="10" fill="#80BF88" fill-opacity="0.26"/>
<path d="M21.1039 26.6328V20.635C21.1039 19.0119 20.1175 17.5765 18.6491 17.0632C18.6438 17.0614 17.6009 16.7258 17.6009 16.7258C17.2442 16.611 16.8644 16.8093 16.7366 17.1768L15.5265 20.6594C15.5265 20.6594 15.1416 18.8723 15.1325 18.8464L15.8042 17.6263C15.9147 17.4256 15.9147 17.1783 15.8042 16.9776C15.6937 16.777 15.4895 16.6533 15.2686 16.6533H13.8354C13.6144 16.6533 13.4103 16.777 13.2998 16.9776C13.1893 17.1783 13.1893 17.4256 13.2998 17.6263L13.9715 18.8464C13.9624 18.8723 13.5775 20.6593 13.5775 20.6593L12.3673 17.1767C12.2395 16.8092 11.8595 16.6107 11.503 16.7257C11.503 16.7257 10.46 17.0614 10.4547 17.0632C8.98642 17.5765 8 19.0119 8 20.635V26.6328C8 27.0388 8.31386 27.3679 8.70093 27.3679H20.4029C20.7901 27.3679 21.1039 27.0388 21.1039 26.6328ZM9.40194 25.8976V20.635C9.40194 19.6485 9.99983 18.7757 10.8905 18.4606L11.278 18.336L13.8934 25.8618C13.8977 25.8739 13.9021 25.8858 13.9069 25.8976H9.40194ZM19.702 25.8976H15.1971C15.2019 25.8858 15.2064 25.8739 15.2106 25.8618L17.826 18.336L18.2133 18.4605C19.1041 18.7755 19.702 19.6483 19.702 20.635V25.8976Z" fill="#80BF88"/>
<path d="M14.5523 15.6064C16.552 15.6064 18.1787 13.9002 18.1787 11.8032C18.1787 9.70611 16.552 8 14.5523 8C12.5526 8 10.9258 9.70603 10.9258 11.8032C10.9258 13.9003 12.5526 15.6064 14.5523 15.6064ZM14.5523 9.47026C15.7789 9.47026 16.7768 10.5168 16.7768 11.8032C16.7768 13.0895 15.7789 14.1361 14.5523 14.1361C13.3256 14.1361 12.3277 13.0895 12.3277 11.8032C12.3277 10.5168 13.3257 9.47026 14.5523 9.47026Z" fill="#80BF88"/>
<path d="M30.875 15.5479L31.8823 13.9633C32.0257 13.7377 32.039 13.4477 31.9171 13.2086C31.7951 12.9697 31.5576 12.8204 31.2991 12.8204H28.3186L28.4331 12.4598C28.5044 12.2356 28.4686 11.9891 28.3368 11.7975C28.2051 11.6058 27.9935 11.4922 27.7682 11.4922H22.7021C22.3149 11.4922 22.0012 11.8213 22.0012 12.2273V16.212V27.894C20.5655 27.9691 17.5684 28.3197 17.5684 29.9371C17.5684 31.9426 22.1767 32.0005 22.7022 32.0005C23.2277 32.0005 27.8359 31.9425 27.8359 29.9371C27.8359 28.3197 24.8387 27.9691 23.4032 27.894V16.9471H25.6827L25.568 17.3078C25.4967 17.5321 25.5325 17.7785 25.6643 17.9701C25.7961 18.1618 26.0077 18.2755 26.233 18.2755H31.2991C31.5576 18.2755 31.7951 18.1262 31.9171 17.8872C32.0391 17.6482 32.0257 17.3582 31.8823 17.1326L30.875 15.5479ZM26.2513 29.9371C25.7523 30.1982 24.5208 30.5302 22.7021 30.5302C20.8836 30.5302 19.6519 30.1981 19.1528 29.9371C19.5847 29.7112 20.5662 29.4325 22.0011 29.3615V29.4944C22.0011 29.9005 22.3149 30.2295 22.702 30.2295C23.0891 30.2295 23.4029 29.9004 23.4029 29.4944V29.3615C24.838 29.4325 25.8194 29.7113 26.2513 29.9371ZM23.4031 12.9624H26.7957L25.9965 15.4768H23.4031V12.9624ZM29.4493 15.9556L29.9893 16.8051H27.2054L28.0046 14.2906H29.9892L29.4492 15.1401C29.2924 15.387 29.2924 15.7087 29.4493 15.9556Z" fill="#80BF88"/>
</svg>
