<svg width="40" height="40" viewBox="0 0 40 40" fill="none" xmlns="http://www.w3.org/2000/svg">
<rect width="40" height="40" rx="10" fill="#80BF88" fill-opacity="0.26"/>
<path d="M27.3783 9.63294L25.7456 8H12.8822C11.9545 8 11.5966 8.61949 11.5966 9.10273V13.4599H13.4003V9.98277C13.4003 9.79717 13.573 9.64198 13.7735 9.64198H22.9769C23.1798 9.64198 23.281 9.67443 23.281 9.82341V15.6077H29.8324C30.0899 15.6077 30.1896 15.7269 30.1896 15.9038V30.0262C30.1896 30.3222 30.057 30.367 29.8565 30.367H13.7735C13.5712 30.367 13.4003 30.2085 13.4003 30.0262V28.7357H11.6078V30.7696C11.5844 31.4889 12.0111 32 12.8822 32H30.7477C31.681 32 32 31.3915 32 30.8373V15.7328V14.224L31.534 13.7686L27.3783 9.63294ZM25.1148 9.82341L25.6302 10.3442L29.0917 13.7686L29.2824 13.976H25.7456C25.4785 13.976 25.3095 13.9364 25.2386 13.857C25.1678 13.7776 25.1265 13.6522 25.1148 13.4807V9.82341ZM23.6602 20.8009H29.7638V22.401H23.6602V20.8009ZM23.6602 17.6006H29.7638V19.2007H23.6602V17.6006ZM23.6602 24.0011H29.7638V25.6012H23.6602V24.0011ZM8 14.7509V27.5517H21.953V14.7509H8ZM14.9774 22.1962L14.1228 23.369H14.9774V24.7996H10.6874L13.802 20.5896L11.0431 16.8006H13.3468L14.9791 19.004L16.6097 16.8006H18.9116L16.1493 20.5881L19.2656 24.7996H16.8747L14.9774 22.1962Z" fill="#80BF88"/>
</svg>
