<svg width="40" height="40" viewBox="0 0 40 40" fill="none" xmlns="http://www.w3.org/2000/svg">
<rect width="40" height="40" rx="10" fill="#80BF88" fill-opacity="0.26"/>
<path d="M14.7071 13.2929C14.3166 12.9024 13.6834 12.9024 13.2929 13.2929C12.9024 13.6834 12.9024 14.3166 13.2929 14.7071L19.0676 20.4818L13.293 26.2565C12.9024 26.647 12.9024 27.2802 13.293 27.6707C13.6835 28.0612 14.3166 28.0612 14.7072 27.6707L20.4818 21.896L26.2565 27.6707C26.647 28.0612 27.2802 28.0612 27.6707 27.6707C28.0612 27.2802 28.0612 26.647 27.6707 26.2565L21.896 20.4818L27.6707 14.7071C28.0613 14.3166 28.0613 13.6834 27.6707 13.2929C27.2802 12.9024 26.6471 12.9024 26.2565 13.2929L20.4818 19.0676L14.7071 13.2929Z" fill="#80BF88"/>
</svg>
