<svg width="24" height="24" viewBox="0 0 24 24" fill="none" xmlns="http://www.w3.org/2000/svg">
<path d="M12 0C5.38286 0 0 5.38286 0 12C0 18.6171 5.38286 24 12 24C18.6171 24 24 18.6171 24 12C24 5.38286 18.6171 0 12 0ZM12 22.0016C6.4849 22.0016 1.99837 17.5151 1.99837 12C1.99837 6.4849 6.4849 1.99837 12 1.99837C17.5151 1.99837 22.0016 6.4849 22.0016 12C22.0016 17.5151 17.5151 22.0016 12 22.0016Z" fill="#7C7C7C"/>
<path d="M12.6268 10.4718V7.21469C13.1656 7.44979 13.4987 7.89061 13.626 8.54694L15.7322 8.27265C15.5901 7.44 15.2522 6.77387 14.733 6.27918C14.2089 5.77959 13.5085 5.48081 12.6268 5.37306V4.5502H11.417V5.37306C10.4619 5.46612 9.69787 5.82367 9.11991 6.44571C8.54685 7.06285 8.25787 7.83183 8.25787 8.74285C8.25787 9.64408 8.51256 10.4082 9.02195 11.04C9.53133 11.6718 10.3297 12.142 11.417 12.4506V15.9429C11.1183 15.8008 10.844 15.5657 10.5991 15.2424C10.3542 14.9192 10.1877 14.5371 10.0995 14.0914L7.9248 14.3265C8.09134 15.4188 8.47338 16.2661 9.07583 16.8686C9.67827 17.471 10.457 17.8286 11.417 17.9412V19.4596H12.6268V17.902C13.7093 17.7453 14.5566 17.3241 15.164 16.6335C15.7713 15.9429 16.075 15.0955 16.075 14.0914C16.075 13.1902 15.835 12.4555 15.3501 11.8775C14.8652 11.2996 13.9591 10.8343 12.6268 10.4718ZM11.417 10.0702C9.64889 9.49224 10.2317 7.1853 11.417 7.1853V10.0702ZM12.6268 16.0555V12.8033C14.3999 13.1461 14.2481 15.7175 12.6268 16.0555Z" fill="#7C7C7C"/>
</svg>
