<svg width="24" height="24" viewBox="0 0 24 24" fill="none" xmlns="http://www.w3.org/2000/svg">
<path d="M23.6001 23.2H21.6001V10.8C21.6001 10.5792 21.4213 10.4 21.2001 10.4H18.8001C18.5789 10.4 18.4001 10.5792 18.4001 10.8V23.2H17.6001V16.4C17.6001 16.1792 17.4213 16 17.2001 16H14.8333C14.6121 16 14.4333 16.1792 14.4333 16.4V23.2H13.6001V14C13.6001 13.7792 13.4213 13.6 13.2001 13.6H10.8001C10.5789 13.6 10.4001 13.7792 10.4001 14V23.2H9.60004V15.6C9.60004 15.3792 9.42126 15.2 9.20005 15.2H6.80004C6.57884 15.2 6.40006 15.3792 6.40006 15.6V23.2H5.60004V18.8C5.60004 18.5792 5.42126 18.4 5.20005 18.4H2.80004C2.57884 18.4 2.40006 18.5792 2.40006 18.8V23.2H0.399986C0.178782 23.2 0 23.3792 0 23.6C0 23.8208 0.178782 24 0.399986 24H2.8C3.0212 24 3.19998 23.8208 3.19998 23.6V19.2H4.80002V23.6C4.80002 23.8208 4.9788 24 5.20001 24H6.8C7.0212 24 7.19998 23.8208 7.19998 23.6V16H8.79997V23.6C8.79997 23.8208 8.97875 24 9.19996 24H10.8C11.0212 24 11.2 23.8208 11.2 23.6V14.4H12.8V23.6C12.8 23.8208 12.9788 24 13.2 24H14.8332C15.0544 24 15.2332 23.8208 15.2332 23.6V16.8H16.8001V23.6C16.8001 23.8208 16.9788 24 17.2001 24H18.8C19.0212 24 19.2 23.8208 19.2 23.6V11.2H20.8V23.6C20.8 23.8208 20.9788 24 21.2 24H23.6C23.8212 24 24 23.8208 24 23.6C24 23.3792 23.8213 23.2 23.6001 23.2Z" fill="#696969"/>
<path d="M1.59999 15.2C2.48242 15.2 3.19998 14.4824 3.19998 13.6C3.19998 13.4112 3.16117 13.2328 3.10117 13.0644L10.9596 5.20603C11.2404 5.44805 11.6012 5.60002 12 5.60002C12.2968 5.60002 12.5712 5.51363 12.8096 5.37244L14.6276 7.19044C14.4868 7.42884 14.4 7.70325 14.4 8.00002C14.4 8.88244 15.1176 9.6 16 9.6C16.8824 9.6 17.6 8.88239 17.6 8.00002C17.6 7.704 17.5136 7.43044 17.3736 7.19241L21.592 2.97319C21.8304 3.114 22.1044 3.19997 22.4 3.19997C23.2824 3.19997 24 2.48236 24 1.59998C24.0001 0.717609 23.2825 0 22.4001 0C21.5177 0 20.8001 0.717609 20.8001 1.59998C20.8001 1.896 20.8865 2.16956 21.0265 2.40759L16.8077 6.62681C16.5697 6.486 16.2957 6.40003 16.0001 6.40003C15.7053 6.40003 15.4321 6.48562 15.1945 6.62564L13.3741 4.80562C13.5141 4.56802 13.6001 4.29483 13.6001 4.00003C13.6001 3.11761 12.8825 2.40005 12.0001 2.40005C11.1177 2.40005 10.4001 3.11766 10.4001 4.00003C10.4001 4.18884 10.4389 4.36725 10.4989 4.53562L2.64043 12.394C2.3596 12.152 1.9988 12 1.59999 12C0.717612 12 0 12.7176 0 13.6C0 14.4824 0.717612 15.2 1.59999 15.2ZM22.4001 0.800016C22.8409 0.800016 23.2001 1.1588 23.2001 1.60003C23.2001 2.04122 22.8409 2.40005 22.4001 2.40005C22.1817 2.40005 21.9841 2.31164 21.8397 2.16966C21.8381 2.16806 21.8377 2.16567 21.8361 2.16408C21.8345 2.16248 21.8321 2.16206 21.8305 2.16047C21.6885 2.01605 21.6001 1.81847 21.6001 1.60008C21.6001 1.1588 21.9589 0.800016 22.4001 0.800016ZM16 7.2C16.4409 7.2 16.8001 7.55878 16.8001 8.00002C16.8001 8.4412 16.4409 8.80003 16 8.80003C15.5589 8.80003 15.2 8.44125 15.2 8.00002C15.2001 7.55878 15.5589 7.2 16 7.2ZM12 3.20002C12.4412 3.20002 12.8001 3.5588 12.8001 4.00003C12.8001 4.44122 12.4413 4.80005 12 4.80005C11.5589 4.80005 11.2 4.44127 11.2 4.00003C11.2 3.5588 11.5589 3.20002 12 3.20002ZM1.59999 12.8C2.0408 12.8 2.40001 13.1588 2.40001 13.6C2.40001 14.0412 2.0408 14.4 1.59999 14.4C1.1588 14.4 0.799972 14.0413 0.799972 13.6C0.800019 13.1588 1.1588 12.8 1.59999 12.8Z" fill="#696969"/>
</svg>
