<svg width="20" height="20" viewBox="0 0 20 20" fill="none" xmlns="http://www.w3.org/2000/svg">
<path d="M8.17988 19.5H8.1798C8.06577 19.5 7.95515 19.4611 7.8663 19.3896C7.77757 19.3182 7.71587 19.2187 7.6914 19.1074C7.69137 19.1073 7.69133 19.1071 7.6913 19.107L7.28461 17.2244L7.23064 16.9746L6.99655 16.872C6.48753 16.649 6.00488 16.3701 5.55746 16.0405L5.35216 15.8892L5.10916 15.9666L3.27216 16.5516L3.27197 16.5516C3.16326 16.5863 3.04595 16.5827 2.93953 16.5415C2.83312 16.5003 2.744 16.424 2.68698 16.3251L2.68661 16.3245L0.864206 13.1763C0.863985 13.1759 0.863765 13.1755 0.863545 13.1751C0.807277 13.0759 0.786203 12.9605 0.803769 12.8477C0.821361 12.7348 0.876668 12.6311 0.960671 12.5536C0.960874 12.5535 0.961078 12.5533 0.961281 12.5531L2.38487 11.2544L2.57269 11.083L2.54488 10.8303C2.48408 10.2778 2.48408 9.72023 2.54488 9.16769L2.57273 8.91461L2.38444 8.74323L0.961095 7.44774C0.960861 7.44753 0.960628 7.44731 0.960394 7.4471C0.876323 7.36959 0.820973 7.26589 0.803385 7.15289C0.785794 7.03987 0.807014 6.92424 0.863567 6.82484C0.863718 6.82458 0.863869 6.82431 0.86402 6.82405L2.68292 3.67296L2.68298 3.67286C2.74 3.57402 2.82912 3.49766 2.93554 3.45646C3.04195 3.41526 3.15926 3.4117 3.26798 3.44636L3.26816 3.44643L5.10516 4.03142L5.34834 4.10886L5.55371 3.95736C5.78303 3.78819 6.02071 3.631 6.26472 3.48927C6.50195 3.35626 6.74546 3.23553 6.9943 3.12795L7.2301 3.026L7.28453 2.77494L7.69241 0.8935C7.69243 0.893405 7.69245 0.893309 7.69247 0.893214C7.7168 0.781927 7.7784 0.682282 7.86708 0.610774C7.95579 0.539249 8.06626 0.500168 8.1802 0.5H11.8196C11.9335 0.500168 12.044 0.539249 12.1327 0.610774C12.2214 0.682343 12.2831 0.782098 12.3074 0.8935L12.3074 0.893872L12.7194 2.77687L12.7737 3.02493L13.006 3.12745C13.5152 3.35211 13.9985 3.63137 14.4473 3.96031L14.6523 4.11053L14.8945 4.03345L16.7324 3.4485C16.7324 3.44848 16.7325 3.44847 16.7325 3.44845C16.8411 3.41396 16.9583 3.4176 17.0645 3.45878C17.1708 3.49997 17.2598 3.57624 17.3168 3.67496C17.3169 3.67497 17.3169 3.67499 17.3169 3.675L19.1355 6.82561C19.1357 6.82593 19.1359 6.82626 19.1361 6.82659C19.2519 7.03092 19.2115 7.28945 19.0392 7.44827C19.039 7.44846 19.0388 7.44864 19.0386 7.44882L17.6149 8.74762L17.4271 8.91897L17.4549 9.17169C17.5157 9.72423 17.5157 10.2818 17.4549 10.8343L17.4271 11.087L17.6149 11.2584L19.038 12.5566C19.0383 12.5569 19.0385 12.5571 19.0388 12.5574C19.2119 12.7176 19.2517 12.9756 19.136 13.1795C19.1359 13.1798 19.1357 13.1801 19.1355 13.1804L17.3168 16.331L17.3168 16.3311C17.2598 16.43 17.1706 16.5063 17.0642 16.5475C16.9578 16.5887 16.8405 16.5923 16.7318 16.5576L16.7316 16.5576L14.8946 15.9726L14.6516 15.8952L14.4463 16.0465C13.9993 16.3758 13.517 16.6543 13.0084 16.8769L12.7752 16.979L12.7205 17.2277L12.3075 19.1067L12.3075 19.107C12.2831 19.2183 12.2214 19.3179 12.1327 19.3894C12.0439 19.4609 11.9334 19.4999 11.8195 19.5H8.17988ZM9.99588 5.5C8.80241 5.5 7.65782 5.97411 6.8139 6.81802C5.96999 7.66193 5.49588 8.80653 5.49588 10C5.49588 11.1935 5.96999 12.3381 6.8139 13.182C7.65782 14.0259 8.80241 14.5 9.99588 14.5C11.1894 14.5 12.334 14.0259 13.1779 13.182C14.0218 12.3381 14.4959 11.1935 14.4959 10C14.4959 8.80653 14.0218 7.66193 13.1779 6.81802C12.334 5.97411 11.1894 5.5 9.99588 5.5Z" stroke="#696969"/>
</svg>
