<svg width="24" height="24" viewBox="0 0 24 24" fill="none" xmlns="http://www.w3.org/2000/svg">
<path d="M23.476 13.1648H22.4568V9.89573C22.4568 8.86946 21.4137 8.03452 20.1317 8.03452H19.528L20.525 7.00712C20.7026 6.82417 20.6612 6.56063 20.4327 6.41851L17.4641 4.57256L15.8339 0.660419C15.7899 0.554878 15.6953 0.467625 15.571 0.417903C15.4466 0.368124 15.3027 0.360014 15.1709 0.395251L12.0759 1.22191L10.253 0.0882459C10.0244 -0.0539305 9.69533 -0.0207635 9.51765 0.162187L1.87726 8.03452H0.524042C0.234631 8.03452 0 8.22233 0 8.454V23.5805C0 23.8122 0.234631 24 0.524042 24H20.1317C21.4137 24 22.4568 23.1651 22.4568 22.1388V18.8695H23.476C23.7654 18.8695 24 18.6817 24 18.45V13.5843C24 13.3527 23.7654 13.1648 23.476 13.1648ZM18.2008 8.03452H18.1608C17.7881 7.67337 17.5846 7.22341 17.5846 6.74979C17.5846 6.43864 17.6709 6.13936 17.837 5.86675L19.3759 6.82367L18.2008 8.03452ZM15.0056 1.32387L15.9729 3.64517L13.0709 1.84056L15.0056 1.32387ZM10.0238 1.00814L11.5615 1.96434C11.1098 2.27112 10.5381 2.44199 9.9315 2.44199C9.5428 2.44199 9.16885 2.37291 8.82829 2.23996L10.0238 1.00814ZM8.17582 2.91225C8.70853 3.15416 9.30642 3.28095 9.9315 3.28095C10.8653 3.28095 11.7404 2.99514 12.4016 2.48679L16.9971 5.34447C16.695 5.77088 16.5366 6.24948 16.5366 6.74979C16.5366 7.20283 16.6687 7.64043 16.9168 8.03452H3.20448L8.17582 2.91225ZM21.4087 22.1388C21.4087 22.7025 20.8358 23.161 20.1317 23.161H1.04808V8.87348H20.1317C20.8358 8.87348 21.4087 9.33206 21.4087 9.89573V13.1648H16.4541C16.1647 13.1648 15.9301 13.3527 15.9301 13.5843V18.4501C15.9301 18.6818 16.1647 18.8696 16.4541 18.8696H21.4087V22.1388ZM22.9519 18.0306H16.9782V14.0037H22.9519V18.0306Z" fill="#696969"/>
<path d="M19.9652 17.2756C20.832 17.2756 21.5372 16.7111 21.5372 16.0172C21.5372 15.3234 20.832 14.7588 19.9652 14.7588C19.0984 14.7588 18.3931 15.3233 18.3931 16.0172C18.3931 16.7111 19.0983 17.2756 19.9652 17.2756ZM19.9652 15.5978C20.2541 15.5978 20.4892 15.7859 20.4892 16.0172C20.4892 16.2485 20.2541 16.4367 19.9652 16.4367C19.6763 16.4367 19.4412 16.2485 19.4412 16.0172C19.4412 15.786 19.6762 15.5978 19.9652 15.5978Z" fill="#696969"/>
</svg>
