<svg width="40" height="40" viewBox="0 0 40 40" fill="none" xmlns="http://www.w3.org/2000/svg">
<path d="M19.1211 31.9968C17.8273 31.9856 16.5379 31.9744 15.244 31.9512L14.5694 31.9424C14.2101 31.9384 13.8509 31.9344 13.4931 31.9256C12.9105 31.9096 12.3351 31.8792 11.7568 31.8456C11.4852 31.932 11.2749 31.9712 11.0632 31.9712C10.3973 31.9712 9.85114 31.672 9.8453 31.304C9.82193 30.2496 9.93145 29.1768 10.0366 28.1392L10.1228 27.2632C10.2002 26.4208 10.2936 25.7768 10.4236 25.1768C10.5886 24.396 10.7989 23.6104 11.05 22.8416C11.2779 22.1472 11.5758 21.4408 11.9365 20.7424C12.1205 20.3784 12.3161 20.0168 12.522 19.6568L12.6564 19.4232C12.8083 19.1584 12.9601 18.8928 13.1441 18.6344C13.6114 17.9768 14.1955 17.3024 14.9856 16.5136C15.5916 15.9056 16.1699 15.292 16.7423 14.6744C16.4327 14.3448 16.0706 14.072 15.7099 13.8L15.3477 13.5232C14.7578 13.0632 14.1663 12.604 13.5676 12.1472H13.4961L13.4099 12.168C13.3836 12.6072 13.3588 13.0456 13.3383 13.484C13.3252 13.7912 13.2916 14.1072 13.3471 14.4136C13.388 14.6416 13.4552 14.9 13.2303 15.1096C13.0609 15.268 12.7805 15.3864 12.4607 15.4344C12.3585 15.4496 12.2504 15.4568 12.1409 15.4568C11.621 15.4568 11.0033 15.2776 10.8821 14.944C10.7448 14.5792 10.7551 14.192 10.7653 13.8176L10.7697 13.4864C10.7653 13.0424 10.7653 12.5984 10.7799 12.1544L10.5097 12.1136H10.1184C9.8453 12.1136 9.58098 12.1056 9.31083 12.0776C8.91362 12.0368 8.55001 11.8984 8.33972 11.7064C7.91916 11.32 7.98487 10.8312 8.04182 10.4008C8.09001 10.0296 8.08709 9.6656 8.08417 9.2992C8.08417 9.0584 8.2156 8.896 8.45363 8.7736C8.6274 8.5096 9.05089 8.3392 9.52695 8.3336L11.0004 8.32L12.157 8.3152C13.0258 8.3136 13.8962 8.312 14.7665 8.2864C15.431 8.2672 16.0939 8.2384 16.7584 8.2104C17.3921 8.1832 18.0245 8.156 18.6597 8.1368C19.9039 8.0992 21.1466 8.0816 22.3937 8.0704L23.4685 8.064C24.3374 8.0608 25.2062 8.0568 26.0912 8.0288C26.2562 8.0288 26.3584 8.0488 26.4665 8.0704C26.706 8.0224 26.8724 8 27.036 8C27.3529 8 27.6654 8.0712 27.8947 8.1952C28.1385 8.3296 28.213 8.4824 28.251 8.6704C28.2889 8.8848 28.2568 9.112 28.2232 9.3304C28.2086 9.4264 28.1955 9.5216 28.1882 9.6168C28.1619 9.948 28.1298 10.2808 28.0801 10.6128L28.0611 10.7208C28.0144 11.0208 27.9662 11.3232 27.899 11.6248L27.8757 11.7336C27.8567 11.8264 27.8392 11.9176 27.8027 12.008C27.7194 12.2144 27.5573 12.3896 27.2769 12.5768L26.9133 12.8208C26.3321 13.2456 25.7918 13.6864 25.25 14.1256L24.5987 14.6496L24.5579 14.708C24.5783 14.7312 24.5871 14.7584 24.5973 14.7864C25.2019 15.376 25.7538 15.9136 26.3015 16.4528C26.998 17.136 27.5296 17.8504 27.9574 18.4584C28.4481 19.1616 28.9227 19.8416 29.3111 20.524C29.5375 20.9136 29.7215 21.3104 29.8953 21.7088C30.1362 21.8984 30.2238 22.116 30.1435 22.3032L30.2414 22.5592C30.4969 23.2424 30.7087 23.932 30.9029 24.62C30.9774 24.8808 31.027 25.1432 31.0781 25.4056L31.1482 25.7672C31.2183 26.1048 31.2869 26.4424 31.3278 26.7816C31.3906 27.2768 31.4855 27.7696 31.5775 28.2616L31.6754 28.7752C31.7206 29.0312 31.7557 29.2888 31.7907 29.5456C31.8389 29.9016 31.8886 30.2584 31.9645 30.612C31.9791 30.6616 31.9908 30.708 31.9966 30.7528C32.0142 30.9 31.9631 31.0216 31.8419 31.1352C31.7572 31.2144 31.6301 31.284 31.452 31.3488C31.3687 31.5208 31.268 31.6352 31.1175 31.7176C30.8591 31.8576 30.5612 31.8912 30.2779 31.9056C29.7916 31.9328 29.3097 31.936 28.8234 31.936L25.9349 31.9384C24.9127 31.9384 23.892 31.9448 22.8683 31.9632C21.8461 31.9816 20.8282 32 19.8075 32L19.1211 31.9968ZM16.3057 20.3256C15.796 20.3256 15.2849 20.3408 14.7753 20.3568C14.4876 20.7952 14.2671 21.2056 14.0714 21.6192C13.8319 22.1304 13.6567 22.6448 13.4829 23.1704C13.3091 23.6912 13.1529 24.2136 13.0127 24.74C12.8842 25.2968 12.7776 25.8544 12.7046 26.412C12.6681 26.7016 12.525 28.0256 12.525 28.0256C12.4198 28.8704 12.3599 29.716 12.3176 30.564C13.3077 30.6544 14.2306 30.6872 15.1593 30.7112C16.3875 30.744 17.617 30.7584 18.8481 30.7584C20.1784 30.7584 21.5087 30.7416 22.8391 30.716C24.0789 30.692 25.3187 30.6808 26.5614 30.6736C27.5252 30.6688 28.4963 30.6624 29.4616 30.6352C29.4791 30.3336 29.4382 30.0744 29.4002 29.8168L29.3199 29.316L29.2089 28.7216C29.1491 28.4176 29.0906 28.1136 29.0439 27.8088L28.9665 27.26C28.9212 26.9232 28.8745 26.5864 28.8073 26.2512C28.7168 25.7928 28.6175 25.3344 28.5182 24.8752C28.343 24.216 28.1283 23.5512 27.8508 22.8184C27.1952 22.7688 26.6096 22.76 26.0211 22.7512L25.5012 22.7432C24.1811 22.7232 22.8624 22.6832 21.5409 22.644L21.4635 22.6416L21.4387 22.7192C21.3875 23.4568 21.3145 24.1952 21.2196 24.9304L21.1729 25.344C21.1466 25.5888 21.1188 25.832 21.0823 26.076L21.056 26.2592C21.0093 26.5928 20.9611 26.9384 20.8239 27.2648C20.7114 27.5368 20.4748 27.7936 20.12 28.0272C19.7286 28.284 19.162 28.4752 18.4377 28.5952C17.6915 28.72 16.8913 28.7576 16.1348 28.7856C16.1348 28.7856 16.1319 28.7856 16.1304 28.7856C15.3521 28.7856 14.8249 28.4056 14.8249 28.0656C14.8249 27.6712 15.4149 27.3488 16.1392 27.3472C16.4415 27.3456 16.7409 27.3384 17.0402 27.324C17.344 27.2952 17.6331 27.2568 17.9193 27.2064L18.0975 27.148L18.2639 27.0296C18.3355 26.908 18.3837 26.784 18.4217 26.6584C18.5881 25.8904 18.6626 25.104 18.7342 24.3448L18.7605 24.0696C18.8043 23.6024 18.8335 23.136 18.8525 22.6688C18.8744 22.1752 18.851 21.7744 18.778 21.408C18.6845 21.136 18.5765 20.9136 18.4377 20.7064C18.3779 20.6392 18.3165 20.5776 18.2479 20.5184L18.0726 20.4536C17.8244 20.4072 17.5864 20.3744 17.3396 20.3504C16.9935 20.332 16.6503 20.3256 16.3057 20.3256ZM17.1921 18.8992C17.5922 18.9032 18.1135 18.9176 18.5984 18.988C19.0452 19.056 19.4205 19.152 19.7126 19.2728C20.0645 19.4184 20.2952 19.5488 20.4851 19.708C20.6486 19.8456 20.7581 19.9824 20.875 20.1344C21.0882 20.4152 21.2357 20.736 21.3379 21.1424L22.6142 21.216C23.6203 21.2504 27.128 21.3616 27.128 21.3616C26.7425 20.3832 26.1379 19.4272 25.3552 18.3872C24.6791 17.5224 23.8277 16.716 22.7588 15.7704C21.995 15.7312 21.2897 15.7136 20.5858 15.6968L19.0043 15.6576C18.8992 15.6544 18.8028 15.6384 18.6991 15.6208L17.9383 16.2616C17.2023 17.0072 16.443 17.7776 15.8019 18.564C15.7537 18.6288 15.5624 18.924 15.5624 18.924L16.1523 18.912C16.44 18.9056 16.7277 18.8984 17.0154 18.8984L17.1921 18.8992ZM21.1612 9.364C20.0061 9.364 18.8525 9.372 17.6974 9.4008C17.2096 9.4136 16.7219 9.4288 16.2356 9.4448C15.4368 9.4696 14.638 9.496 13.8363 9.5088C13.0857 9.5208 10.4601 9.5536 10.4601 9.5536L10.3783 9.7232C10.3579 10.068 10.336 10.4248 10.3929 10.772C10.7521 10.8192 11.0442 10.8224 11.3348 10.8256L12.3278 10.8424C12.8258 10.8512 13.3237 10.8608 13.8202 10.8648C14.1254 10.8688 14.4131 10.9352 14.6322 11.0528C15.006 11.108 15.2192 11.1976 15.4368 11.3672C15.9684 11.78 16.4809 12.2008 16.992 12.6216L17.3775 12.9376L17.7747 13.2536C18.1252 13.5272 18.4874 13.8112 18.7707 14.1096L18.9926 14.12L22.3294 14.2304C22.4302 14.1096 22.4798 14.0368 22.5572 13.9744L24.9697 12.096C25.1215 11.98 25.2778 11.8616 25.4063 11.7368C25.4559 11.6424 25.4852 11.556 25.5129 11.4696C25.6151 11.0232 25.713 10.548 25.748 10.0776C25.767 9.856 25.7831 9.6336 25.7933 9.4112L25.3946 9.3704L21.1612 9.364Z" fill="#80BF88"/>
<circle cx="20" cy="20" r="19.5" stroke="#80BF88"/>
</svg>
