<svg width="40" height="40" viewBox="0 0 40 40" fill="none" xmlns="http://www.w3.org/2000/svg">
<path d="M31.2202 25.5253V17.7863L31.5973 17.5316C31.8425 17.3685 31.997 17.0452 32 16.6912C32.003 16.3381 31.8534 16.011 31.6112 15.8408L20.3301 8.11802C20.1044 7.95973 19.8315 7.96066 19.6043 8.12087L8.38505 15.8532C8.1462 16.0235 7.99851 16.3468 8.00001 16.6974C8.00151 17.0481 8.15223 17.369 8.39407 17.536L13.3238 20.8932C13.2619 21.0328 13.2237 21.192 13.2237 21.3637V29.4817C13.2237 29.7551 13.3152 30.0166 13.4749 30.1983C13.6376 30.383 15.1957 32 19.9597 32C24.7069 32 26.307 30.4718 26.4738 30.2976C26.6481 30.1158 26.749 29.8434 26.749 29.5546V21.2284C26.749 21.0936 26.7269 20.9656 26.6879 20.8495L29.7205 18.7998V25.5306C29.2759 25.8635 28.9745 26.4741 28.9745 27.1802C28.9745 28.2398 29.6459 29.0989 30.4741 29.0989C31.3023 29.0989 31.9738 28.2398 31.9738 27.1802C31.9738 26.4698 31.6682 25.8568 31.2202 25.5253H31.2202ZM25.2493 29.0049C24.6599 29.3675 23.1003 30.0813 19.9597 30.0813C16.7992 30.0813 15.2748 29.3215 14.7233 28.956V21.8467L19.5926 25.1632C19.7019 25.2388 19.8242 25.2784 19.9484 25.2783C20.0694 25.2785 20.1886 25.2407 20.2956 25.1685L25.2493 21.8208V29.0049ZM19.9544 23.2321L10.3098 16.6797L19.9713 10.055L29.6628 16.6605L19.9544 23.2321Z" fill="#80BF88"/>
<circle cx="20" cy="20" r="19.5" stroke="#80BF88"/>
</svg>
