<svg width="40" height="40" viewBox="0 0 40 40" fill="none" xmlns="http://www.w3.org/2000/svg">
<path d="M31.6001 23.3059C30.1242 23.3059 28.923 22.0637 28.923 20.5372C28.923 20.3084 28.7442 20.1235 28.523 20.1235C28.3018 20.1235 28.123 20.3084 28.123 20.5372C28.123 22.5203 29.6826 24.1333 31.6001 24.1333C31.8213 24.1333 32.0001 23.9483 32.0001 23.7196C32.0001 23.4908 31.8209 23.3059 31.6001 23.3059Z" fill="#80BF88"/>
<path d="M31.3013 22.3371C31.5225 22.3371 31.7013 22.1522 31.7013 21.9234C31.7013 21.6947 31.5225 21.5097 31.3013 21.5097C30.9469 21.5097 30.6593 21.2119 30.6593 20.8458C30.6593 20.617 30.4806 20.4321 30.2594 20.4321C30.0382 20.4321 29.8594 20.617 29.8594 20.8458C29.859 21.6682 30.5057 22.3371 31.3013 22.3371Z" fill="#80BF88"/>
<path d="M16.0006 8.82734C17.4769 8.82734 18.6777 10.0696 18.6777 11.5961C18.6777 11.8248 18.8569 12.0097 19.0776 12.0097C19.2984 12.0097 19.4776 11.8248 19.4776 11.5961C19.4776 9.61291 17.9177 8 16.0006 8C15.7798 8 15.6006 8.18491 15.6006 8.41367C15.6006 8.64243 15.7794 8.82734 16.0006 8.82734Z" fill="#80BF88"/>
<path d="M15.8984 10.2098C15.8984 10.4386 16.0776 10.6235 16.2984 10.6235C16.6524 10.6235 16.94 10.9213 16.94 11.2874C16.94 11.5162 17.1192 11.7011 17.34 11.7011C17.5608 11.7011 17.74 11.5162 17.74 11.2874C17.74 10.465 17.0932 9.79614 16.2984 9.79614C16.0776 9.79614 15.8984 9.98105 15.8984 10.2098Z" fill="#80BF88"/>
<path d="M25.6299 23.2632C25.1195 22.9621 24.5911 22.8669 24.1415 22.996C23.8039 23.0928 23.5287 23.3137 23.3431 23.6355C22.9352 24.1402 22.4288 24.7301 22.3064 24.8215C21.3596 25.485 20.6065 25.4069 19.7889 24.5613L15.1947 19.8103C14.3767 18.9643 14.3015 18.1854 14.9423 17.2079C15.0319 17.0796 15.6023 16.5563 16.0902 16.134C16.4014 15.942 16.615 15.6574 16.7086 15.3083C16.833 14.8437 16.7414 14.2973 16.4478 13.7649C16.3786 13.6424 14.7315 10.7575 13.2139 9.92725C12.4436 9.50572 11.512 9.6505 10.8956 10.288L9.88008 11.337C8.27455 12.9975 7.69337 14.8793 8.15175 16.9299C8.53414 18.6392 9.64849 20.4581 11.4644 22.3358L17.3462 28.4192C19.6509 30.8028 21.8492 32 23.8651 32C25.3455 32 26.7278 31.3538 27.9814 30.0578L28.9961 29.0083C29.6125 28.3708 29.7529 27.4074 29.3449 26.6106C28.5417 25.0408 25.7526 23.3377 25.6299 23.2632ZM28.4305 28.4233L27.4158 29.4728C24.7883 32.1894 21.5908 31.6384 17.9122 27.8343L12.03 21.7508C10.3217 19.984 9.27931 18.2991 8.93132 16.7437C8.53334 14.9645 9.02892 13.388 10.4457 11.9224L11.4604 10.8729C11.6872 10.6388 11.9856 10.5163 12.2884 10.5163C12.4752 10.5163 12.664 10.5627 12.8388 10.6586C14.1559 11.3797 15.741 14.1558 15.7546 14.1794C15.9342 14.5049 16.0026 14.8446 15.9374 15.0878C15.8974 15.2367 15.8078 15.3501 15.6639 15.4336L15.6039 15.4767C15.2627 15.7712 14.4507 16.4835 14.2807 16.7429C14.0359 17.1169 13.8735 17.4842 13.7883 17.8453C13.5039 17.2588 13.2739 16.5795 13.1984 15.8262C13.1756 15.5995 12.9788 15.4394 12.7592 15.4572C12.5396 15.4812 12.3796 15.6843 12.4024 15.9118C12.6912 18.7881 14.8539 20.6604 14.9459 20.7386C14.9559 20.7468 14.9675 20.7501 14.9779 20.7572L19.2229 25.1475C19.2409 25.1661 19.2597 25.1826 19.2777 25.2008C19.2917 25.2219 19.3009 25.2455 19.3193 25.2646C19.3949 25.3419 21.2008 27.1538 23.9587 27.45C23.9727 27.4512 23.9867 27.452 24.0003 27.452C24.2027 27.452 24.3763 27.2936 24.3979 27.0814C24.4207 26.8539 24.2611 26.6508 24.0411 26.6268C23.1956 26.5362 22.4464 26.2797 21.822 25.9823C22.128 25.8871 22.4392 25.7291 22.7548 25.5082C23.006 25.332 23.6947 24.4926 23.9791 24.1398L24.0207 24.0773C24.1015 23.9288 24.2111 23.8361 24.3551 23.7944C24.5903 23.7286 24.9187 23.7977 25.2295 23.9805C25.2563 23.9971 27.9406 25.6364 28.6377 26.9987C28.8801 27.4715 28.7969 28.0444 28.4305 28.4233Z" fill="#80BF88"/>
<circle cx="20" cy="20" r="19.5" stroke="#80BF88"/>
</svg>
