<svg width="40" height="40" viewBox="0 0 40 40" fill="none" xmlns="http://www.w3.org/2000/svg">
<path d="M30.1523 8.01351C29.5761 7.93369 29.0012 8.21025 28.5755 8.77212C28.1494 9.33436 27.905 10.136 27.905 10.9715C27.905 11.2831 28.079 11.5358 28.2937 11.5358C28.5084 11.5358 28.6825 11.2831 28.6825 10.9715C28.6825 10.4533 28.8341 9.95596 29.0985 9.60716C29.3664 9.25355 29.7145 9.08638 30.0785 9.13701C30.72 9.22572 31.2225 10.077 31.2225 11.0749V23.6112C31.2225 23.7517 31.1907 23.8813 31.1376 23.987C30.8538 20.4137 28.757 17.6299 26.2203 17.6299C23.9827 17.6299 22.0873 19.7962 21.4767 22.7596C21.1038 22.1955 20.5799 21.8431 20 21.8431C19.4201 21.8431 18.8962 22.1954 18.5233 22.7596C17.9127 19.7962 16.0173 17.6299 13.7797 17.6299C11.243 17.6299 9.14619 20.4137 8.86244 23.987C8.80931 23.8813 8.77754 23.7516 8.77754 23.6112V11.0749C8.77754 10.077 9.27998 9.22572 9.92145 9.13694C10.2857 9.08638 10.6335 9.25355 10.9015 9.60709C11.1659 9.95596 11.3175 10.4533 11.3175 10.9715C11.3175 11.2831 11.4916 11.5358 11.7063 11.5358C11.921 11.5358 12.095 11.2831 12.095 10.9715C12.095 10.1361 11.8507 9.33443 11.4245 8.77212C10.9988 8.21025 10.4241 7.93391 9.84769 8.01351C8.81159 8.15691 8 9.50168 8 11.0749V23.6112C8 24.3948 8.35316 25.0606 8.84057 25.2919C9.01028 29.0322 11.1605 32 13.7797 32C16.5093 32 18.73 28.7768 18.73 24.8149C18.73 23.7986 19.2997 22.9717 20 22.9717C20.7003 22.9717 21.27 23.7986 21.27 24.8149C21.27 28.7768 23.4907 32 26.2203 32C28.8395 32 30.9897 29.0322 31.1594 25.2919C31.6468 25.0606 32 24.3948 32 23.6112V11.0749C32 9.50168 31.1884 8.15691 30.1523 8.01351ZM13.7797 30.8715C11.4788 30.8715 9.60691 28.1545 9.60691 24.8149C9.60691 21.4754 11.4788 18.7584 13.7797 18.7584C16.0806 18.7584 17.9525 21.4754 17.9525 24.8149C17.9525 28.1545 16.0806 30.8715 13.7797 30.8715ZM26.2203 30.8715C23.9194 30.8715 22.0475 28.1545 22.0475 24.8149C22.0475 21.4754 23.9194 18.7584 26.2203 18.7584C28.5212 18.7584 30.3931 21.4754 30.3931 24.8149C30.3931 28.1545 28.5212 30.8715 26.2203 30.8715Z" fill="#80BF88"/>
<circle cx="20" cy="20" r="19.5" stroke="#80BF88"/>
</svg>
