<svg width="40" height="40" viewBox="0 0 40 40" fill="none" xmlns="http://www.w3.org/2000/svg">
<path d="M31.0197 11.4285V10.0989C31.0197 8.93971 29.9456 8 28.6208 8H12.8483C11.5235 8 10.4503 8.93971 10.4503 10.0989V11.4285H10.0011C8.89488 11.4285 8 12.213 8 13.1801V16.1133C8 17.0804 8.8958 17.865 10.0011 17.865L19.2227 17.8625C19.7859 17.8625 20.2453 18.2637 20.2453 18.7572V21.7146H18.2874V32H23.1854V21.7146H21.2247V18.7572C21.2247 17.7902 20.328 17.0056 19.2227 17.0056H18.01V17.008H10.002C9.43879 17.008 8.98032 16.6069 8.98032 16.1133V13.1801C8.98032 12.6873 9.43879 12.2854 10.002 12.2854H10.4513V13.615C10.4513 14.7741 11.5244 15.7138 12.8492 15.7138H28.6217C29.9466 15.7138 31.0206 14.7741 31.0206 13.615V12.2854H32V11.4285H31.0206H31.0197ZM22.2041 31.1415H19.265V22.5699H22.2041V31.1415ZM30.0403 13.615C30.0403 14.2998 29.4026 14.8569 28.6208 14.8569H12.8483C12.0655 14.8569 11.4298 14.2998 11.4298 13.615V10.0989C11.4298 9.41399 12.0655 8.85691 12.8483 8.85691H28.6208C29.4036 8.85691 30.0403 9.41399 30.0403 10.0989V13.615Z" fill="#80BF88"/>
<circle cx="20" cy="20" r="19.5" stroke="#80BF88"/>
</svg>
