<svg width="40" height="40" viewBox="0 0 40 40" fill="none" xmlns="http://www.w3.org/2000/svg">
<path d="M31.9671 17.0696C31.8883 16.8169 31.6814 16.6363 31.4301 16.595L23.9428 15.4807L20.5735 8.38693C20.4602 8.14961 20.2287 8 19.9775 8C19.7263 8 19.4947 8.14961 19.3814 8.39209L16.0565 15.5064L8.56913 16.6724C8.31791 16.7137 8.11103 16.8942 8.03221 17.147C7.9534 17.3998 8.02236 17.6784 8.20462 17.859L13.6379 23.374L12.3818 31.1849C12.3374 31.448 12.4409 31.7111 12.6478 31.8659C12.7611 31.9536 12.899 32 13.0369 32C13.1453 32 13.2487 31.9742 13.3472 31.9175L20.0317 28.2081L26.7358 31.8762C26.8343 31.9278 26.9377 31.9536 27.0412 31.9536C27.4057 31.9536 27.7062 31.6389 27.7062 31.2571C27.7062 31.2003 27.7013 31.1488 27.6865 31.0972L26.391 23.3328L31.7897 17.7868C31.9818 17.601 32.0459 17.3224 31.9671 17.0696ZM25.2186 22.595C25.061 22.7549 24.992 22.9871 25.0314 23.2141L26.1595 29.988L20.3371 26.8048C20.145 26.6965 19.9134 26.7016 19.7164 26.8048L13.9137 30.0241L15.0023 23.2399C15.0368 23.0129 14.9679 22.7859 14.8102 22.626L10.1011 17.8383L16.5983 16.8272C16.8151 16.7911 17.0022 16.6518 17.0958 16.4454L19.9824 10.27L22.9084 16.4299C23.0069 16.6363 23.1941 16.7756 23.4108 16.8117L29.913 17.7816L25.2186 22.595Z" fill="#80BF88"/>
<circle cx="20" cy="20" r="19.5" stroke="#80BF88"/>
</svg>
