<svg width="40" height="40" viewBox="0 0 40 40" fill="none" xmlns="http://www.w3.org/2000/svg">
<path d="M14.375 19.9897C14.375 23.1005 16.8934 25.6224 20 25.6224C23.1066 25.6224 25.625 23.1005 25.625 19.9897C25.625 16.8788 23.1066 14.3569 20 14.3569C16.8934 14.3569 14.375 16.8788 14.375 19.9897ZM24.875 19.9897C24.875 22.6814 22.6881 24.8714 20 24.8714C17.3119 24.8714 15.125 22.6814 15.125 19.9897C15.125 17.2979 17.3119 15.108 20 15.108C22.6881 15.108 24.875 17.2979 24.875 19.9897Z" fill="#80BF88"/>
<path d="M20.2783 12.4138C20.4856 12.4138 20.6533 12.2458 20.6533 12.0383V8.37552C20.6533 8.16796 20.4856 8 20.2783 8C20.071 8 19.9033 8.16796 19.9033 8.37552V12.0383C19.9033 12.2458 20.071 12.4138 20.2783 12.4138Z" fill="#80BF88"/>
<path d="M26.242 9.74714C26.0618 9.64225 25.8326 9.7042 25.7297 9.8839L23.8983 13.0556C23.7943 13.2353 23.8558 13.4649 24.0349 13.5687C24.0942 13.6031 24.1587 13.6193 24.2224 13.6193C24.352 13.6193 24.478 13.5522 24.5472 13.4319L26.3786 10.2601C26.4826 10.0805 26.4211 9.8509 26.242 9.74714Z" fill="#80BF88"/>
<path d="M27.0356 16.6359C27.099 16.6359 27.1634 16.6198 27.2227 16.5856L30.3945 14.7543C30.5736 14.6509 30.6355 14.4209 30.5318 14.2412C30.4282 14.0623 30.2004 13.9999 30.0195 14.1037L26.8477 15.9351C26.6687 16.0385 26.6068 16.2685 26.7104 16.4481C26.7796 16.5684 26.906 16.6359 27.0356 16.6359Z" fill="#80BF88"/>
<path d="M12.4128 20.2783C12.4128 20.0708 12.2451 19.9028 12.0378 19.9028H8.375C8.16774 19.9028 8 20.0708 8 20.2783C8 20.4859 8.16774 20.6538 8.375 20.6538H12.0378C12.2451 20.6538 12.4128 20.4859 12.4128 20.2783Z" fill="#80BF88"/>
<path d="M9.60556 14.7542L12.7773 16.5855C12.8366 16.6197 12.9007 16.6358 12.9644 16.6358C13.0941 16.6358 13.2204 16.5683 13.2896 16.448C13.3933 16.2684 13.3314 16.0384 13.1523 15.935L9.98056 14.1036C9.80004 13.9998 9.57113 14.0615 9.46823 14.2412C9.36458 14.4209 9.4265 14.6508 9.60556 14.7542Z" fill="#80BF88"/>
<path d="M15.7779 13.6192C15.8416 13.6192 15.9061 13.603 15.965 13.569C16.1444 13.4648 16.206 13.2352 16.1023 13.0559L14.2713 9.88421C14.1673 9.70414 13.9377 9.64256 13.759 9.7467C13.5795 9.85084 13.518 10.0804 13.6216 10.2597L15.4527 13.4314C15.5223 13.5521 15.6482 13.6192 15.7779 13.6192Z" fill="#80BF88"/>
<path d="M20.2783 27.5869C20.071 27.5869 19.9033 27.7549 19.9033 27.9624V31.6244C19.9033 31.832 20.071 32 20.2783 32C20.4856 32 20.6533 31.832 20.6533 31.6244V27.9624C20.6533 27.7549 20.4856 27.5869 20.2783 27.5869Z" fill="#80BF88"/>
<path d="M16.4481 26.7103C16.2675 26.6054 16.039 26.6674 15.9357 26.847L14.1043 30.0188C14.0003 30.1985 14.0618 30.428 14.2409 30.5318C14.3003 30.5663 14.3647 30.5824 14.4284 30.5824C14.5581 30.5824 14.684 30.5153 14.7533 30.395L16.5847 27.2233C16.6887 27.0436 16.6272 26.8141 16.4481 26.7103Z" fill="#80BF88"/>
<path d="M13.0556 23.8972L9.88388 25.7286C9.70481 25.8319 9.64291 26.0619 9.74655 26.2416C9.81578 26.3619 9.94211 26.4294 10.0718 26.4294C10.1351 26.4294 10.1996 26.4132 10.2589 26.3791L13.4306 24.5477C13.6097 24.4443 13.6716 24.2144 13.568 24.0347C13.4647 23.8554 13.2362 23.793 13.0556 23.8972Z" fill="#80BF88"/>
<path d="M31.625 19.9028H27.9629C27.7556 19.9028 27.5879 20.0708 27.5879 20.2783C27.5879 20.4859 27.7556 20.6538 27.9629 20.6538H31.625C31.8323 20.6538 32 20.4859 32 20.2783C32 20.0708 31.8323 19.9028 31.625 19.9028Z" fill="#80BF88"/>
<path d="M30.1162 25.7284L26.9444 23.897C26.7642 23.7932 26.535 23.8552 26.4321 24.0345C26.3285 24.2142 26.3903 24.4442 26.5694 24.5476L29.7412 26.3789C29.8005 26.413 29.8646 26.4292 29.9283 26.4292C30.0579 26.4292 30.1843 26.3617 30.2535 26.2414C30.3572 26.0617 30.2952 25.8318 30.1162 25.7284Z" fill="#80BF88"/>
<path d="M24.0648 26.847C23.9615 26.6674 23.7323 26.6054 23.5525 26.7103C23.3734 26.8141 23.3119 27.0436 23.4158 27.2233L25.2473 30.395C25.3165 30.5153 25.4425 30.5824 25.5721 30.5824C25.6358 30.5824 25.7003 30.5663 25.7596 30.5318C25.9387 30.428 26.0002 30.1985 25.8962 30.0188L24.0648 26.847Z" fill="#80BF88"/>
<circle cx="20" cy="20" r="19.5" stroke="#80BF88"/>
</svg>
