<svg width="24" height="24" viewBox="0 0 24 24" fill="none" xmlns="http://www.w3.org/2000/svg">
<path d="M6.83203 9.13233C6.83203 12.2241 8.74017 14.7313 11.0932 14.7313C13.4462 14.7313 15.3544 12.2241 15.3544 9.13233C15.3544 6.04059 13.4462 3.53342 11.0932 3.53342C8.74017 3.53342 6.83203 6.04059 6.83203 9.13233ZM11.4689 5.78078C11.4689 6.11853 11.4689 6.12503 11.726 6.17699C11.9237 6.21596 12.1115 6.2939 12.2944 6.39783C12.3933 6.45629 12.4329 6.54722 12.4032 6.69011C12.3587 6.89796 12.3142 7.10581 12.2648 7.31366C12.2153 7.50852 12.1709 7.5345 12.0275 7.44357C11.7408 7.2617 11.4392 7.18376 11.1278 7.20974C11.0438 7.21623 10.9647 7.22922 10.8856 7.27469C10.6137 7.43058 10.5692 7.82679 10.8015 8.07361C10.9202 8.19702 11.0537 8.28795 11.1921 8.36589C11.4343 8.4958 11.6765 8.6257 11.9089 8.78809C12.6405 9.3207 12.8382 10.5288 12.3241 11.3472C12.1363 11.646 11.894 11.8474 11.6123 11.9448C11.4887 11.9903 11.4343 12.0747 11.4392 12.2436C11.4442 12.4059 11.4392 12.5748 11.4392 12.7372C11.4392 12.8866 11.3799 12.9645 11.2712 12.9645C11.1377 12.971 10.9993 12.971 10.8658 12.9645C10.7472 12.9645 10.6928 12.8736 10.6878 12.7177C10.6878 12.5943 10.6879 12.4774 10.6829 12.354C10.6829 12.0877 10.673 12.0747 10.4802 12.0357C10.2281 11.9838 9.98589 11.9058 9.7585 11.7629C9.58054 11.646 9.56076 11.5875 9.6102 11.3407C9.64974 11.1589 9.68929 10.9705 9.72884 10.7886C9.77827 10.5743 9.82276 10.5483 9.97106 10.6522C10.2232 10.8276 10.4951 10.925 10.7719 10.9705C10.9548 11.003 11.1328 10.977 11.3008 10.8796C11.6123 10.6977 11.6617 10.2235 11.3997 9.93775C11.3107 9.84032 11.2069 9.76887 11.0981 9.70392C10.8213 9.54803 10.5346 9.42462 10.2776 9.21677C9.85737 8.88551 9.59043 8.43085 9.62009 7.75534C9.65469 6.99539 9.98095 6.52124 10.5148 6.26792C10.7323 6.164 10.7373 6.17049 10.7373 5.86522C10.7373 5.76129 10.7373 5.66386 10.7373 5.55994C10.7422 5.33261 10.7719 5.29363 10.9449 5.28714C10.9993 5.28714 11.0537 5.28714 11.1031 5.28714C11.4689 5.30013 11.4689 5.30013 11.4689 5.78078Z" fill="#80BF88"/>
<path d="M17.2967 10.9705C17.9492 10.9705 18.4782 10.2755 18.4782 9.41812C18.4782 8.56077 17.9492 7.86575 17.2967 7.86575C16.6442 7.86575 16.1152 8.56077 16.1152 9.41812C16.1152 10.2755 16.6442 10.9705 17.2967 10.9705Z" fill="#80BF88"/>
<path d="M4.89435 10.9705C5.54686 10.9705 6.07582 10.2755 6.07582 9.41812C6.07582 8.56077 5.54686 7.86575 4.89435 7.86575C4.24185 7.86575 3.71289 8.56077 3.71289 9.41812C3.71289 10.2755 4.24185 10.9705 4.89435 10.9705Z" fill="#80BF88"/>
<path d="M20.51 0H1.94768C0.874974 0 0 1.14966 0 2.55913V15.7185C0 17.128 0.874974 18.2777 1.94768 18.2777H15.448V17.4398C15.448 16.9396 15.5617 16.4785 15.7545 16.0953H4.10299C4.11287 15.9913 4.11782 15.8809 4.11782 15.777C4.11782 14.348 3.2379 13.1854 2.14542 13.1854C1.97734 13.1854 1.81421 13.2114 1.65602 13.2633V5.31962C1.81421 5.37158 1.97734 5.39756 2.14542 5.39756C3.23296 5.39756 4.11782 4.24141 4.11782 2.80595C4.11782 2.58511 4.09804 2.37727 4.0585 2.17591H18.5129C18.4931 2.3318 18.4783 2.48769 18.4783 2.65007C18.4783 4.07903 19.3582 5.24168 20.4507 5.24168C20.5693 5.24168 20.683 5.22869 20.7967 5.20271V9.85331C21.4047 9.95074 21.9683 10.2235 22.4577 10.6392V2.55264C22.4577 1.14317 21.5827 0 20.51 0Z" fill="#80BF88"/>
<path d="M20.3027 11.2628C18.6961 11.2628 17.3911 12.9775 17.3911 15.0885V16.42H17.3219C16.8968 16.42 16.5557 16.8747 16.5557 17.4268V22.9932C16.5557 23.5518 16.9017 24 17.3219 24H23.2341C23.6593 24 24.0004 23.5453 24.0004 22.9932V17.4268C24.0004 16.8682 23.6543 16.42 23.2341 16.42H23.2144V15.0885C23.2193 12.984 21.9093 11.2628 20.3027 11.2628ZM20.7377 20.4666C20.6784 20.525 20.6636 20.577 20.6636 20.6679C20.6636 21.0771 20.6636 21.4863 20.6636 21.8955C20.6685 22.0644 20.6043 22.2333 20.4906 22.3112C20.2187 22.4931 19.9468 22.2398 19.9468 21.902C19.9468 21.4928 19.9468 21.0836 19.9468 20.6744C19.9468 20.59 19.932 20.538 19.8776 20.4796C19.5958 20.2068 19.5019 19.7391 19.6453 19.3299C19.7837 18.9272 20.1149 18.6999 20.4313 18.7778C20.7822 18.8687 21.0245 19.2455 21.0294 19.7001C21.0294 20.0184 20.9305 20.2782 20.7377 20.4666ZM21.9439 16.42H18.6665V15.0885C18.6665 13.8999 19.403 12.9386 20.3027 12.9386C21.2074 12.9386 21.939 13.9064 21.939 15.0885V16.42H21.9439Z" fill="#80BF88"/>
</svg>
