<svg width="24" height="24" viewBox="0 0 24 24" fill="none" xmlns="http://www.w3.org/2000/svg">
<path d="M23.617 21.7021H0.382979C0.171472 21.7021 0 21.8736 0 22.0851C0 22.2966 0.171472 22.4681 0.382979 22.4681H23.617C23.8286 22.4681 24 22.2966 24 22.0851C24 21.8736 23.8286 21.7021 23.617 21.7021Z" fill="#80BF88"/>
<path d="M23.617 23.234H0.382979C0.171472 23.234 0 23.4055 0 23.617C0 23.8285 0.171472 24 0.382979 24H23.617C23.8286 24 24 23.8285 24 23.617C24 23.4055 23.8286 23.234 23.617 23.234Z" fill="#80BF88"/>
<path d="M23.617 1.53191H22.3404V1.14894C22.3404 0.515387 21.825 0 21.1915 0C20.558 0 20.0426 0.515387 20.0426 1.14894V1.53191H16.2128V1.14894C16.2128 0.515387 15.6973 0 15.0638 0C14.4303 0 13.9149 0.515387 13.9149 1.14894V1.53191H10.0851V1.14894C10.0851 0.515387 9.56972 0 8.93617 0C8.30262 0 7.78723 0.515387 7.78723 1.14894V1.53191H3.95745V1.14894C3.95745 0.515387 3.44206 0 2.80851 0C2.17496 0 1.65957 0.515387 1.65957 1.14894V1.53191H0.382979C0.171472 1.53191 0 1.70339 0 1.91489V20.5532C0 20.7647 0.171472 20.9362 0.382979 20.9362H23.617C23.8286 20.9362 24 20.7647 24 20.5532V1.91489C24 1.70339 23.8286 1.53191 23.617 1.53191ZM20.8085 1.14894C20.8085 0.937736 20.9803 0.765957 21.1915 0.765957C21.4027 0.765957 21.5745 0.937736 21.5745 1.14894V2.68085C21.5745 2.89205 21.4027 3.06383 21.1915 3.06383C20.9803 3.06383 20.8085 2.89205 20.8085 2.68085V1.14894ZM14.6809 1.14894C14.6809 0.937736 14.8526 0.765957 15.0638 0.765957C15.275 0.765957 15.4468 0.937736 15.4468 1.14894V2.68085C15.4468 2.89205 15.275 3.06383 15.0638 3.06383C14.8526 3.06383 14.6809 2.89205 14.6809 2.68085V1.14894ZM8.55319 1.14894C8.55319 0.937736 8.72497 0.765957 8.93617 0.765957C9.14737 0.765957 9.31915 0.937736 9.31915 1.14894V2.68085C9.31915 2.89205 9.14737 3.06383 8.93617 3.06383C8.72497 3.06383 8.55319 2.89205 8.55319 2.68085V1.14894ZM2.42553 1.14894C2.42553 0.937736 2.59731 0.765957 2.80851 0.765957C3.01971 0.765957 3.19149 0.937736 3.19149 1.14894V2.68085C3.19149 2.89205 3.01971 3.06383 2.80851 3.06383C2.59731 3.06383 2.42553 2.89205 2.42553 2.68085V1.14894ZM1.65957 2.29787V2.68085C1.65957 3.3144 2.17496 3.82979 2.80851 3.82979C3.44206 3.82979 3.95745 3.3144 3.95745 2.68085V2.29787H7.78723V2.68085C7.78723 3.3144 8.30262 3.82979 8.93617 3.82979C9.56972 3.82979 10.0851 3.3144 10.0851 2.68085V2.29787H13.9149V2.68085C13.9149 3.3144 14.4303 3.82979 15.0638 3.82979C15.6973 3.82979 16.2128 3.3144 16.2128 2.68085V2.29787H20.0426V2.68085C20.0426 3.3144 20.558 3.82979 21.1915 3.82979C21.825 3.82979 22.3404 3.3144 22.3404 2.68085V2.29787H23.234V6.24511H0.765957V2.29787H1.65957ZM0.765957 20.1702V7.01106H23.234V20.1702H0.765957Z" fill="#80BF88"/>
<path d="M21.0379 11.5813H19.506C19.2945 11.5813 19.123 11.7528 19.123 11.9643C19.123 12.1758 19.2945 12.3473 19.506 12.3473H21.0379C21.2495 12.3473 21.4209 12.1758 21.4209 11.9643C21.4209 11.7528 21.2495 11.5813 21.0379 11.5813Z" fill="#80BF88"/>
<path d="M16.9022 11.5813H15.3703C15.1587 11.5813 14.9873 11.7528 14.9873 11.9643C14.9873 12.1758 15.1587 12.3473 15.3703 12.3473H16.9022C17.1138 12.3473 17.2852 12.1758 17.2852 11.9643C17.2852 11.7528 17.1138 11.5813 16.9022 11.5813Z" fill="#80BF88"/>
<path d="M12.7655 11.5813H11.2336C11.0221 11.5813 10.8506 11.7528 10.8506 11.9643C10.8506 12.1758 11.0221 12.3473 11.2336 12.3473H12.7655C12.977 12.3473 13.1485 12.1758 13.1485 11.9643C13.1485 11.7528 12.977 11.5813 12.7655 11.5813Z" fill="#80BF88"/>
<path d="M8.62974 11.5813H7.09782C6.88632 11.5813 6.71484 11.7528 6.71484 11.9643C6.71484 12.1758 6.88632 12.3473 7.09782 12.3473H8.62974C8.84124 12.3473 9.01272 12.1758 9.01272 11.9643C9.01272 11.7528 8.84124 11.5813 8.62974 11.5813Z" fill="#80BF88"/>
<path d="M4.494 11.5813H2.96208C2.75057 11.5813 2.5791 11.7528 2.5791 11.9643C2.5791 12.1758 2.75057 12.3473 2.96208 12.3473H4.494C4.7055 12.3473 4.87697 12.1758 4.87697 11.9643C4.87697 11.7528 4.7055 11.5813 4.494 11.5813Z" fill="#80BF88"/>
<path d="M16.9022 14.3387H15.3703C15.1587 14.3387 14.9873 14.5102 14.9873 14.7217C14.9873 14.9332 15.1587 15.1047 15.3703 15.1047H16.9022C17.1138 15.1047 17.2852 14.9332 17.2852 14.7217C17.2852 14.5102 17.1138 14.3387 16.9022 14.3387Z" fill="#80BF88"/>
<path d="M12.7655 14.3387H11.2336C11.0221 14.3387 10.8506 14.5102 10.8506 14.7217C10.8506 14.9332 11.0221 15.1047 11.2336 15.1047H12.7655C12.977 15.1047 13.1485 14.9332 13.1485 14.7217C13.1485 14.5102 12.977 14.3387 12.7655 14.3387Z" fill="#80BF88"/>
<path d="M8.62974 14.3387H7.09782C6.88632 14.3387 6.71484 14.5102 6.71484 14.7217C6.71484 14.9332 6.88632 15.1047 7.09782 15.1047H8.62974C8.84124 15.1047 9.01272 14.9332 9.01272 14.7217C9.01272 14.5102 8.84124 14.3387 8.62974 14.3387Z" fill="#80BF88"/>
<path d="M4.494 14.3387H2.96208C2.75057 14.3387 2.5791 14.5102 2.5791 14.7217C2.5791 14.9332 2.75057 15.1047 2.96208 15.1047H4.494C4.7055 15.1047 4.87697 14.9332 4.87697 14.7217C4.87697 14.5102 4.7055 14.3387 4.494 14.3387Z" fill="#80BF88"/>
<path d="M16.9022 17.0962H15.3703C15.1587 17.0962 14.9873 17.2677 14.9873 17.4792C14.9873 17.6907 15.1587 17.8621 15.3703 17.8621H16.9022C17.1138 17.8621 17.2852 17.6907 17.2852 17.4792C17.2852 17.2677 17.1138 17.0962 16.9022 17.0962Z" fill="#80BF88"/>
<path d="M21.0379 14.3387H19.506C19.2945 14.3387 19.123 14.5102 19.123 14.7217C19.123 14.9332 19.2945 15.1047 19.506 15.1047H21.0379C21.2495 15.1047 21.4209 14.9332 21.4209 14.7217C21.4209 14.5102 21.2495 14.3387 21.0379 14.3387Z" fill="#80BF88"/>
<path d="M21.0379 17.0962H19.506C19.2945 17.0962 19.123 17.2677 19.123 17.4792C19.123 17.6907 19.2945 17.8621 19.506 17.8621H21.0379C21.2495 17.8621 21.4209 17.6907 21.4209 17.4792C21.4209 17.2677 21.2495 17.0962 21.0379 17.0962Z" fill="#80BF88"/>
<path d="M12.7655 17.0962H11.2336C11.0221 17.0962 10.8506 17.2677 10.8506 17.4792C10.8506 17.6907 11.0221 17.8621 11.2336 17.8621H12.7655C12.977 17.8621 13.1485 17.6907 13.1485 17.4792C13.1485 17.2677 12.977 17.0962 12.7655 17.0962Z" fill="#80BF88"/>
<path d="M8.62974 17.0962H7.09782C6.88632 17.0962 6.71484 17.2677 6.71484 17.4792C6.71484 17.6907 6.88632 17.8621 7.09782 17.8621H8.62974C8.84124 17.8621 9.01272 17.6907 9.01272 17.4792C9.01272 17.2677 8.84124 17.0962 8.62974 17.0962Z" fill="#80BF88"/>
<path d="M4.494 17.0962H2.96208C2.75057 17.0962 2.5791 17.2677 2.5791 17.4792C2.5791 17.6907 2.75057 17.8621 2.96208 17.8621H4.494C4.7055 17.8621 4.87697 17.6907 4.87697 17.4792C4.87697 17.2677 4.7055 17.0962 4.494 17.0962Z" fill="#80BF88"/>
<path d="M21.0379 8.82385H19.506C19.2945 8.82385 19.123 8.99532 19.123 9.20683C19.123 9.41834 19.2945 9.58981 19.506 9.58981H21.0379C21.2495 9.58981 21.4209 9.41834 21.4209 9.20683C21.4209 8.99532 21.2495 8.82385 21.0379 8.82385Z" fill="#80BF88"/>
<path d="M16.9022 8.82385H15.3703C15.1587 8.82385 14.9873 8.99532 14.9873 9.20683C14.9873 9.41834 15.1587 9.58981 15.3703 9.58981H16.9022C17.1138 9.58981 17.2852 9.41834 17.2852 9.20683C17.2852 8.99532 17.1138 8.82385 16.9022 8.82385Z" fill="#80BF88"/>
<path d="M12.7655 8.82385H11.2336C11.0221 8.82385 10.8506 8.99532 10.8506 9.20683C10.8506 9.41834 11.0221 9.58981 11.2336 9.58981H12.7655C12.977 9.58981 13.1485 9.41834 13.1485 9.20683C13.1485 8.99532 12.977 8.82385 12.7655 8.82385Z" fill="#80BF88"/>
<path d="M8.62974 8.82385H7.09782C6.88632 8.82385 6.71484 8.99532 6.71484 9.20683C6.71484 9.41834 6.88632 9.58981 7.09782 9.58981H8.62974C8.84124 9.58981 9.01272 9.41834 9.01272 9.20683C9.01272 8.99532 8.84124 8.82385 8.62974 8.82385Z" fill="#80BF88"/>
<path d="M4.494 8.82385H2.96208C2.75057 8.82385 2.5791 8.99532 2.5791 9.20683C2.5791 9.41834 2.75057 9.58981 2.96208 9.58981H4.494C4.7055 9.58981 4.87697 9.41834 4.87697 9.20683C4.87697 8.99532 4.7055 8.82385 4.494 8.82385Z" fill="#80BF88"/>
</svg>
