<svg width="24" height="24" viewBox="0 0 24 24" fill="none" xmlns="http://www.w3.org/2000/svg">
<path d="M23.9998 12.0375C23.9998 7.17011 20.2977 2.92525 14.9901 1.71453C14.4825 1.59689 13.9639 1.87139 13.837 2.32234C13.7046 2.7733 14.0136 3.23405 14.5211 3.34679C18.9846 4.36144 22.1018 7.93967 22.1018 12.0375C22.1018 15.65 19.6798 18.8508 16.0549 20.2576L16.9322 18.444C17.1363 18.0175 16.9156 17.5225 16.4356 17.3362C15.9556 17.1548 15.3984 17.3509 15.1887 17.7773L13.4784 21.3164C13.2742 21.7428 13.4949 22.2379 13.9749 22.4241L17.9584 23.9437C18.5542 24.1299 19.0508 23.8211 19.2053 23.5025C19.4094 23.0761 19.1887 22.581 18.7087 22.3947L16.9763 21.733C21.197 20.037 23.9998 16.2725 23.9998 12.0375V12.0375Z" fill="#80BF88"/>
<path d="M9.47862 20.7282C5.01517 19.7086 1.89793 16.1353 1.89793 12.0375C1.89793 8.47395 4.25379 5.31236 7.79586 3.87617L6.97379 5.57215C6.76966 5.9986 6.97931 6.51327 7.47034 6.67993C8.04414 6.87109 8.52966 6.64072 8.71724 6.23878L10.4276 2.69486C10.5931 2.35174 10.5876 1.83707 9.93103 1.58708L5.94759 0.0675588C5.46759 -0.113804 4.91035 0.0822638 4.70069 0.50871C4.49655 0.935157 4.71724 1.43023 5.19724 1.61649L7.05103 2.32233C2.81379 4.02322 0 7.79261 0 12.0375C0 16.9048 3.70759 21.1448 9.00965 22.3604C9.64965 22.5075 10.0524 22.1349 10.1628 21.7526C10.2897 21.3016 9.98621 20.8458 9.47862 20.7282V20.7282Z" fill="#80BF88"/>
<path d="M14.234 15.2138C14.7195 14.7628 14.9623 14.1942 14.9623 13.5178C14.9623 13.209 14.9016 12.9247 14.7857 12.66C14.6699 12.3953 14.5044 12.1698 14.2892 11.9738C14.074 11.7826 13.7926 11.6208 13.4506 11.4836C13.2685 11.415 12.9044 11.3169 12.3471 11.1944V8.38082C12.7057 8.44454 12.9871 8.58179 13.1968 8.78766C13.4009 8.99353 13.5388 9.28763 13.605 9.66996L14.7416 9.51801C14.6423 8.9004 14.3554 8.41023 13.8754 8.05731C13.5002 7.77791 12.9926 7.61125 12.3526 7.55733V7.09167H11.7016V7.55733C10.9733 7.62106 10.4216 7.80242 10.0519 8.09162C9.4947 8.52297 9.21884 9.08666 9.21884 9.7827C9.21884 10.1748 9.31263 10.5229 9.50573 10.8317C9.69332 11.1405 9.96366 11.3806 10.3168 11.5522C10.7913 11.7875 11.2547 11.9443 11.7071 12.0179V15.1304C11.2768 15.0912 10.9016 14.8952 10.5926 14.5471C10.3775 14.302 10.223 13.9148 10.1402 13.3903L9.03125 13.5766C9.06987 14.0815 9.21884 14.5128 9.46711 14.8657C9.71539 15.2187 10.0133 15.4736 10.3609 15.6304C10.703 15.7873 11.1554 15.8951 11.7016 15.9588V16.9343H12.3526V15.9441C13.125 15.9098 13.754 15.6647 14.234 15.2138ZM11.7071 11.0718C11.205 10.9395 10.8519 10.7581 10.6423 10.5327C10.4326 10.3072 10.3278 10.0278 10.3278 9.69447C10.3278 9.35625 10.4492 9.06705 10.6975 8.82197C10.9457 8.57688 11.2823 8.42493 11.7071 8.36611V11.0718ZM13.4119 14.6305C13.1306 14.9148 12.7775 15.0765 12.3526 15.1255V12.1502C12.943 12.3218 13.3402 12.5129 13.5388 12.7286C13.7375 12.9443 13.8368 13.2286 13.8368 13.5864C13.8312 13.9981 13.6933 14.3511 13.4119 14.6305V14.6305Z" fill="#80BF88"/>
</svg>
