<svg width="24" height="24" viewBox="0 0 24 24" fill="none" xmlns="http://www.w3.org/2000/svg">
<path d="M12 0C14.612 0 16.741 1.69624 16.8386 3.8189L16.8421 3.97122H22.9474C23.5287 3.97122 24 4.35774 24 4.83453C24 5.28153 23.5858 5.64917 23.055 5.69338L22.9474 5.69784H22.0286L20.5944 21.2856C20.4535 22.8167 18.8977 24 17.0256 24H6.97441C5.1023 24 3.54651 22.8167 3.40562 21.2856L1.97053 5.69784H1.05263C0.507614 5.69784 0.0593398 5.35813 0.00543454 4.9228L0 4.83453C0 4.38754 0.414211 4.01989 0.945007 3.97568L1.05263 3.97122H7.15789C7.15789 1.77798 9.32578 0 12 0ZM19.9176 5.69784H4.08244L5.50491 21.1557C5.56292 21.7861 6.20354 22.2734 6.97441 22.2734H17.0256C17.7965 22.2734 18.4371 21.7861 18.4951 21.1557L19.9176 5.69784ZM14.7368 9.32374C15.2819 9.32374 15.7301 9.66345 15.784 10.0988L15.7895 10.1871V17.7842C15.7895 18.261 15.3182 18.6475 14.7368 18.6475C14.1918 18.6475 13.7436 18.3078 13.6896 17.8724L13.6842 17.7842V10.1871C13.6842 9.71026 14.1555 9.32374 14.7368 9.32374ZM9.26316 9.32374C9.80818 9.32374 10.2564 9.66345 10.3104 10.0988L10.3158 10.1871V17.7842C10.3158 18.261 9.84451 18.6475 9.26316 18.6475C8.71814 18.6475 8.26987 18.3078 8.21596 17.8724L8.21053 17.7842V10.1871C8.21053 9.71026 8.68181 9.32374 9.26316 9.32374ZM12 1.72662C10.5406 1.72662 9.348 2.66345 9.26749 3.84385L9.26316 3.97122H14.7368C14.7368 2.73156 13.5115 1.72662 12 1.72662Z" fill="#80BF88"/>
</svg>
