<svg width="21" height="21" viewBox="0 0 21 21" fill="none" xmlns="http://www.w3.org/2000/svg">
<path d="M19.0312 1.0481C20.4286 2.44556 20.4286 4.71129 19.0312 6.10876L7.06283 18.0771C6.78596 18.354 6.44162 18.5538 6.06386 18.6568L0.948166 20.052C0.388292 20.2047 -0.125438 19.691 0.0272554 19.1311L1.42244 14.0154C1.52547 13.6376 1.7253 13.2933 2.00217 13.0164L13.9705 1.0481C15.368 -0.349366 17.6337 -0.349366 19.0312 1.0481ZM13.001 4.139L3.06283 14.0771C2.97054 14.1694 2.90393 14.2842 2.86959 14.4101L1.81974 18.2595L5.66918 17.2097C5.7951 17.1753 5.90988 17.1087 6.00217 17.0164L15.94 7.078L13.001 4.139ZM15.0312 2.10876L14.061 3.078L17 6.018L17.9705 5.0481C18.7822 4.23642 18.7822 2.92043 17.9705 2.10876C17.1588 1.29708 15.8428 1.29708 15.0312 2.10876Z" fill="#80BF88"/>
</svg>
