<svg width="24" height="24" viewBox="0 0 24 24" fill="none" xmlns="http://www.w3.org/2000/svg">
<path d="M12 0C5.39048 0 0 5.39048 0 12C0 18.6095 5.39048 24 12 24C18.6095 24 24 18.6095 24 12C24 5.39048 18.6095 0 12 0ZM12 22.4762C6.22857 22.4762 1.52381 17.7714 1.52381 12C1.52381 6.22857 6.22857 1.52381 12 1.52381C17.7714 1.52381 22.4762 6.22857 22.4762 12C22.4762 17.7714 17.7714 22.4762 12 22.4762Z" fill="#80BF88"/>
<path d="M12.7621 10.1904H11.2383V17.8095H12.7621V10.1904Z" fill="#80BF88"/>
<path d="M12.7621 6.57141H11.2383V8.09522H12.7621V6.57141Z" fill="#80BF88"/>
</svg>
