<svg width="24" height="24" viewBox="0 0 24 24" fill="none" xmlns="http://www.w3.org/2000/svg">
<path d="M23.839 20.1397L19.1163 12.3935C20.0977 11.0477 20.5798 9.49832 20.5798 7.95163C20.5798 3.56704 16.7309 0 12.0001 0C7.26923 0 3.42042 3.56704 3.42042 7.95155C3.42042 9.49058 3.89772 11.0409 4.88391 12.3935L0.160894 20.1402C-0.372781 21.0178 0.505975 22.0572 1.55226 21.7881L3.61887 21.256L4.19299 23.1706C4.48389 24.1409 5.8991 24.3018 6.43421 23.4245L11.0494 15.8541C11.6818 15.919 12.3178 15.9191 12.9509 15.8541L17.5662 23.4246C18.1033 24.3051 19.5169 24.1395 19.8074 23.1707L20.3815 21.2561L22.448 21.7881C23.495 22.058 24.3726 21.0171 23.839 20.1397ZM5.38355 22.7661L4.66743 20.3779C4.57414 20.0668 4.22653 19.8838 3.88937 19.9704L1.31159 20.634L5.73267 13.3824C6.1332 13.7797 6.58421 14.1413 7.04575 14.4437L5.34453 17.2343C5.17279 17.5159 5.27998 17.8733 5.58385 18.0324C5.88815 18.1917 6.27351 18.0919 6.445 17.8106L8.12877 15.0486C8.62942 15.2842 9.17742 15.4828 9.73772 15.6239L5.38355 22.7661ZM12.0062 14.7316C12.0041 14.7316 12.0021 14.7317 12.0001 14.7317C11.9993 14.7317 11.9986 14.7317 11.9978 14.7317C7.97288 14.7301 4.68462 11.6965 4.68462 7.9514C4.68462 4.213 7.9663 1.17165 12 1.17165C16.0337 1.17165 19.3154 4.213 19.3154 7.9514C19.3155 11.6949 16.0296 14.729 12.0062 14.7316ZM20.1108 19.9705C19.7746 19.884 19.4261 20.0664 19.3328 20.378L18.6166 22.7662L14.2624 15.624C14.8149 15.4849 15.3731 15.2833 15.8714 15.0488L17.5552 17.8107C17.7269 18.0924 18.1125 18.1917 18.4163 18.0325C18.7203 17.8733 18.8274 17.516 18.6556 17.2344L16.9543 14.4437C17.4001 14.1516 17.8613 13.7854 18.2674 13.3824L22.6885 20.6341L20.1108 19.9705Z" fill="#696969" fill-opacity="0.5"/>
<path d="M11.9999 2.34299C8.66305 2.34299 5.94824 4.85897 5.94824 7.95155C5.94824 11.0441 8.66297 13.5601 11.9999 13.5601C15.3369 13.5601 18.0515 11.0442 18.0515 7.95155C18.0515 4.85897 15.3368 2.34299 11.9999 2.34299ZM11.9998 12.3886C9.35995 12.3886 7.21228 10.3983 7.21228 7.95155C7.21228 5.50501 9.35995 3.51448 11.9998 3.51448C14.6397 3.51448 16.7874 5.50493 16.7874 7.95155C16.7874 10.3982 14.6397 12.3886 11.9998 12.3886Z" fill="#696969" fill-opacity="0.5"/>
<path d="M12.0002 4.68597C10.0573 4.68597 8.47656 6.15089 8.47656 7.95155C8.47656 9.75222 10.0572 11.2171 12.0002 11.2171C13.9432 11.2171 15.5237 9.75229 15.5237 7.95155C15.5237 6.15089 13.9431 4.68597 12.0002 4.68597ZM12.0002 10.0456C10.7542 10.0457 9.7406 9.10633 9.7406 7.95155C9.7406 6.79685 10.7542 5.85747 12.0002 5.85747C13.2461 5.85747 14.2597 6.79685 14.2597 7.95155C14.2597 9.10625 13.2461 10.0456 12.0002 10.0456Z" fill="#696969" fill-opacity="0.5"/>
</svg>
