<svg width="24" height="24" viewBox="0 0 24 24" fill="none" xmlns="http://www.w3.org/2000/svg">
<path d="M23.9675 15.6419L20.4124 3.7047H21.3062C21.6734 3.7047 21.9709 3.38021 21.9709 2.97987C21.9709 2.57952 21.6734 2.25503 21.3062 2.25503H12.6647V0.724832C12.6647 0.324483 12.3671 0 12 0C11.6329 0 11.3353 0.324483 11.3353 0.724832V2.25503H2.69375C2.32664 2.25503 2.02909 2.57952 2.02909 2.97987C2.02909 3.38021 2.32664 3.7047 2.69375 3.7047H3.58758L0.0325171 15.6419C-0.0419252 15.8919 0.0135372 16.1662 0.177487 16.3588L1.36391 17.7532C2.1714 18.7021 3.31529 19.2464 4.50238 19.2464C5.68947 19.2464 6.83335 18.7021 7.64077 17.7532L8.82719 16.3588C8.99114 16.1662 9.04661 15.8919 8.97216 15.6419L5.4171 3.7047H11.3353V20.4564H8.63976C7.2145 20.4564 6.05496 21.7209 6.05496 23.2752C6.05496 23.6755 6.3525 24 6.71962 24H17.2804C17.6475 24 17.945 23.6755 17.945 23.2752C17.945 21.7209 16.7855 20.4564 15.3602 20.4564H12.6647V3.7047H18.5829L15.0278 15.6419C14.9534 15.8919 15.0089 16.1662 15.1728 16.3588L16.3592 17.7532C17.1666 18.7021 18.3105 19.2464 19.4976 19.2464C20.6846 19.2464 21.8286 18.7021 22.6361 17.7532L23.8225 16.3588C23.9865 16.1662 24.0419 15.8919 23.9675 15.6419ZM6.66637 16.7671C6.10141 17.431 5.33291 17.7966 4.50238 17.7966C3.67184 17.7966 2.90327 17.431 2.33831 16.7671L2.1539 16.5503H6.85078L6.66637 16.7671ZM7.41331 15.1007H1.59137L4.50238 5.32639L7.41331 15.1007ZM15.3602 21.906C15.8086 21.906 16.2028 22.1637 16.425 22.5503H7.57504C7.79719 22.1637 8.19141 21.906 8.63976 21.906H15.3602ZM21.6616 16.7671C21.0967 17.431 20.3282 17.7966 19.4976 17.7966C18.6671 17.7966 17.8986 17.431 17.3336 16.7671L17.1492 16.5503H21.846L21.6616 16.7671ZM16.5867 15.1007L19.4976 5.32639L22.4086 15.1007H16.5867Z" fill="white"/>
</svg>
