<svg width="24" height="24" viewBox="0 0 24 24" fill="none" xmlns="http://www.w3.org/2000/svg">
<path d="M22.0646 12V10.8386H20.5161V8.90313C20.5161 6.98233 18.9533 5.41928 17.0322 5.41928H15.7746L15.9995 4.64508H13.8925C14.3961 4.1527 14.7097 3.46751 14.7097 2.70956C14.7097 1.21545 13.4938 0 12.0001 0C10.5064 0 9.29043 1.21545 9.29043 2.70964C9.29043 3.46759 9.60397 4.1527 10.1076 4.64516H8.00051L8.22544 5.41936H6.96772C5.04659 5.41936 3.48386 6.98249 3.48386 8.90321V10.8387H1.93552V12H0V17.4194H5.05203C5.25445 21.081 8.28893 24 12 24C15.7111 24 18.7456 21.0809 18.948 17.4194H24V12H22.0646ZM23.2258 12.7742V13.9355H21.2903V13.1613H18.9677V13.9355H17.0322V12.7742H17.5927H18.1934H22.0644H23.2258ZM20.5161 13.9355V14.7097C20.5161 14.923 20.3427 15.0968 20.129 15.0968C19.9153 15.0968 19.7419 14.923 19.7419 14.7097V13.9355H20.5161ZM21.2904 11.6129V12H18.9679V11.6129H21.2904ZM17.0323 6.19349C18.5261 6.19349 19.7419 7.40894 19.7419 8.90313V10.8386H18.1936V12H16.814C16.101 11.3187 15.2451 10.7926 14.3103 10.464L15.55 6.19349H17.0323ZM12.5153 16.645L13.0916 14.6612C13.6499 14.6133 14.1445 14.5308 14.5777 14.4266C14.8448 15.0878 15.038 15.8303 15.0852 16.645H12.5153ZM15.0764 17.4193C15.0287 18.2291 14.8461 18.9739 14.5774 19.6366C13.9693 19.491 13.2423 19.3896 12.3872 19.3648V17.4193H15.0764ZM13.3251 13.8569L13.6495 12.7401C13.8546 13.0304 14.0571 13.354 14.2433 13.7079C13.9654 13.7687 13.6589 13.8186 13.3251 13.8569ZM15.0074 13.4988C14.6757 12.8388 14.2886 12.2737 13.9189 11.8119L14.0943 11.2076C14.9006 11.4972 15.6388 11.9535 16.2582 12.5396V12.9124C15.9859 13.0931 15.5765 13.3091 15.0074 13.4988ZM16.2585 13.8108V16.6451H15.8597C15.8133 15.7505 15.6116 14.9349 15.3263 14.2099C15.6952 14.0829 16.0046 13.9451 16.2585 13.8108ZM10.0646 2.70964C10.0646 1.64238 10.9328 0.774125 12.0001 0.774125C13.0673 0.774125 13.9356 1.64238 13.9356 2.70964C13.9356 3.7769 13.0673 4.64516 12.0001 4.64516C10.9329 4.64516 10.0646 3.7769 10.0646 2.70964ZM4.25807 8.90321C4.25807 7.40902 5.47393 6.19357 6.96772 6.19357H8.44989L9.68973 10.464C8.75489 10.7926 7.89898 11.3187 7.18599 12H5.80657V10.8386H4.25807V8.90321ZM9.75679 13.7079C9.94295 13.3541 10.1454 13.0305 10.3506 12.7401L10.675 13.8569C10.3413 13.8185 10.0347 13.7686 9.75679 13.7079ZM10.9084 14.6613L11.4844 16.6451H8.91479C8.96202 15.8303 9.15516 15.0878 9.42228 14.4267C9.8558 14.5304 10.3501 14.6133 10.9084 14.6613ZM8.99274 13.4988C8.42371 13.3091 8.01417 13.0931 7.74201 12.9124V12.5392C8.36136 11.9531 9.09915 11.4968 9.90588 11.2072L10.0812 11.8119C9.71143 12.2737 9.32433 12.8392 8.99274 13.4988ZM7.74193 13.8108C7.99588 13.9451 8.30478 14.0829 8.67409 14.2099C8.38876 14.9349 8.18675 15.7505 8.14066 16.6451H7.74193C7.74201 16.6451 7.74201 13.8108 7.74193 13.8108ZM2.70965 11.6129H5.0322V12H2.70965V11.6129ZM0.774209 12.7742H1.93552H5.80657H6.42283H6.96788V13.9355H5.03236V13.1613H2.70965V13.9355H0.774209V12.7742ZM4.25807 13.9355V14.7097C4.25807 14.923 4.08468 15.0968 3.87097 15.0968C3.65725 15.0968 3.48386 14.923 3.48386 14.7097V13.9355H4.25807ZM0.774209 16.6451V14.7096H2.70973C2.70973 15.3498 3.2308 15.8709 3.87105 15.8709C4.51129 15.8709 5.03236 15.3498 5.03236 14.7096H6.96788V16.6451H5.41938H0.774209ZM5.82624 17.4193H7.74201H8.14887C8.19456 18.312 8.38502 19.1291 8.66799 19.8541C7.8659 20.1313 7.34027 20.4662 7.02942 20.7112C6.33723 19.7787 5.90249 18.6483 5.82624 17.4193ZM7.52789 21.3053C7.78843 21.1048 8.25642 20.8106 8.98608 20.566C9.54349 21.6801 10.2689 22.5417 10.8422 23.1134C9.55056 22.8677 8.40193 22.2201 7.52789 21.3053ZM11.6129 22.774C11.0911 22.2832 10.3409 21.4575 9.75866 20.3542C10.2786 20.2397 10.8964 20.1607 11.6129 20.1386V22.774ZM11.6129 19.3648C10.757 19.3896 10.0293 19.4914 9.42074 19.637C9.15289 18.9746 8.97096 18.2299 8.92332 17.4193H11.6129V19.3648ZM9.03176 5.41936H14.9682L12.0001 15.6437L9.03176 5.41936ZM12.3871 22.772V20.1386C13.1025 20.1607 13.7195 20.2397 14.2386 20.3535C13.6572 21.4544 12.9081 22.2801 12.3871 22.772ZM13.1578 23.1131C13.7311 22.5414 14.4565 21.6797 15.0139 20.5657C15.7436 20.8099 16.2112 21.1045 16.4721 21.305C15.5981 22.2201 14.4496 22.8677 13.1578 23.1131ZM16.9708 20.7112C16.6604 20.4662 16.1343 20.1313 15.3323 19.8541C15.6152 19.1287 15.8057 18.312 15.8514 17.4193H16.2581H18.1738C18.0977 18.6483 17.6628 19.7787 16.9708 20.7112ZM23.226 16.6451H18.5807H17.0323V14.7096H18.9678C18.9678 15.3498 19.4889 15.8709 20.1291 15.8709C20.7694 15.8709 21.2904 15.3498 21.2904 14.7096H23.226V16.6451Z" fill="#80BF88"/>
<path d="M11.2256 6.1936V6.96781H11.6126V10.8388H12.3868V6.96781H12.7739V6.1936H11.2256Z" fill="#80BF88"/>
</svg>
