<svg width="24" height="24" viewBox="0 0 24 24" fill="none" xmlns="http://www.w3.org/2000/svg">
<path d="M23.6878 10.8339L18.0137 5.37709V1.0342C18.0137 0.474774 17.552 0.0134949 16.9919 0.0134949C16.4319 0.0134949 15.9701 0.474774 15.9701 1.0342V3.4142L12.6983 0.26867C12.3397 -0.0895568 11.7257 -0.0895568 11.3179 0.26867L0.333425 10.8339C-0.074318 11.2412 -0.128356 11.8546 0.284299 12.2619C0.696955 12.6692 1.30611 12.7232 1.71386 12.311L1.86614 12.1638V22.9793C1.86614 23.5387 2.32793 24 2.88796 24H21.1823C21.7424 24 22.155 23.5387 22.2042 23.0284V12.2668L22.3073 12.365C23.054 12.8802 23.5846 12.5171 23.7369 12.2619C24.0955 11.8546 24.0955 11.1921 23.6878 10.8339ZM13.8233 22.0126H10.247V16.5508H13.8233V22.0126ZM20.1605 22.0126H15.8178V15.5301C15.8178 14.9707 15.356 14.5094 14.796 14.5094H9.22517C8.66513 14.5094 8.20335 14.9707 8.20335 15.5301V22.0126H3.90977V12.0067H20.1605V22.0126ZM4.10627 10.0193L12.0352 2.41313L19.8854 10.0193H4.10627Z" fill="#80BF88"/>
</svg>
