<svg width="24" height="24" viewBox="0 0 24 24" fill="none" xmlns="http://www.w3.org/2000/svg">
<path d="M12 1.77384C13.0606 1.77384 14.0777 1.96072 14.8277 2.29338C15.5776 2.62604 15.9989 3.07722 15.9989 3.54767C15.9989 4.01812 15.5776 4.4693 14.8277 4.80196C14.0777 5.13462 13.0606 5.32151 12 5.32151C10.9394 5.32151 9.92229 5.13462 9.17235 4.80196C8.42241 4.4693 8.00109 4.01812 8.00109 3.54767C8.00109 3.07722 8.42241 2.62604 9.17235 2.29338C9.92229 1.96072 10.9394 1.77384 12 1.77384ZM12 0C9.87885 0 7.84457 0.373772 6.34469 1.03909C4.84481 1.70441 4.00219 2.60677 4.00219 3.54767C4.00219 4.48857 4.84481 5.39094 6.34469 6.05625C7.84457 6.72157 9.87885 7.09534 12 7.09534C14.1212 7.09534 16.1554 6.72157 17.6553 6.05625C19.1552 5.39094 19.9978 4.48857 19.9978 3.54767C19.9978 2.60677 19.1552 1.70441 17.6553 1.03909C16.1554 0.373772 14.1212 0 12 0ZM16.9187 7.96452H7.08134C5.20412 7.96452 3.40379 8.29531 2.0764 8.88412C0.749001 9.47292 0.00327731 10.2715 0.00327731 11.1042V15.7871C-0.0404217 16.28 0.354305 16.7608 1.10236 17.1258C1.85041 17.4908 2.89186 17.7108 4.00219 17.7384V21.8714C4.00219 22.4359 4.50776 22.9774 5.40769 23.3765C6.30762 23.7757 7.52818 24 8.80087 24H15.1991C15.843 24.0002 16.4803 23.9428 17.0732 23.8315C17.6661 23.7201 18.2024 23.5569 18.6501 23.3517C19.0979 23.1464 19.448 22.9033 19.6795 22.6368C19.911 22.3703 20.0193 22.0859 19.9978 21.8004V17.7384C21.1081 17.7108 22.1496 17.4908 22.8976 17.1258C23.6457 16.7608 24.0404 16.28 23.9967 15.7871V11.1042C23.9967 10.2715 23.251 9.47292 21.9236 8.88412C20.5962 8.29531 18.7959 7.96452 16.9187 7.96452ZM4.00219 15.9645V11.1042C3.99681 10.9242 4.07278 10.7455 4.22562 10.5787C4.37846 10.4119 4.60507 10.2604 4.89207 10.1331C5.17908 10.0058 5.52066 9.90527 5.89667 9.83747C6.27268 9.76967 6.67549 9.73597 7.08134 9.73836H16.9187C17.3245 9.73597 17.7273 9.76967 18.1033 9.83747C18.4793 9.90527 18.8209 10.0058 19.1079 10.1331C19.3949 10.2604 19.6215 10.4119 19.7744 10.5787C19.9272 10.7455 20.0032 10.9242 19.9978 11.1042V15.9645H15.9989V21.8359C15.9989 21.93 15.9146 22.0202 15.7647 22.0868C15.6147 22.1533 15.4112 22.1907 15.1991 22.1907H8.80087C8.58876 22.1907 8.38533 22.1533 8.23534 22.0868C8.08535 22.0202 8.00109 21.93 8.00109 21.8359V15.9645H4.00219Z" fill="#80BF88"/>
</svg>
