<svg width="22" height="41" viewBox="0 0 22 41" fill="none" xmlns="http://www.w3.org/2000/svg">
<path d="M6.17376 19.0234C6.17376 19.2437 0.751953 37.4542 0.751953 37.4542L5.41242 35.3684L7.96489 41.0002L11.2457 19.3076L6.17376 19.0234Z" fill="#80BF88"/>
<path d="M10.1426 19.7936L11.2472 40.6802L15.3069 34.9514L20.5505 38.7067L15.3069 18.1924L10.1426 19.7936Z" fill="#80BF88"/>
<g opacity="0.5">
<path d="M5.82227 20.4041C5.94313 20.7916 6.17867 21.1331 6.49772 21.3837C6.81677 21.6342 7.20428 21.7819 7.609 21.8071C8.08649 21.8269 8.61239 21.6794 9.01506 21.9393C9.41774 22.1992 9.58717 22.8049 10.0603 22.8687C10.6148 22.948 10.9404 22.208 11.4641 22.0318C12.1793 21.7983 12.9296 22.6617 13.6337 22.3952C14.087 22.2234 14.2938 21.6397 14.7735 21.5142C14.9841 21.4786 15.1997 21.4861 15.4072 21.5362C15.6546 21.5636 15.9045 21.516 16.1246 21.3996L15.8671 20.3931L15.427 18.4395H6.0005L5.82227 20.4041Z" fill="black"/>
</g>
<path d="M11.3359 4.14515C11.7987 4.18486 12.2556 4.27647 12.698 4.41827C12.6973 4.34281 12.7115 4.26796 12.7398 4.19801C13.1388 3.12905 13.5363 2.0623 13.9324 0.997745L13.961 0.971313C13.7957 0.878099 13.6593 0.740877 13.5671 0.574857C13.4524 0.395628 13.2936 0.248867 13.106 0.148606C12.9184 0.0483442 12.7082 -0.00206306 12.4956 0.00220308C12.2755 0.909643 12.0137 2.15187 11.82 2.92495C11.7373 3.35869 11.573 3.77275 11.3359 4.14515Z" fill="#80BF88"/>
<path d="M5.59261 13.8711C5.29799 13.4314 5.05994 12.9563 4.88408 12.457C4.82256 12.5174 4.74691 12.5613 4.66404 12.5848L4.56942 12.6178C4.51053 12.6557 4.44873 12.6888 4.38459 12.7169C4.18447 12.7936 3.98025 12.859 3.77288 12.913L3.02033 13.1222C2.48563 13.2676 1.99935 13.3931 1.64728 13.4768C1.45932 13.5342 1.26625 13.5733 1.07077 13.5935C1.24866 13.5105 1.43443 13.4456 1.62527 13.3997L2.10496 13.2588L1.00476 13.5032C0.861731 14.1287 0.419453 14.7983 0.808925 15.2807C0.850137 15.33 0.898319 15.373 0.95195 15.4084C2.35361 14.8886 4.15134 14.2168 5.32856 13.9063C5.41391 13.8795 5.50323 13.8676 5.59261 13.8711Z" fill="#80BF88"/>
<path d="M9.20015 3.98431C9.20015 4.04598 9.20015 4.09884 9.20015 4.1473C9.20015 4.19575 9.20015 4.26183 9.20015 4.31689C9.70333 4.18661 10.2207 4.11928 10.7404 4.11646C10.7404 4.08783 10.7404 4.0592 10.7404 4.03056L10.8131 2.87204C10.8131 2.79495 10.8131 2.71566 10.8131 2.63416C10.8285 1.80161 10.8615 1.11222 10.8901 0.977863C10.6568 0.702547 10.4346 0.125487 9.96369 0.0638166C9.57422 0.0131585 9.37178 0.0638169 9.20675 0.222399C9.22435 1.38093 9.18695 2.84561 9.20015 3.98431Z" fill="#80BF88"/>
<path d="M3.12025 8.04321C3.21707 8.08138 3.31389 8.11662 3.41071 8.14893C2.99923 7.98594 2.57675 7.80974 2.17188 7.63574C2.45133 7.76569 2.77039 7.90665 3.12025 8.04321Z" fill="#80BF88"/>
<path d="M4.5363 10.0674C4.56424 9.5828 4.64842 9.10309 4.78715 8.63797C4.66392 8.60052 4.5363 8.55868 4.40647 8.51463C3.95472 8.4398 3.51216 8.31724 3.08623 8.14901C2.60722 7.958 2.14057 7.73732 1.68897 7.48825C1.44693 7.3583 1.2753 7.268 1.19388 7.20412L0.929829 7.0918C0.758197 7.37152 0.489746 7.60058 0.302712 7.8803C0.202329 8.03925 0.148228 8.22307 0.146484 8.41111C1.57895 8.80316 3.30847 9.32075 4.51209 10.0388L4.5363 10.0674Z" fill="#80BF88"/>
<path d="M5.01977 7.94218C5.19632 7.52791 5.41769 7.13424 5.67989 6.76823L5.58528 6.70656C4.86206 6.22544 4.19744 5.66145 3.60491 5.02603L3.5895 5.00841C3.32105 4.78816 3.06581 4.55249 2.83916 4.34766C2.8089 4.44404 2.75696 4.5322 2.68734 4.60535C2.34627 4.94674 1.70596 4.72649 1.32969 5.02824C1.19662 5.13914 1.11084 5.29669 1.08984 5.46874C2.28535 6.13336 3.44374 6.86274 4.55989 7.65364C4.74032 7.76597 4.90095 7.86509 5.01977 7.94218Z" fill="#80BF88"/>
<path d="M5.61741 5.77281C5.77144 5.99307 5.90786 6.18248 6.00908 6.33225C6.35177 5.92743 6.74438 5.56776 7.1775 5.26183C7.04547 5.09444 6.88264 4.87639 6.70221 4.63411C6.54158 4.4491 6.35895 4.22884 6.16751 3.98877C5.88586 3.63416 5.64382 3.30599 5.47659 3.06151C5.37669 2.93606 5.29313 2.79839 5.22794 2.65184C5.22794 2.65184 5.29615 2.7091 5.39077 2.82584C5.23674 2.60558 5.09151 2.41837 4.96389 2.25098C4.87329 2.45437 4.72677 2.62778 4.54141 2.75095C4.26416 2.91614 3.89669 2.90733 3.58203 2.9712C4.21874 3.73508 4.80668 4.53839 5.34236 5.37636L5.61741 5.77281Z" fill="#80BF88"/>
<path d="M7.56808 5.00604C7.92866 4.78895 8.31061 4.6096 8.70789 4.47082C8.69249 4.42457 8.67929 4.37611 8.66388 4.32105C8.57807 4.02371 8.47465 3.60964 8.38443 3.1449C8.29422 2.68017 8.2348 2.26389 8.2018 1.95113C8.18143 1.79263 8.17114 1.63299 8.17099 1.47319L8.15779 1.38729C8.01052 1.39934 7.86232 1.38199 7.7218 1.33624C7.58128 1.29049 7.45125 1.21725 7.33924 1.12078C6.97617 0.79481 6.36005 0.836658 5.88477 1.04149C6.38646 2.25068 7.1368 3.90477 7.55048 4.96419C7.55708 4.9774 7.56148 4.99062 7.56808 5.00604Z" fill="#80BF88"/>
<path d="M5.95532 6.39706L5.93945 6.37891L5.95306 6.4016L5.95532 6.39706Z" fill="#80BF88"/>
<path d="M4.77327 12.1121C4.63259 11.6185 4.55206 11.1097 4.53342 10.5968H4.49821C4.05813 10.621 3.54324 10.6144 3.00194 10.5968C2.83691 10.5968 2.66747 10.5968 2.48704 10.5968C1.96334 10.5968 1.49026 10.5549 1.14919 10.5219C0.992963 10.5065 0.867537 10.491 0.77512 10.4778L0.44066 10.458C0.365846 10.5725 0.291032 10.6783 0.220619 10.806C0.0291837 11.143 -0.0918401 11.5659 0.0885934 11.9073L0.108396 11.9359C1.56507 11.9711 3.02027 12.0137 4.47401 12.0636C4.57597 12.06 4.67765 12.0765 4.77327 12.1121Z" fill="#80BF88"/>
<path d="M6.81738 15.3515L6.90979 15.292C6.49751 14.9627 6.12791 14.5831 5.80959 14.1621C5.76815 14.2368 5.70926 14.3002 5.63795 14.3471C5.61228 14.4134 5.56981 14.4718 5.51473 14.5167C5.23308 14.737 4.83701 14.9815 4.39473 15.2722C3.95244 15.5629 3.55197 15.8096 3.25711 15.988C3.10421 16.0946 2.94047 16.1846 2.76862 16.2567C2.90362 16.1299 3.05106 16.017 3.2087 15.9197C3.37153 15.8096 3.56957 15.673 3.79182 15.5277C3.36494 15.7854 2.93585 16.0431 2.55078 16.2787C2.62339 16.6047 2.50897 16.9835 2.6586 17.2897C2.80823 17.5958 3.11629 17.6861 3.45955 17.7478L6.07804 15.8008C6.30317 15.6184 6.55186 15.4673 6.81738 15.3515Z" fill="#80BF88"/>
<path d="M18.7734 16.3643L19.1321 16.6462C19.1388 16.6376 19.1462 16.6295 19.1541 16.622L19.0375 16.5449L18.7734 16.3643Z" fill="#80BF88"/>
<path d="M15.5067 14.4814C15.1755 14.8637 14.7994 15.2046 14.3867 15.4968C14.5029 15.6157 14.6109 15.7423 14.7102 15.8756C14.7224 15.8837 14.7342 15.8926 14.7454 15.9021C14.9237 16.0798 15.0723 16.285 15.1855 16.51L15.6388 17.2831L15.652 17.3095C15.9468 17.8007 16.2417 18.3116 16.5013 18.7565C16.5336 18.6845 16.5775 18.6183 16.6311 18.5605C17.0888 18.0826 18.0174 18.5473 18.5015 18.1002C18.5492 18.0545 18.5907 18.0027 18.6247 17.946C17.7335 16.9747 16.5453 15.6135 15.7884 14.8184C15.683 14.7163 15.5886 14.6033 15.5067 14.4814ZM15.8566 15.5254C16.0544 15.7761 16.2366 16.0387 16.4023 16.3117C16.5985 16.5639 16.78 16.8271 16.9458 17.1003C16.6918 16.8994 16.4757 16.6547 16.3077 16.3778C16.1095 16.1217 15.9569 15.8334 15.8566 15.5254Z" fill="#80BF88"/>
<path d="M10.947 1.01737C10.9414 1.0128 10.9362 1.00763 10.9316 1.00195C10.9336 1.0379 10.9336 1.07393 10.9316 1.10988L10.947 1.01737Z" fill="#80BF88"/>
<path d="M16.9987 11.1025C16.9465 11.5527 16.8454 11.9958 16.6973 12.4241L16.8689 12.5078L17.4762 12.8249C17.2695 12.7203 17.0722 12.598 16.8865 12.4593C17.5232 12.7356 18.1439 13.0474 18.7458 13.3932C19.1859 13.6332 19.604 13.8601 19.9187 14.0385L20.1233 14.1244C20.1203 14.0213 20.1352 13.9185 20.1673 13.8205C20.3389 13.3249 20.9727 13.065 21.1905 12.6289C19.8614 12.1421 18.1539 11.5364 16.9987 11.1025Z" fill="#80BF88"/>
<path d="M15.8008 14.12C15.9218 14.2147 16.0758 14.3403 16.2409 14.4592L16.3003 14.501C16.6633 14.7455 17.1562 15.0891 17.6975 15.4746C18.2388 15.86 18.7251 16.2168 19.075 16.4767L19.207 16.578C19.4271 16.4194 19.6911 16.3203 19.9199 16.1838C18.7889 15.1926 17.4533 13.8227 16.4367 13.043C16.2605 13.4219 16.0475 13.7827 15.8008 14.12Z" fill="#80BF88"/>
<path d="M8.63681 16.3601C8.61677 16.3168 8.59399 16.2749 8.5686 16.2345C8.16753 16.0815 7.78335 15.8874 7.42219 15.6553L7.39138 15.6949C7.30996 15.794 7.21755 15.8998 7.11633 16.0121C6.93589 16.2323 6.68945 16.5165 6.40559 16.8226C6.12174 17.1288 5.81809 17.4283 5.60685 17.6287C5.50007 17.7445 5.37877 17.8459 5.24598 17.9305C5.24598 17.9305 5.26579 17.8886 5.3164 17.8292C5.13596 18.0098 4.96653 18.186 4.8125 18.3512C5.05454 18.8555 4.8125 19.5912 5.22618 19.9987C5.29905 20.0717 5.38689 20.1281 5.48363 20.1638C6.36379 18.9811 7.56301 17.4503 8.41677 16.501C8.47025 16.4285 8.54861 16.3783 8.63681 16.3601Z" fill="#80BF88"/>
<path d="M11.1461 16.6291C11.207 16.7132 11.2415 16.8137 11.2451 16.9176C11.3163 17.135 11.3314 17.3668 11.2891 17.5916C11.2561 17.8581 11.2187 18.1444 11.1813 18.444C11.1285 18.8426 11.0757 19.2148 11.0294 19.5452C10.9942 19.9659 10.9612 20.38 10.9238 20.7544C11.149 20.9658 11.4059 21.1404 11.6852 21.272C12.1076 21.4086 12.4839 21.2037 12.858 20.9306C12.7722 19.5188 12.6974 17.759 12.7546 16.5035L12.8206 16.6577C12.8008 16.585 12.7942 16.5432 12.8008 16.541C12.89 16.6988 12.9602 16.8666 13.0098 17.041C13.1242 17.3559 13.2695 17.7964 13.4147 18.2854C13.4543 18.4219 13.4917 18.5541 13.5269 18.6818C13.6809 19.2038 13.8152 19.7302 13.9164 20.2236C14.072 20.1538 14.241 20.1192 14.4115 20.1223C14.7987 20.1333 15.208 20.3646 15.5733 20.413C14.9528 18.9087 14.2904 17.0255 14.033 15.7393C13.158 16.268 12.1667 16.5736 11.1461 16.6291ZM11.9448 19.0232C11.9 18.8209 11.8837 18.6133 11.8964 18.4065C11.8728 18.2006 11.8765 17.9925 11.9074 17.7876C12.0325 18.1883 12.0455 18.6157 11.9448 19.0232Z" fill="#80BF88"/>
<path d="M10.545 16.655C10.552 16.6466 10.5601 16.6391 10.5692 16.633C9.90233 16.6123 9.2432 16.4836 8.61744 16.252C8.63285 16.2718 8.65045 16.2938 8.67025 16.3224C8.67672 16.3368 8.68407 16.3508 8.69226 16.3643C8.81988 16.3995 8.85949 16.5845 8.84408 16.7233C8.83663 16.7922 8.82487 16.8607 8.80888 16.9281C8.79599 17.124 8.75218 17.3165 8.67905 17.4986C8.58224 17.7519 8.45901 18.014 8.31818 18.2915C8.08488 18.7618 7.82632 19.2191 7.54364 19.6615C7.41382 19.8641 7.3082 20.0139 7.24219 20.102C7.32204 20.1111 7.40041 20.1304 7.47543 20.1592C8.08934 20.3993 8.4216 21.2913 9.07512 21.2142L9.13454 21.2032C9.51741 19.983 9.90028 18.2915 10.2832 17.1572C10.3321 16.9724 10.4215 16.8009 10.545 16.655Z" fill="#80BF88"/>
<path d="M15.9785 6.88534C16.0518 6.81927 16.1252 6.75539 16.1985 6.69372C16.2777 6.58186 16.376 6.48492 16.489 6.40739C16.6628 6.28405 16.8565 6.16291 17.0633 6.03737C17.4748 5.78628 17.8576 5.57924 18.1415 5.43828C18.3351 5.34357 18.4782 5.2797 18.553 5.25327L18.9446 5.022C18.5574 4.41411 19.0591 3.49125 18.6036 2.93181C18.5825 2.90673 18.5597 2.88318 18.5354 2.86133C17.389 3.7115 15.9103 4.67621 14.623 5.43828C15.1487 5.84557 15.6063 6.33403 15.9785 6.88534ZM16.2535 4.42292C16.5133 4.23484 16.7861 4.06556 17.0699 3.91634C16.853 4.15743 16.598 4.3613 16.3152 4.51983C16.0535 4.7114 15.7631 4.8601 15.4548 4.96033C15.7078 4.76218 15.9747 4.58257 16.2535 4.42292Z" fill="#80BF88"/>
<path d="M16.959 9.36551C17.0129 9.69979 17.0402 10.0378 17.0404 10.3765C17.0404 10.4403 17.0404 10.502 17.0404 10.5637H17.1438C17.3287 10.5637 17.5113 10.5813 17.6961 10.5945H17.8259C18.2044 10.5945 18.7259 10.6298 19.3024 10.6716C19.8415 10.7135 20.33 10.7619 20.6975 10.806C20.7899 10.3897 21.3026 10.1826 21.4544 9.77958C21.5214 9.57104 21.5057 9.34468 21.4104 9.14746C20.066 9.22235 18.2484 9.33247 17.1284 9.36771L16.959 9.36551Z" fill="#80BF88"/>
<path d="M15.4314 1.57272L13.2002 4.38094C13.1529 4.43999 13.0973 4.49192 13.0352 4.53511C13.5265 4.72381 13.9916 4.97474 14.4192 5.28177L14.45 5.24212C14.4805 5.16041 14.5269 5.08555 14.5864 5.02187C14.6855 4.90734 14.8065 4.77298 14.9341 4.62762C15.5942 3.83471 16.3468 3.03299 16.9761 2.36782C16.8471 2.32006 16.73 2.24492 16.6328 2.14757C16.3556 1.86785 16.2962 1.40092 15.9727 1.18727C15.8681 1.12318 15.7496 1.08539 15.6272 1.07715C15.6282 1.08519 15.6282 1.09333 15.6272 1.10137C15.6275 1.18901 15.6103 1.27582 15.5766 1.35674C15.543 1.43766 15.4936 1.51108 15.4314 1.57272Z" fill="#80BF88"/>
<path d="M16.8145 8.70683L16.9972 8.62533C17.1346 8.54903 17.2782 8.48421 17.4263 8.43151C17.6991 8.31918 18.0864 8.17381 18.5001 8.01964C18.9137 7.86546 19.3054 7.73111 19.5849 7.6386C19.7335 7.57889 19.8886 7.53676 20.0469 7.51306C20.0469 7.51306 19.9941 7.5527 19.8885 7.59895L20.4562 7.41174C20.4562 6.95362 20.5838 6.46686 20.3506 6.07701C20.2924 5.98174 20.218 5.89749 20.1306 5.82812C18.9313 6.31268 17.292 7.07475 16.2402 7.29501C16.4888 7.74023 16.6817 8.21441 16.8145 8.70683Z" fill="#80BF88"/>
<path d="M20.6801 10.9027L20.1895 10.8652C20.3523 10.8762 20.5151 10.8895 20.6801 10.9027Z" fill="#80BF88"/>
<path d="M8.74711 4.30133C8.76031 4.35419 8.76911 4.40264 8.77792 4.44669L8.81312 4.43568C8.78231 4.35639 8.75151 4.27049 8.7207 4.17578C8.7229 4.21763 8.7339 4.26388 8.74711 4.30133Z" fill="#80BF88"/>
<path d="M14.4376 5.29535C14.4399 5.27717 14.4444 5.25932 14.4509 5.24219L14.4199 5.28206L14.4376 5.29535Z" fill="black"/>
<path d="M16.0836 7.04796C16.0839 6.97709 16.0974 6.90689 16.1232 6.84093C16.1431 6.78849 16.1697 6.73888 16.2025 6.69336C16.1247 6.75503 16.0514 6.8189 15.9824 6.88498C16.0088 6.93784 16.0484 6.9929 16.0836 7.04796Z" fill="#80BF88"/>
<path d="M20.1226 14.1558V14.125L19.918 14.0391L20.1226 14.1558Z" fill="black"/>
<path d="M16.2497 14.4593C16.0759 14.3294 15.9218 14.2148 15.8096 14.1201L15.7832 14.1532C15.858 14.2016 16.0252 14.3095 16.2497 14.4593Z" fill="black"/>
<path d="M16.4303 18.7016L16.4787 18.7919L16.4919 18.7566C16.2323 18.3161 15.9374 17.8007 15.6426 17.3096C15.955 17.8492 16.2279 18.3426 16.4303 18.7016Z" fill="black"/>
<path d="M11.0176 16.6333C11.1116 16.6934 11.1877 16.7779 11.2376 16.8778C11.2376 16.891 11.2376 16.9042 11.253 16.9174C11.2495 16.8135 11.215 16.7131 11.154 16.6289L11.0176 16.6333Z" fill="#80BF88"/>
<path d="M8.69336 16.3643C8.76334 16.4955 8.80318 16.6407 8.80998 16.7893C8.81328 16.8355 8.81328 16.8819 8.80998 16.9281C8.82598 16.8606 8.83774 16.7922 8.84519 16.7233C8.86059 16.5823 8.82098 16.3995 8.69336 16.3643Z" fill="#80BF88"/>
<path d="M7.42695 15.6553H7.40495C7.36534 15.7169 7.27953 15.8315 7.1585 15.979C7.1475 15.9923 7.1343 16.0099 7.12109 16.0231C7.22231 15.9108 7.31473 15.8028 7.39614 15.7059L7.42695 15.6553Z" fill="black"/>
<path d="M4.81921 8.48828C4.74412 8.52561 4.66096 8.54377 4.57716 8.54114L4.39453 8.51471C4.52436 8.55876 4.65198 8.60061 4.7752 8.63805C4.78621 8.58739 4.80381 8.54995 4.81921 8.48828Z" fill="black"/>
<path d="M7.25641 5.20645C7.13056 5.10799 7.01615 4.99569 6.91535 4.87166L6.69531 4.63379C6.87575 4.87607 7.03857 5.09412 7.17059 5.26151L7.25641 5.20645Z" fill="black"/>
<path d="M9.1875 4.32389H9.2073C9.2073 4.26883 9.2073 4.21156 9.2073 4.1543C9.20672 4.21137 9.20008 4.26822 9.1875 4.32389Z" fill="black"/>
<path d="M10.75 4.1165H10.8336C10.8226 3.86761 10.8204 3.40949 10.8336 2.87207L10.761 4.0306C10.7522 4.05923 10.75 4.08786 10.75 4.1165Z" fill="black"/>
<path d="M12.7391 4.19618C12.7108 4.26612 12.6966 4.34097 12.6973 4.41643C12.8117 4.45387 12.9173 4.49352 13.0361 4.53757C13.0983 4.49437 13.1538 4.44245 13.2012 4.38339L15.4324 1.57517C15.5573 1.45264 15.6285 1.28549 15.6304 1.11044C15.6314 1.10239 15.6314 1.09426 15.6304 1.08621C15.2278 1.05317 14.7657 1.2536 14.363 1.12806C14.2668 1.09981 14.172 1.06673 14.0791 1.02895C13.9647 1.37474 13.7755 1.90996 13.5532 2.50023C13.3368 3.12896 13.0855 3.74515 12.8007 4.34595C12.9792 3.7056 13.1944 3.07609 13.4454 2.46059C13.6655 1.8637 13.8745 1.3351 14.0153 0.998112C13.9985 0.990624 13.9823 0.981783 13.9669 0.97168L13.9383 0.998112C13.5364 2.06854 13.1366 3.13456 12.7391 4.19618ZM13.9009 3.27552C14.0933 3.00052 14.3097 2.74327 14.5478 2.50684C14.4026 2.81136 14.2152 3.09386 13.9911 3.346C13.798 3.62289 13.5677 3.8719 13.3068 4.08605C13.4803 3.79869 13.6791 3.52744 13.9009 3.27552Z" fill="#80BF88"/>
<path d="M15.5239 3.98041C15.8958 3.57735 16.2369 3.21614 16.4877 2.95844C16.6149 2.81032 16.7572 2.67596 16.9124 2.55758C16.8056 2.72101 16.6833 2.8737 16.5471 3.01351C16.3117 3.28442 15.9794 3.65444 15.6097 4.0575C15.2401 4.46057 14.8968 4.82398 14.646 5.07947C14.5673 5.14446 14.5136 5.23476 14.4941 5.33496L14.6196 5.43188C15.9068 4.6698 17.3855 3.7051 18.5319 2.85492C18.4304 2.75543 18.3078 2.68014 18.1732 2.63467C17.8036 2.50692 17.3481 2.51133 16.9828 2.36816C16.3535 3.02892 15.5965 3.83505 14.9408 4.62796C15.1103 4.43413 15.3105 4.21388 15.5239 3.98041Z" fill="#80BF88"/>
<path d="M18.6171 5.24612C18.4803 5.3522 18.3328 5.44373 18.177 5.51923C17.9064 5.67782 17.5301 5.89366 17.1208 6.14255C16.7115 6.39143 16.3089 6.59847 16.1922 6.88039C16.1527 6.96579 16.1346 7.05953 16.1394 7.15351L16.2253 7.30328C17.277 7.08302 18.9164 6.32095 20.1156 5.83639C19.7503 5.54346 19.2024 5.42893 18.9428 5.03027L18.5577 5.24612C18.5929 5.24612 18.6149 5.2329 18.6171 5.24612ZM17.8448 6.56763C17.6449 6.67567 17.4308 6.75501 17.2088 6.80331C17.5764 6.53233 17.9995 6.34651 18.4477 6.25928C18.2615 6.38438 18.0585 6.48228 17.8448 6.55001V6.56763Z" fill="#80BF88"/>
<path d="M19.6161 7.71535C19.3432 7.82548 18.9559 7.97085 18.5401 8.12722C18.1242 8.2836 17.7325 8.41576 17.4531 8.50606C17.3057 8.56717 17.1512 8.60935 16.9932 8.6316L16.8105 8.7131C16.8706 8.93061 16.9191 9.15118 16.9558 9.37385H17.1208C18.2408 9.34522 20.0583 9.2351 21.4028 9.1536C21.3362 8.99586 21.2489 8.84772 21.1431 8.7131C20.9033 8.41135 20.6062 8.13383 20.5006 7.76381C20.469 7.64524 20.4527 7.52311 20.4522 7.40039L19.8845 7.58761L19.6161 7.71535Z" fill="#80BF88"/>
<path d="M19.2887 10.7923L17.8166 10.68C17.6118 10.6741 17.4079 10.6505 17.2071 10.6095C17.3676 10.5887 17.5298 10.5843 17.6912 10.5963C17.5063 10.583 17.3237 10.572 17.1389 10.5654H17.0355C17.0355 10.7482 17.0179 10.9266 16.998 11.1051C18.1533 11.5456 19.8586 12.1446 21.1898 12.6314C21.2364 12.5422 21.262 12.4435 21.2646 12.3429C21.28 11.8165 20.6463 11.4134 20.6793 10.9046C20.5143 10.8914 20.3515 10.8782 20.1886 10.8606L19.2887 10.7923Z" fill="#80BF88"/>
<path d="M17.4768 12.8249L16.8695 12.5144L16.6979 12.4307C16.6262 12.6391 16.5432 12.8435 16.4492 13.043C17.4658 13.8227 18.8015 15.1926 19.9325 16.1838C20.0748 16.1056 20.1952 15.9927 20.2823 15.8556C20.5552 15.3754 20.1833 14.7918 20.1305 14.2411C19.7894 14.0715 19.2723 13.8006 18.6958 13.4945C18.2227 13.2412 17.7959 13.0055 17.4768 12.8249Z" fill="#80BF88"/>
<path d="M17.6422 15.5693C17.1009 15.1838 16.6124 14.827 16.2648 14.5671C16.0161 14.3799 15.8379 14.2433 15.7609 14.1729C15.6794 14.2786 15.5958 14.3821 15.5078 14.4812C15.5869 14.6027 15.6783 14.7156 15.7807 14.8182C16.5376 15.6133 17.7258 16.9745 18.617 17.9458C18.8238 17.6022 18.7732 17.1022 19.0219 16.7652C19.0552 16.7219 19.0928 16.6821 19.1341 16.6463L18.7754 16.3644C18.4542 16.1419 18.0625 15.8688 17.6422 15.5693Z" fill="#80BF88"/>
<path d="M15.5304 17.3406C15.372 17.0675 15.2224 16.8054 15.0904 16.5631C14.9891 16.3462 14.858 16.1445 14.7009 15.964C14.6456 15.9107 14.5767 15.8737 14.5018 15.857C14.4269 15.8403 14.3489 15.8445 14.2762 15.8693C14.1728 15.9067 14.1442 15.975 14.1354 15.9662C14.1266 15.9574 14.1354 15.8891 14.2564 15.8274C14.3305 15.7942 14.4121 15.7811 14.4929 15.7896C14.5737 15.7981 14.6507 15.8279 14.7163 15.8759C14.6171 15.7425 14.509 15.616 14.3928 15.4971C14.2784 15.5764 14.1618 15.6557 14.043 15.7283C14.296 17.0146 14.9583 18.8978 15.5833 20.4021C15.6718 20.4185 15.7628 20.4166 15.8506 20.3966C15.9383 20.3765 16.0211 20.3386 16.0938 20.2854C16.4854 19.9858 16.3248 19.3559 16.459 18.8846L16.371 18.7436C16.1422 18.3868 15.8473 17.8912 15.5304 17.3406Z" fill="#80BF88"/>
<path d="M13.7468 19.5412C13.7987 19.7154 13.8305 19.895 13.8414 20.0764C13.7678 19.9113 13.7103 19.7394 13.6698 19.5632L13.3045 18.31C13.1659 17.8431 13.0405 17.418 12.9327 17.059C12.8821 16.8806 12.8425 16.7396 12.8204 16.6493L12.7544 16.4951C12.6972 17.7506 12.772 19.5104 12.8579 20.9222C13.1829 20.6467 13.5379 20.4088 13.9162 20.213C13.815 19.7218 13.6808 19.1954 13.5268 18.6712C13.6192 19.006 13.694 19.3055 13.7468 19.5412Z" fill="#80BF88"/>
<path d="M10.9594 19.9855C10.9373 20.2002 10.896 20.4125 10.8362 20.6198C10.8303 20.4038 10.845 20.1877 10.8802 19.9745C10.922 19.578 10.988 19.0318 11.0672 18.4327L11.186 17.5826C11.2337 17.3635 11.2238 17.1359 11.1574 16.9218C11.1085 16.807 11.0245 16.7107 10.9176 16.6465H10.7856C10.713 16.6465 10.6403 16.6465 10.5655 16.6465C10.5564 16.6526 10.5483 16.66 10.5413 16.6685C10.4176 16.815 10.3281 16.9873 10.2795 17.1729C9.8966 18.3072 9.51373 19.9987 9.13086 21.2189C9.58414 21.1242 9.8768 20.5714 10.3455 20.5405C10.5574 20.5412 10.7617 20.6196 10.9198 20.7608C10.9572 20.3864 10.9902 19.9723 11.0254 19.5516C11.0056 19.7014 10.9814 19.8534 10.9594 19.9855Z" fill="#80BF88"/>
<path d="M8.21728 18.2411C8.3515 17.9679 8.48353 17.7036 8.58255 17.4636C8.67314 17.2548 8.72246 17.0304 8.72778 16.8028C8.72874 16.6513 8.69801 16.5012 8.63756 16.3623C8.54936 16.3805 8.47099 16.4307 8.41752 16.5033C7.56376 17.4526 6.36014 18.9833 5.48438 20.1661C5.96846 20.3489 6.63299 20.0383 7.20289 20.1C7.2557 20.0031 7.35032 19.8401 7.47574 19.622C7.67378 19.2718 7.94443 18.7873 8.21728 18.2411Z" fill="#80BF88"/>
<path d="M5.31734 17.829C5.47137 17.6462 5.86745 17.2343 6.32293 16.7431C6.81802 16.2123 7.2317 15.7586 7.37473 15.6264C7.2317 15.5317 7.09307 15.4326 6.95664 15.3291C6.78234 15.4929 6.59945 15.6473 6.40874 15.7916C6.20113 15.9752 5.97031 16.1308 5.72222 16.2542C5.90022 16.0414 6.10769 15.8553 6.33833 15.7013C6.52316 15.5582 6.6926 15.4348 6.81802 15.3511C6.55146 15.4638 6.30129 15.612 6.07428 15.7916L3.4668 17.7475C3.92008 17.8268 4.43277 17.8466 4.71663 18.188C4.7594 18.2399 4.79562 18.2968 4.82445 18.3576C4.96748 18.1858 5.13691 18.0206 5.31734 17.829Z" fill="#80BF88"/>
<path d="M4.3244 15.1756C4.76448 14.8892 5.17595 14.6404 5.45321 14.4553C5.51082 14.4147 5.5552 14.3581 5.58083 14.2924C5.59938 14.2427 5.59938 14.1879 5.58083 14.1382C5.55222 14.0523 5.49282 14.0369 5.49722 14.0281C5.50162 14.0192 5.56983 14.0281 5.62264 14.1206C5.65154 14.1793 5.65857 14.2465 5.64245 14.31C5.63967 14.323 5.63523 14.3356 5.62924 14.3474C5.70054 14.3005 5.75943 14.2371 5.80087 14.1624C5.73045 14.0677 5.66005 13.9708 5.59183 13.8717C5.50245 13.8682 5.41313 13.8801 5.32778 13.9069C4.15056 14.2175 2.35283 14.8892 0.951172 15.409C1.39125 15.7306 2.1944 15.5919 2.47826 16.0874C2.5094 16.148 2.53234 16.2124 2.54647 16.279C2.93154 16.0434 3.36062 15.7857 3.7875 15.528C3.95473 15.4156 4.12636 15.2989 4.3244 15.1756Z" fill="#80BF88"/>
<path d="M2.99117 13.0121L3.74591 12.8095C3.97915 12.75 4.18599 12.7037 4.35543 12.6421C4.53678 12.5778 4.69986 12.4705 4.83072 12.3293C4.83072 12.3293 4.81751 12.3888 4.74929 12.4681C4.69746 12.5264 4.63742 12.5769 4.57106 12.6179L4.66568 12.5848C4.74855 12.5613 4.82421 12.5174 4.88573 12.4571C4.84612 12.3425 4.80871 12.2368 4.77571 12.1113C4.68176 12.0747 4.58162 12.0568 4.48084 12.0584C3.02564 12.007 1.57044 11.9644 0.115234 11.9307C0.317672 12.2743 0.775359 12.4262 0.955792 12.7808C1.0608 13.0072 1.07882 13.2644 1.0064 13.5033L2.10661 13.2588C2.36626 13.1751 2.67211 13.098 2.99117 13.0121Z" fill="#80BF88"/>
<path d="M0.605995 10.4313C0.790425 10.414 0.976066 10.414 1.1605 10.4313C1.50376 10.4445 1.97465 10.4622 2.49615 10.4732C3.01764 10.4842 3.49073 10.4864 3.8318 10.4886C4.01765 10.4791 4.20398 10.4865 4.3885 10.5106C4.20662 10.552 4.02052 10.572 3.834 10.5701C3.61396 10.5833 3.3235 10.5899 3.00884 10.5921C3.55014 10.6141 4.06944 10.6207 4.50512 10.5921H4.54033C4.54033 10.5194 4.54033 10.4467 4.54033 10.3719C4.54033 10.297 4.54033 10.1648 4.54033 10.0635L4.50952 10.0437C3.30589 9.32566 1.57637 8.80807 0.143908 8.41602C0.127025 8.53438 0.15125 8.65496 0.21253 8.75759C0.273809 8.86022 0.368428 8.93868 0.48057 8.97986L0.449768 8.78164C0.804034 8.93581 0.900847 9.41376 0.788626 9.78378C0.705935 10.0192 0.590368 10.2416 0.445363 10.4445L0.779829 10.4644C0.720415 10.4635 0.661601 10.4523 0.605995 10.4313ZM3.68657 10.1208C3.9359 10.1465 4.17994 10.2096 4.4105 10.308C4.16036 10.3208 3.9097 10.2963 3.66676 10.2353C3.41811 10.2098 3.17476 10.1467 2.94503 10.0481C3.19445 10.0351 3.4444 10.0596 3.68657 10.1208Z" fill="#80BF88"/>
<path d="M1.13287 7.17155C1.33523 7.23809 1.53113 7.32286 1.71817 7.42484L2.17366 7.64509C2.57853 7.81909 3.00101 7.9953 3.41249 8.15828C3.79268 8.29648 4.18444 8.40041 4.58311 8.46884C4.66447 8.47801 4.74676 8.46428 4.82075 8.42919C4.83199 8.42158 4.84233 8.41272 4.85156 8.40276C4.89557 8.27281 4.94177 8.14507 4.99458 8.01732C4.79215 7.91821 4.48409 7.75082 4.14082 7.55259C3.77391 7.36679 3.42606 7.14548 3.10223 6.89183C3.4849 7.04684 3.85308 7.23553 4.20244 7.45568L4.5589 7.67593C3.4419 6.87663 2.28202 6.13914 1.08446 5.4668C1.01405 5.88087 1.17247 6.40948 1.04485 6.83897C1.01489 6.93008 0.97427 7.01732 0.923828 7.09887L1.18788 7.2112C1.15267 7.19137 1.13067 7.17375 1.13287 7.17155Z" fill="#80BF88"/>
<path d="M3.2577 4.60766C3.4023 4.7143 3.53574 4.83532 3.65597 4.96887C3.89582 5.18912 4.23028 5.51069 4.61315 5.83666C4.99602 6.16264 5.35909 6.44236 5.62534 6.64059L5.71556 6.70886C5.79257 6.60314 5.86958 6.49963 5.9532 6.40051L5.94 6.37849C5.82338 6.23973 5.67815 6.05251 5.52412 5.83887C5.31172 5.57424 5.1356 5.2824 5.00043 4.97107C5.1288 5.0929 5.24118 5.23056 5.33489 5.38074C4.79921 4.54278 4.21127 3.73946 3.57456 2.97559C3.39059 3.00415 3.22202 3.09513 3.09707 3.23328C2.85283 3.53062 2.94304 3.99756 2.82422 4.34996C3.04426 4.55259 3.30611 4.77725 3.57456 5.01072C3.45314 4.8896 3.34675 4.75427 3.2577 4.60766Z" fill="#80BF88"/>
<path d="M6.25869 3.92532C6.80879 4.62132 7.26867 5.17636 7.25767 5.2116C7.35889 5.14259 7.46231 5.07651 7.56793 5.01337C7.56793 4.99795 7.55693 4.98474 7.55032 4.97152C7.13665 3.91431 6.38631 2.25801 5.88461 1.04883C5.80464 1.08477 5.72677 1.12522 5.65137 1.16997C5.2839 1.39022 5.16288 1.86817 4.96484 2.25801C5.09247 2.4254 5.23769 2.62143 5.39172 2.83287C5.54575 3.04431 5.88682 3.45619 6.25869 3.92532ZM6.82639 3.60596C6.96737 3.83131 7.08673 4.06951 7.18286 4.31737C7.31249 4.5495 7.41934 4.79365 7.50191 5.04641C7.16695 4.62596 6.93554 4.13251 6.82639 3.60596Z" fill="#80BF88"/>
<path d="M8.17702 1.44946C8.22802 1.60938 8.26339 1.77387 8.28264 1.94063C8.33545 2.24237 8.40807 2.66305 8.50268 3.12338C8.5819 3.52644 8.65891 3.88766 8.72273 4.17619C8.75353 4.2709 8.78433 4.3568 8.81514 4.43609C8.93176 4.39644 9.05058 4.3612 9.17381 4.32816C9.12021 4.08792 9.08272 3.84437 9.06158 3.59913C9.00954 3.35446 8.98446 3.10481 8.98677 2.85467C9.09568 3.08417 9.15991 3.33235 9.17601 3.58591C9.19581 3.73128 9.20461 3.86784 9.20901 3.98457C9.20901 2.84586 9.23322 1.38118 9.23102 0.222656C9.04839 0.396656 8.91416 0.700603 8.61931 1.1367C8.56692 1.20942 8.49912 1.26964 8.42075 1.31305C8.34239 1.35646 8.25539 1.38198 8.16602 1.38779L8.17922 1.47369C8.17262 1.46047 8.17482 1.44946 8.17702 1.44946Z" fill="#80BF88"/>
<path d="M10.9476 2.63642C10.9366 3.27736 10.9168 3.83239 10.8926 4.11652C11.0422 4.11652 11.1918 4.11652 11.3327 4.14075C11.5695 3.76901 11.7337 3.35572 11.8168 2.92275C12.0104 2.14967 12.2766 0.90744 12.4923 0C12.3559 0.00898078 12.223 0.0472967 12.1028 0.112331C11.7639 0.299546 11.3525 1.11888 11.139 1.12329C11.1005 1.12033 11.063 1.1094 11.0289 1.0912C10.9948 1.07301 10.9649 1.04793 10.941 1.01757V1.11007C10.9476 1.37878 10.9476 1.96025 10.9476 2.63642Z" fill="#80BF88"/>
<path d="M17.4516 8.50604C17.731 8.41573 18.1117 8.28578 18.5386 8.1272C18.9655 7.96862 19.3417 7.82546 19.6146 7.71533L19.8874 7.59859C19.9931 7.55234 20.0503 7.52151 20.0459 7.5127C19.8875 7.5364 19.7324 7.57853 19.5838 7.63824C19.3043 7.73075 18.9237 7.85849 18.499 8.01928C18.0743 8.18006 17.698 8.31882 17.4252 8.43115C17.2771 8.48385 17.1336 8.54867 16.9961 8.62497C17.1523 8.60448 17.3053 8.56452 17.4516 8.50604Z" fill="#263238"/>
<path d="M17.8229 10.6003H17.6931C17.5317 10.5883 17.3695 10.5928 17.209 10.6135C17.4098 10.6545 17.6137 10.6781 17.8185 10.684L19.2906 10.7963L20.1905 10.8624L20.6812 10.8999C20.6812 10.88 20.6812 10.8602 20.6812 10.8404C20.6812 10.8206 20.6812 10.825 20.6812 10.8162C20.3138 10.7721 19.8253 10.7237 19.2862 10.6818C18.7229 10.6356 18.2102 10.6091 17.8229 10.6003Z" fill="#263238"/>
<path d="M18.7461 13.3958C18.1442 13.05 17.5234 12.7383 16.8867 12.4619C17.0724 12.6006 17.2697 12.7229 17.4764 12.8275C17.7955 13.0081 18.2224 13.2438 18.6933 13.4883C19.2698 13.7966 19.7935 14.0654 20.1279 14.2349C20.1279 14.2063 20.1279 14.1777 20.1279 14.149L19.9233 14.0323C19.6042 13.8605 19.195 13.6337 18.7461 13.3958Z" fill="#263238"/>
<path d="M17.7075 15.475C17.1662 15.0896 16.6733 14.746 16.3102 14.5015L16.2508 14.4597C16.0308 14.3099 15.8591 14.202 15.7755 14.1535L15.8019 14.1205C16.0524 13.7836 16.2691 13.4228 16.4488 13.0434C16.5438 12.8419 16.6275 12.6353 16.6997 12.4245C16.8479 11.9963 16.9489 11.5532 17.0011 11.103C17.021 10.9246 17.0341 10.7462 17.0386 10.5634C17.0386 10.5017 17.0386 10.44 17.0386 10.3762C17.0418 9.81221 16.9678 9.25047 16.8185 8.70666C16.6808 8.21353 16.4827 7.73933 16.2288 7.29484L16.143 7.14506C16.1382 7.05108 16.1563 6.95735 16.1958 6.87195C16.3124 6.59003 16.7217 6.3896 17.1244 6.13411C17.527 5.87861 17.9099 5.66937 18.1806 5.51079C18.3363 5.43529 18.4838 5.34376 18.6206 5.23768C18.6206 5.23768 18.5964 5.23768 18.5612 5.2531C18.4864 5.27953 18.3412 5.3434 18.1498 5.43811C17.8659 5.57907 17.4896 5.78611 17.0716 6.0372C16.8647 6.16274 16.6711 6.28388 16.4973 6.40722C16.3843 6.48475 16.286 6.58169 16.2068 6.69355C16.1741 6.73907 16.1474 6.78868 16.1276 6.84112C16.1017 6.90708 16.0883 6.97728 16.088 7.04815C16.0528 6.99309 16.0198 6.93803 15.9824 6.88517C15.61 6.33134 15.1517 5.8406 14.6247 5.4315L14.4993 5.33459C14.5188 5.23439 14.5724 5.14408 14.6511 5.0791C14.902 4.82361 15.243 4.46239 15.6149 4.05713C15.9868 3.65186 16.3168 3.28404 16.5523 3.01313C16.6884 2.87333 16.8108 2.72064 16.9175 2.55721C16.7623 2.67558 16.62 2.80994 16.4929 2.95807C16.242 3.21576 15.9009 3.57698 15.5291 3.98004C15.309 4.21351 15.1154 4.43376 14.9394 4.6408C14.8095 4.78616 14.6907 4.92051 14.5917 5.03505C14.5321 5.09873 14.4858 5.17359 14.4553 5.2553C14.4488 5.27234 14.4444 5.29008 14.4421 5.30816L14.4245 5.29495C13.9969 4.98792 13.5317 4.73699 13.0404 4.54829C12.9282 4.50424 12.8204 4.46459 12.7015 4.42715C12.2592 4.28535 11.8023 4.19374 11.3395 4.15404C11.1921 4.14082 11.0424 4.13421 10.8994 4.12981C10.9236 3.84568 10.9434 3.29065 10.9544 2.64972C10.9676 1.97354 10.9544 1.39207 10.9544 1.12336C10.9563 1.08741 10.9563 1.05139 10.9544 1.01544L10.9324 0.991211C10.9038 1.12556 10.8708 1.81496 10.8554 2.64751C10.8554 2.729 10.8554 2.8083 10.8554 2.88538C10.8554 3.4228 10.8554 3.88092 10.8554 4.12981H10.7718C10.2521 4.13263 9.73468 4.19995 9.2315 4.33024H9.21169C9.22401 4.27233 9.22992 4.21324 9.2293 4.15404C9.2293 4.10558 9.2293 4.05272 9.2293 3.99105C9.2293 3.87432 9.2161 3.73776 9.1963 3.5924C9.1802 3.33883 9.11597 3.09066 9.00706 2.86116C9.00474 3.1113 9.02983 3.36094 9.08187 3.60561C9.10301 3.85085 9.1405 4.09441 9.19409 4.33465C9.07087 4.36768 8.95205 4.40292 8.83543 4.44257L8.80022 4.45358C8.80022 4.40953 8.78262 4.36108 8.76942 4.30822C8.75621 4.25536 8.75181 4.22452 8.74301 4.18267C8.6814 3.89414 8.60439 3.53293 8.52297 3.12986C8.43496 2.66954 8.36234 2.24885 8.30293 1.94711C8.28368 1.78035 8.24831 1.61586 8.19731 1.45594C8.19731 1.45594 8.19731 1.46696 8.19731 1.48017C8.19745 1.63998 8.20775 1.79962 8.22812 1.95812C8.26112 2.26427 8.32053 2.68936 8.41075 3.15189C8.50097 3.61442 8.60438 4.0329 8.6902 4.32804C8.7056 4.3831 8.71881 4.43155 8.73421 4.47781C8.33693 4.61658 7.95498 4.79594 7.5944 5.01302C7.48878 5.07616 7.38536 5.14224 7.28414 5.21125C7.28414 5.17601 6.84406 4.62097 6.28515 3.92498C5.91769 3.46245 5.60083 3.05498 5.41819 2.82371C5.32357 2.70698 5.26416 2.64311 5.25536 2.64972C5.32056 2.79627 5.40411 2.93393 5.50401 3.05938C5.67124 3.30386 5.91328 3.63204 6.19494 3.98665C6.38637 4.22672 6.569 4.44697 6.72963 4.63199L6.94967 4.86986C7.05048 4.99389 7.16488 5.10619 7.29074 5.20464L7.21373 5.2597C6.78061 5.56563 6.388 5.92531 6.04531 6.33013C5.94409 6.18036 5.80767 5.98434 5.65364 5.77069L5.36978 5.37864C5.27608 5.22846 5.1637 5.0908 5.03532 4.96897C5.17049 5.2803 5.34662 5.57214 5.55902 5.83676C5.71305 6.05702 5.85827 6.23763 5.97489 6.37639L5.9903 6.39401C5.90668 6.49312 5.82967 6.59664 5.75266 6.70236L5.66244 6.63408C5.39619 6.43585 5.03532 6.15613 4.65025 5.83016C4.26518 5.50418 3.93292 5.19143 3.69307 4.96237C3.57284 4.82881 3.4394 4.70779 3.2948 4.60115C3.38673 4.74748 3.49609 4.88208 3.62046 5.00201L3.63586 5.01963C4.22839 5.65505 4.89301 6.21904 5.61623 6.70016L5.71085 6.76183C5.44864 7.12784 5.22728 7.5215 5.05073 7.93577C4.9319 7.85869 4.77127 7.75957 4.58423 7.64724L4.22777 7.42699C3.87841 7.20684 3.51024 7.01815 3.12757 6.86314C3.45139 7.11679 3.79925 7.3381 4.16616 7.5239C4.50942 7.72213 4.82628 7.88952 5.01992 7.98863C4.96711 8.11638 4.9209 8.24413 4.87689 8.37407C4.86766 8.38403 4.85732 8.3929 4.84608 8.40051C4.7721 8.43559 4.6898 8.44932 4.60844 8.44015C4.20978 8.37173 3.81801 8.26779 3.43782 8.12959C3.34101 8.09582 3.24419 8.06058 3.14737 8.02387C2.7975 7.88732 2.48725 7.74635 2.19899 7.61641L1.74351 7.39615C1.55647 7.29417 1.36056 7.2094 1.1582 7.14286C1.1582 7.14286 1.17801 7.16269 1.21321 7.18471C1.29463 7.23978 1.46626 7.33889 1.70831 7.46884C2.15991 7.7179 2.62656 7.93858 3.10556 8.12959C3.5315 8.29783 3.97405 8.42039 4.4258 8.49521L4.60844 8.52164C4.69225 8.52427 4.7754 8.50612 4.85049 8.46878C4.83509 8.51944 4.81968 8.5679 4.80648 8.61855C4.67148 9.08413 4.59099 9.56382 4.56663 10.048C4.56663 10.1493 4.56663 10.2528 4.56663 10.3563C4.56663 10.4599 4.56663 10.5039 4.56663 10.5766C4.58527 11.0895 4.66581 11.5983 4.80648 12.0919C4.83948 12.2087 4.87689 12.3232 4.9165 12.4377C5.09235 12.937 5.33041 13.4121 5.62503 13.8518C5.69324 13.9509 5.76366 14.0478 5.83407 14.1425C6.1524 14.5635 6.52199 14.9431 6.93428 15.2724L6.84186 15.3318C6.71643 15.4155 6.547 15.5389 6.36217 15.6821C6.13153 15.836 5.92406 16.0222 5.74605 16.2349C5.99415 16.1115 6.22497 15.956 6.43258 15.7724C6.62329 15.628 6.80619 15.4736 6.98048 15.3098C7.11691 15.4133 7.25553 15.5125 7.39856 15.6072C7.25553 15.7393 6.84186 16.193 6.34676 16.7238C5.89128 17.215 5.4952 17.6269 5.34118 17.8097C5.29057 17.8692 5.26417 17.9044 5.27077 17.911C5.40356 17.8264 5.52485 17.725 5.63163 17.6093C5.85167 17.4088 6.12672 17.1269 6.43038 16.8031C6.73404 16.4794 6.96068 16.2129 7.14112 15.9926C7.15432 15.9794 7.16752 15.9618 7.17852 15.9486C7.29954 15.801 7.38536 15.6865 7.42496 15.6248H7.44697C7.80813 15.8569 8.19231 16.0511 8.59338 16.204C8.61877 16.2444 8.64155 16.2863 8.66159 16.3296C8.72204 16.4685 8.75277 16.6186 8.75181 16.7701C8.7465 16.9977 8.69718 17.2221 8.60658 17.4309C8.50756 17.6709 8.37554 17.9352 8.24132 18.2083C7.96847 18.7568 7.69781 19.2413 7.49978 19.5893C7.37435 19.8096 7.27974 19.9704 7.22693 20.0673H7.26653C7.33255 19.977 7.43817 19.8272 7.568 19.6268C7.85068 19.1844 8.10923 18.7271 8.34254 18.2568C8.47896 17.9793 8.60658 17.7172 8.7034 17.4639C8.77652 17.2818 8.82035 17.0893 8.83323 16.8934C8.83653 16.8472 8.83653 16.8009 8.83323 16.7547C8.82643 16.6061 8.78658 16.4608 8.7166 16.3296C8.70841 16.3161 8.70107 16.3021 8.6946 16.2877C8.6748 16.2591 8.65719 16.2371 8.64179 16.2173C9.26755 16.449 9.92668 16.5776 10.5936 16.5983C10.664 16.5983 10.7366 16.5983 10.8136 16.5983H10.9456C11.0539 16.6772 11.1323 16.7906 11.1679 16.9199C11.2343 17.1339 11.2441 17.3616 11.1965 17.5806L11.0776 18.4308C10.9984 19.0343 10.9324 19.5805 10.8906 19.9726C10.8554 20.1858 10.8407 20.4019 10.8466 20.6179C10.9065 20.4106 10.9477 20.1983 10.9698 19.9836C10.9918 19.8514 11.016 19.6995 11.0402 19.5431C11.0864 19.2215 11.1393 18.8493 11.1921 18.4418C11.2295 18.1423 11.2669 17.8559 11.2999 17.5894C11.3422 17.3647 11.3271 17.1328 11.2559 16.9155C11.2559 16.9022 11.2559 16.889 11.2405 16.8758C11.1905 16.7759 11.1145 16.6915 11.0204 16.6313H11.1481C12.1675 16.5708 13.1566 16.2607 14.0284 15.7283C14.1472 15.6556 14.2638 15.5763 14.3783 15.497C14.791 15.2048 15.167 14.8639 15.4983 14.4817C15.5863 14.3826 15.6699 14.279 15.7513 14.1733C15.8283 14.2438 16.0066 14.3804 16.2552 14.5676C16.6029 14.8275 17.0914 15.1843 17.6327 15.5697C18.0529 15.8693 18.4446 16.1424 18.7659 16.3648L19.0299 16.5454L19.1465 16.6225L19.2082 16.5785L19.0893 16.4794C18.7351 16.2173 18.2488 15.8627 17.7075 15.475ZM10.785 15.8671C9.70004 15.8671 8.63945 15.545 7.73734 14.9417C6.83524 14.3383 6.13213 13.4808 5.71694 12.4774C5.30175 11.4741 5.19311 10.3701 5.40477 9.30495C5.61644 8.23982 6.1389 7.26144 6.90607 6.49352C7.67325 5.72561 8.65069 5.20265 9.7148 4.99078C10.7789 4.77891 11.8819 4.88765 12.8842 5.30325C13.8866 5.71884 14.7433 6.42262 15.3461 7.32559C15.9489 8.22857 16.2706 9.29017 16.2706 10.3762C16.2706 11.8324 15.6927 13.2291 14.6639 14.2588C13.6352 15.2886 12.2399 15.8671 10.785 15.8671Z" fill="#263238"/>
<path d="M16.9466 17.1002C16.7808 16.8271 16.5993 16.5638 16.4031 16.3117C16.2374 16.0387 16.0552 15.7761 15.8574 15.5254C15.9577 15.8333 16.1103 16.1217 16.3085 16.3778C16.4766 16.6547 16.6927 16.8993 16.9466 17.1002Z" fill="#263238"/>
<path d="M15.6437 17.3096L15.6305 17.2832L15.1773 16.5101C15.0641 16.2852 14.9155 16.0799 14.7372 15.9022C14.726 15.8927 14.7142 15.8839 14.702 15.8758C14.6379 15.8275 14.5624 15.7969 14.4829 15.7868C14.4034 15.7768 14.3227 15.7877 14.2487 15.8185C14.1365 15.8802 14.1233 15.9595 14.1277 15.9573C14.1321 15.9551 14.1651 15.8978 14.2685 15.8604C14.3411 15.8356 14.4192 15.8314 14.4941 15.8481C14.569 15.8648 14.6379 15.9018 14.6932 15.9551C14.8503 16.1356 14.9814 16.3372 15.0826 16.5542C15.2213 16.7964 15.3709 17.0585 15.5227 17.3317C15.8396 17.8823 16.1344 18.3779 16.3523 18.7347L16.4403 18.8756C16.4403 18.8448 16.4601 18.814 16.4711 18.7831L16.4227 18.6928C16.2291 18.3426 15.9562 17.8493 15.6437 17.3096Z" fill="#263238"/>
<path d="M13.3047 18.3097L13.6699 19.5629C13.7104 19.7391 13.7679 19.911 13.8416 20.0761C13.8306 19.8946 13.7989 19.7151 13.747 19.5409C13.6941 19.3052 13.6193 19.0057 13.5269 18.6731C13.4917 18.5453 13.4543 18.4132 13.4147 18.2766C13.2695 17.7877 13.1242 17.3472 13.0098 17.0322C12.9602 16.8578 12.89 16.69 12.8008 16.5322C12.8008 16.5322 12.8008 16.5763 12.8206 16.649C12.8404 16.7216 12.8822 16.8692 12.9328 17.0586C13.0406 17.4176 13.166 17.8427 13.3047 18.3097Z" fill="#263238"/>
<path d="M11.9071 17.7881C11.8763 17.993 11.8726 18.2011 11.8961 18.407C11.8834 18.6138 11.8997 18.8214 11.9445 19.0237C12.0452 18.6162 12.0323 18.1888 11.9071 17.7881Z" fill="#263238"/>
<path d="M5.622 14.1205C5.56919 14.0214 5.49438 14.0236 5.49658 14.028C5.49878 14.0324 5.55159 14.0522 5.58019 14.1381C5.59875 14.1878 5.59875 14.2426 5.58019 14.2923C5.55457 14.358 5.51018 14.4146 5.45257 14.4553C5.17532 14.6403 4.76164 14.8958 4.32376 15.1755C4.13453 15.2988 3.95409 15.4155 3.78686 15.5279C3.56682 15.6732 3.36658 15.8098 3.20375 15.9199C3.04611 16.0172 2.89867 16.1301 2.76367 16.2569C2.93552 16.1848 3.09926 16.0948 3.25216 15.9882C3.54702 15.8098 3.9497 15.5477 4.38978 15.2724C4.82986 14.9971 5.22813 14.7328 5.50978 14.5169C5.56486 14.472 5.60733 14.4136 5.63301 14.3473C5.639 14.3355 5.64344 14.3229 5.64621 14.3099C5.66098 14.2459 5.65239 14.1787 5.622 14.1205Z" fill="#263238"/>
<path d="M4.74865 12.4688C4.81686 12.3895 4.83447 12.3323 4.83007 12.3301C4.69922 12.4712 4.53613 12.5786 4.35478 12.6428C4.18975 12.7045 3.97851 12.7508 3.74526 12.8102L2.99052 13.0129C2.67146 13.0988 2.37001 13.1825 2.11036 13.2595L1.63067 13.4005C1.43983 13.4464 1.25407 13.5113 1.07617 13.5943C1.27165 13.5741 1.46472 13.535 1.65268 13.4776C2.00474 13.3939 2.49103 13.2573 3.02573 13.123L3.77827 12.9137C3.98565 12.8598 4.18987 12.7944 4.38999 12.7177C4.45413 12.6896 4.51593 12.6565 4.57482 12.6186C4.63962 12.5773 4.69816 12.5268 4.74865 12.4688Z" fill="#263238"/>
<path d="M4.38211 10.5132C4.19759 10.489 4.01126 10.4816 3.82541 10.4912C3.48435 10.4912 3.01126 10.4912 2.48976 10.4757C1.96826 10.4603 1.49737 10.4471 1.15411 10.4339C0.969681 10.4166 0.784039 10.4166 0.599609 10.4339C0.655498 10.4574 0.715088 10.4708 0.775639 10.4735C0.868057 10.4867 0.995683 10.5022 1.14971 10.5176C1.49077 10.5506 1.96386 10.5815 2.48756 10.5925C2.66799 10.5925 2.83743 10.5925 3.00246 10.5925C3.31712 10.5925 3.60317 10.5925 3.82761 10.5704C4.01405 10.5731 4.20014 10.5539 4.38211 10.5132Z" fill="#263238"/>
<path d="M3.65728 10.2351C3.90022 10.2961 4.15088 10.3206 4.40102 10.3077C3.92894 10.1456 3.43454 10.0579 2.93555 10.0479C3.16528 10.1464 3.40863 10.2096 3.65728 10.2351Z" fill="#263238"/>
<path d="M7.5017 5.03908C7.41912 4.78633 7.31227 4.54217 7.18264 4.31005C7.08651 4.06218 6.96715 3.82398 6.82617 3.59863C6.93532 4.12518 7.16674 4.61863 7.5017 5.03908Z" fill="#263238"/>
<path d="M12.793 4.34295C13.0778 3.74215 13.329 3.12597 13.5455 2.49724C13.7655 1.90256 13.957 1.37175 14.0714 1.02595L14.0076 0.995117C13.8668 1.3321 13.6599 1.86071 13.4377 2.45759C13.1867 3.0731 12.9714 3.7026 12.793 4.34295Z" fill="#263238"/>
<path d="M13.991 3.346C14.215 3.09385 14.4024 2.81135 14.5477 2.50684C14.3096 2.74327 14.0931 3.00052 13.9008 3.27552C13.679 3.52743 13.4802 3.79869 13.3066 4.08605C13.5675 3.8719 13.7978 3.62289 13.991 3.346Z" fill="#263238"/>
<path d="M16.3154 4.51951C16.5983 4.36097 16.8532 4.15711 17.0702 3.91602C16.7864 4.06523 16.5136 4.23452 16.2538 4.42259C15.9751 4.58083 15.7082 4.75897 15.4551 4.9556C15.7631 4.85673 16.0535 4.70953 16.3154 4.51951Z" fill="#263238"/>
<path d="M17.7987 6.44482C17.5822 6.51996 17.382 6.63583 17.209 6.78621C17.431 6.73791 17.645 6.65858 17.8449 6.55054C18.0596 6.47731 18.2627 6.37346 18.4478 6.24219C18.2204 6.26736 18 6.33615 17.7987 6.44482Z" fill="#263238"/>
<path d="M10.7845 15.8675C13.8141 15.8675 16.2701 13.4092 16.2701 10.3766C16.2701 7.3441 13.8141 4.88574 10.7845 4.88574C7.75483 4.88574 5.29883 7.3441 5.29883 10.3766C5.29883 13.4092 7.75483 15.8675 10.7845 15.8675Z" fill="#FAFAFA"/>
<path d="M13.3679 21.8115C13.3818 21.8544 13.3907 21.8987 13.3943 21.9437C13.4075 22.045 13.4251 22.1639 13.4471 22.3269C13.4911 22.6771 13.5505 23.1551 13.6253 23.7409C13.7749 24.9325 13.9906 26.5778 14.2524 28.3927C14.5143 30.2075 14.7805 31.8462 14.983 33.0312C15.082 33.6126 15.1612 34.0884 15.2206 34.4342C15.247 34.5906 15.2668 34.7161 15.2822 34.8174C15.291 34.8617 15.2962 34.9067 15.2976 34.9518C15.2796 34.9103 15.267 34.8666 15.2602 34.8218C15.2382 34.7227 15.2118 34.6016 15.1766 34.443C15.1062 34.1148 15.0138 33.6369 14.9015 33.0444C14.6815 31.8638 14.4043 30.2252 14.1402 28.4191C13.8762 26.613 13.6737 24.9545 13.5439 23.7586C13.4801 23.1617 13.4317 22.6771 13.4031 22.3423C13.3899 22.1838 13.3789 22.056 13.3723 21.9547C13.3647 21.9073 13.3632 21.8592 13.3679 21.8115Z" fill="#263238"/>
<path d="M10.1889 20.6641C10.2197 20.6641 10.4816 25.144 10.7743 30.6745C11.0669 36.2051 11.2803 40.6872 11.2473 40.6894C11.2143 40.6916 10.9525 36.2095 10.6598 30.6789C10.3672 25.1484 10.1559 20.6641 10.1889 20.6641Z" fill="#263238"/>
<path d="M8.43677 21.6328C8.43815 21.6781 8.43296 21.7234 8.42137 21.7672C8.40376 21.8663 8.37956 21.9874 8.35096 22.1438C8.28275 22.4852 8.19033 22.9543 8.07591 23.5248C7.82946 24.7031 7.495 26.3044 7.12313 28.073C6.75126 29.8416 6.39259 31.4385 6.13735 32.6124C6.00972 33.1806 5.9041 33.6476 5.82709 33.9868C5.78968 34.1365 5.76108 34.2599 5.73687 34.3568C5.72883 34.4015 5.71553 34.4451 5.69727 34.4867C5.69761 34.4414 5.70352 34.3963 5.71487 34.3524C5.73247 34.2555 5.75447 34.1321 5.78308 33.9758C5.85129 33.6366 5.94591 33.1674 6.05813 32.5948C6.30678 31.4186 6.64123 29.8174 7.0109 28.0466C7.38057 26.2757 7.74144 24.6811 7.99669 23.5072C8.12651 22.9389 8.23214 22.472 8.30915 22.1328C8.34436 21.983 8.37516 21.8597 8.39937 21.7628C8.40884 21.7186 8.42133 21.6752 8.43677 21.6328Z" fill="#263238"/>
<path d="M11.2082 7.29239L11.9805 8.85619C11.9994 8.89455 12.0273 8.92778 12.0618 8.95309C12.0963 8.97839 12.1363 8.99501 12.1786 9.00155L13.9037 9.25044C13.9503 9.25899 13.9938 9.27996 14.0295 9.31113C14.0652 9.3423 14.0919 9.38252 14.1068 9.42758C14.1217 9.47264 14.1241 9.52087 14.1139 9.56721C14.1037 9.61355 14.0813 9.65629 14.0489 9.69094L12.8013 10.9067C12.7707 10.9366 12.7479 10.9735 12.7349 11.0142C12.7219 11.0549 12.719 11.0981 12.7265 11.1402L13.0191 12.8604C13.0277 12.9088 13.0226 12.9586 13.0043 13.0042C12.986 13.0498 12.9552 13.0894 12.9155 13.1183C12.8758 13.1473 12.8288 13.1644 12.7798 13.1679C12.7308 13.1714 12.6818 13.161 12.6384 13.1379L11.0982 12.3252C11.06 12.3056 11.0178 12.2955 10.9749 12.2955C10.9321 12.2955 10.8899 12.3056 10.8517 12.3252L9.31142 13.1379C9.26806 13.161 9.21907 13.1714 9.17008 13.1679C9.12109 13.1644 9.07406 13.1473 9.03436 13.1183C8.99466 13.0894 8.9639 13.0498 8.94558 13.0042C8.92726 12.9586 8.92211 12.9088 8.93075 12.8604L9.2256 11.1402C9.23263 11.098 9.22929 11.0546 9.21587 11.014C9.20246 10.9733 9.17936 10.9365 9.14859 10.9067L7.90096 9.69094C7.86856 9.65614 7.84614 9.61323 7.83607 9.56674C7.826 9.52025 7.82866 9.4719 7.84375 9.42679C7.85885 9.38168 7.88583 9.34149 7.92184 9.31045C7.95786 9.27941 8.00158 9.25868 8.04838 9.25044L9.77131 9.00155C9.81355 8.99501 9.8536 8.97839 9.88807 8.95309C9.92254 8.92778 9.95042 8.89455 9.96934 8.85619L10.7417 7.29239C10.7636 7.24936 10.797 7.21323 10.8382 7.188C10.8793 7.16277 10.9267 7.14941 10.9749 7.14941C11.0232 7.14941 11.0705 7.16277 11.1117 7.188C11.1528 7.21323 11.1862 7.24936 11.2082 7.29239Z" fill="#80BF88"/>
<path d="M13.0596 6.80566L13.152 7.10521C13.1724 7.17079 13.2085 7.23037 13.2572 7.27874C13.3059 7.32712 13.3657 7.36282 13.4314 7.38272L13.7307 7.47743L13.4292 7.57875C13.3683 7.59967 13.3129 7.63412 13.2672 7.67951C13.2215 7.7249 13.1866 7.78006 13.1652 7.84085L13.0596 8.147L12.9429 7.82764C12.9207 7.76806 12.8854 7.71422 12.8398 7.67001C12.7941 7.62581 12.7391 7.59238 12.6789 7.57214L12.3906 7.47743L12.6745 7.38052C12.733 7.36121 12.7866 7.32904 12.8311 7.28635C12.8756 7.24367 12.9101 7.19157 12.9319 7.13384L13.0596 6.80566Z" fill="#80BF88"/>
<g opacity="0.3">
<path d="M12.7391 4.19618C12.7108 4.26612 12.6966 4.34097 12.6973 4.41643C12.8117 4.45387 12.9173 4.49352 13.0361 4.53757C13.0983 4.49437 13.1538 4.44245 13.2012 4.38339L15.4324 1.57517C15.5573 1.45264 15.6285 1.28549 15.6304 1.11044C15.6314 1.10239 15.6314 1.09426 15.6304 1.08621C15.2278 1.05317 14.7657 1.2536 14.363 1.12806C14.2668 1.09981 14.172 1.06673 14.0791 1.02895C13.9647 1.37474 13.7755 1.90996 13.5532 2.50023C13.3368 3.12896 13.0855 3.74515 12.8007 4.34595C12.9792 3.7056 13.1944 3.07609 13.4454 2.46059C13.6655 1.8637 13.8745 1.3351 14.0153 0.998112C13.9985 0.990624 13.9823 0.981783 13.9669 0.97168L13.9383 0.998112C13.5364 2.06854 13.1366 3.13456 12.7391 4.19618ZM13.9009 3.27552C14.0933 3.00052 14.3097 2.74327 14.5478 2.50684C14.4026 2.81136 14.2152 3.09386 13.9911 3.346C13.798 3.62289 13.5677 3.8719 13.3068 4.08605C13.4803 3.79869 13.6791 3.52744 13.9009 3.27552Z" fill="black"/>
<path d="M15.5259 3.98041C15.8978 3.57735 16.2388 3.21614 16.4897 2.95844C16.6168 2.81032 16.7592 2.67596 16.9143 2.55758C16.8076 2.72101 16.6853 2.8737 16.5491 3.01351C16.3136 3.28442 15.9814 3.65444 15.6117 4.0575C15.242 4.46057 14.8988 4.82398 14.6479 5.07947C14.5693 5.14446 14.5156 5.23476 14.4961 5.33496L14.6215 5.43188C15.9088 4.6698 17.3874 3.7051 18.5338 2.85492C18.4324 2.75543 18.3098 2.68014 18.1752 2.63467C17.8055 2.50692 17.35 2.51133 16.9848 2.36816C16.3554 3.02892 15.5985 3.83505 14.9428 4.62796C15.1122 4.43413 15.3124 4.21388 15.5259 3.98041Z" fill="black"/>
<path d="M18.6151 5.24612C18.4783 5.3522 18.3308 5.44373 18.1751 5.51923C17.9044 5.67782 17.5281 5.89366 17.1189 6.14255C16.7096 6.39143 16.3069 6.59847 16.1903 6.88039C16.1508 6.96579 16.1327 7.05953 16.1375 7.15351L16.2233 7.30328C17.2751 7.08302 18.9144 6.32095 20.1136 5.83639C19.7484 5.54346 19.2004 5.42893 18.9408 5.03027L18.5557 5.24612C18.5909 5.24612 18.6129 5.2329 18.6151 5.24612ZM17.8428 6.56763C17.6429 6.67567 17.4289 6.75501 17.2069 6.80331C17.5745 6.53233 17.9976 6.34651 18.4457 6.25928C18.2596 6.38438 18.0566 6.48228 17.8428 6.55001V6.56763Z" fill="black"/>
<path d="M19.6141 7.71535C19.3413 7.82548 18.954 7.97085 18.5381 8.12722C18.1222 8.2836 17.7306 8.41576 17.4511 8.50606C17.3037 8.56717 17.1492 8.60935 16.9912 8.6316L16.8086 8.7131C16.8687 8.93061 16.9172 9.15118 16.9538 9.37385H17.1188C18.2389 9.34522 20.0564 9.2351 21.4008 9.1536C21.3343 8.99586 21.2469 8.84772 21.1412 8.7131C20.9013 8.41135 20.6043 8.13383 20.4987 7.76381C20.467 7.64524 20.4508 7.52311 20.4503 7.40039L19.8826 7.58761L19.6141 7.71535Z" fill="black"/>
<path d="M19.2887 10.7923L17.8166 10.68C17.6118 10.6741 17.4079 10.6505 17.2071 10.6095C17.3676 10.5887 17.5298 10.5843 17.6912 10.5963C17.5063 10.583 17.3237 10.572 17.1389 10.5654H17.0355C17.0355 10.7482 17.0179 10.9266 16.998 11.1051C18.1533 11.5456 19.8586 12.1446 21.1898 12.6314C21.2364 12.5422 21.262 12.4435 21.2646 12.3429C21.28 11.8165 20.6463 11.4134 20.6793 10.9046C20.5143 10.8914 20.3515 10.8782 20.1886 10.8606L19.2887 10.7923Z" fill="black"/>
<path d="M17.4768 12.8249L16.8695 12.5144L16.6979 12.4307C16.6262 12.6391 16.5432 12.8435 16.4492 13.043C17.4658 13.8227 18.8015 15.1926 19.9325 16.1838C20.0748 16.1056 20.1952 15.9927 20.2823 15.8556C20.5552 15.3754 20.1833 14.7918 20.1305 14.2411C19.7894 14.0715 19.2723 13.8006 18.6958 13.4945C18.2227 13.2412 17.7959 13.0055 17.4768 12.8249Z" fill="black"/>
<path d="M17.6403 15.5693C17.099 15.1838 16.6105 14.827 16.2628 14.5671C16.0142 14.3799 15.8359 14.2433 15.7589 14.1729C15.6775 14.2786 15.5939 14.3821 15.5059 14.4812C15.585 14.6027 15.6764 14.7156 15.7787 14.8182C16.5356 15.6133 17.7239 16.9745 18.615 17.9458C18.8219 17.6022 18.7713 17.1022 19.0199 16.7652C19.0533 16.7219 19.0908 16.6821 19.1321 16.6463L18.7735 16.3644C18.4522 16.1419 18.0605 15.8688 17.6403 15.5693Z" fill="black"/>
<path d="M15.5304 17.3406C15.372 17.0675 15.2224 16.8054 15.0904 16.5631C14.9891 16.3462 14.858 16.1445 14.7009 15.964C14.6456 15.9107 14.5767 15.8737 14.5018 15.857C14.4269 15.8403 14.3489 15.8445 14.2762 15.8693C14.1728 15.9067 14.1442 15.975 14.1354 15.9662C14.1266 15.9574 14.1354 15.8891 14.2564 15.8274C14.3305 15.7942 14.4121 15.7811 14.4929 15.7896C14.5737 15.7981 14.6507 15.8279 14.7163 15.8759C14.6171 15.7425 14.509 15.616 14.3928 15.4971C14.2784 15.5764 14.1618 15.6557 14.043 15.7283C14.296 17.0146 14.9583 18.8978 15.5833 20.4021C15.6718 20.4185 15.7628 20.4166 15.8506 20.3966C15.9383 20.3765 16.0211 20.3386 16.0938 20.2854C16.4854 19.9858 16.3248 19.3559 16.459 18.8846L16.371 18.7436C16.1422 18.3868 15.8473 17.8912 15.5304 17.3406Z" fill="black"/>
<path d="M13.7468 19.5412C13.7987 19.7154 13.8305 19.895 13.8414 20.0764C13.7678 19.9113 13.7103 19.7394 13.6698 19.5632L13.3045 18.31C13.1659 17.8431 13.0405 17.418 12.9327 17.059C12.8821 16.8806 12.8425 16.7396 12.8204 16.6493L12.7544 16.4951C12.6972 17.7506 12.772 19.5104 12.8579 20.9222C13.1829 20.6467 13.5379 20.4088 13.9162 20.213C13.815 19.7218 13.6808 19.1954 13.5268 18.6712C13.6192 19.006 13.694 19.3055 13.7468 19.5412Z" fill="black"/>
<path d="M10.9594 19.9855C10.9373 20.2002 10.896 20.4125 10.8362 20.6198C10.8303 20.4038 10.845 20.1877 10.8802 19.9745C10.922 19.578 10.988 19.0318 11.0672 18.4327L11.186 17.5826C11.2337 17.3635 11.2238 17.1359 11.1574 16.9218C11.1085 16.807 11.0245 16.7107 10.9176 16.6465H10.7856C10.713 16.6465 10.6403 16.6465 10.5655 16.6465C10.5564 16.6526 10.5483 16.66 10.5413 16.6685C10.4176 16.815 10.3281 16.9873 10.2795 17.1729C9.8966 18.3072 9.51373 19.9987 9.13086 21.2189C9.58414 21.1242 9.8768 20.5714 10.3455 20.5405C10.5574 20.5412 10.7617 20.6196 10.9198 20.7608C10.9572 20.3864 10.9902 19.9723 11.0254 19.5516C11.0056 19.7014 10.9814 19.8534 10.9594 19.9855Z" fill="black"/>
<path d="M8.21728 18.2411C8.3515 17.9679 8.48353 17.7036 8.58255 17.4636C8.67314 17.2548 8.72246 17.0304 8.72778 16.8028C8.72874 16.6513 8.69801 16.5012 8.63756 16.3623C8.54936 16.3805 8.47099 16.4307 8.41752 16.5033C7.56376 17.4526 6.36014 18.9833 5.48438 20.1661C5.96846 20.3489 6.63299 20.0383 7.20289 20.1C7.2557 20.0031 7.35032 19.8401 7.47574 19.622C7.67378 19.2718 7.94443 18.7873 8.21728 18.2411Z" fill="black"/>
<path d="M5.31734 17.829C5.47137 17.6462 5.86745 17.2343 6.32293 16.7431C6.81802 16.2123 7.2317 15.7586 7.37473 15.6264C7.2317 15.5317 7.09307 15.4326 6.95664 15.3291C6.78234 15.4929 6.59945 15.6473 6.40874 15.7916C6.20113 15.9752 5.97031 16.1308 5.72222 16.2542C5.90022 16.0414 6.10769 15.8553 6.33833 15.7013C6.52316 15.5582 6.6926 15.4348 6.81802 15.3511C6.55146 15.4638 6.30129 15.612 6.07428 15.7916L3.4668 17.7475C3.92008 17.8268 4.43277 17.8466 4.71663 18.188C4.7594 18.2399 4.79562 18.2968 4.82445 18.3576C4.96748 18.1858 5.13691 18.0206 5.31734 17.829Z" fill="black"/>
<path d="M4.3244 15.1756C4.76448 14.8892 5.17595 14.6404 5.45321 14.4553C5.51082 14.4147 5.5552 14.3581 5.58083 14.2924C5.59938 14.2427 5.59938 14.1879 5.58083 14.1382C5.55222 14.0523 5.49282 14.0369 5.49722 14.0281C5.50162 14.0192 5.56983 14.0281 5.62264 14.1206C5.65154 14.1793 5.65857 14.2465 5.64245 14.31C5.63967 14.323 5.63523 14.3356 5.62924 14.3474C5.70054 14.3005 5.75943 14.2371 5.80087 14.1624C5.73045 14.0677 5.66005 13.9708 5.59183 13.8717C5.50245 13.8682 5.41313 13.8801 5.32778 13.9069C4.15056 14.2175 2.35283 14.8892 0.951172 15.409C1.39125 15.7306 2.1944 15.5919 2.47826 16.0874C2.5094 16.148 2.53234 16.2124 2.54647 16.279C2.93154 16.0434 3.36062 15.7857 3.7875 15.528C3.95473 15.4156 4.12636 15.2989 4.3244 15.1756Z" fill="black"/>
<path d="M2.99117 13.0121L3.74591 12.8095C3.97915 12.75 4.18599 12.7037 4.35543 12.6421C4.53678 12.5778 4.69986 12.4705 4.83072 12.3293C4.83072 12.3293 4.81751 12.3888 4.74929 12.4681C4.69746 12.5264 4.63742 12.5769 4.57106 12.6179L4.66568 12.5848C4.74855 12.5613 4.82421 12.5174 4.88573 12.4571C4.84612 12.3425 4.80871 12.2368 4.77571 12.1113C4.68176 12.0747 4.58162 12.0568 4.48084 12.0584C3.02564 12.007 1.57044 11.9644 0.115234 11.9307C0.317672 12.2743 0.775359 12.4262 0.955792 12.7808C1.0608 13.0072 1.07882 13.2644 1.0064 13.5033L2.10661 13.2588C2.36626 13.1751 2.67211 13.098 2.99117 13.0121Z" fill="black"/>
<path d="M0.605995 10.4313C0.790425 10.414 0.976066 10.414 1.1605 10.4313C1.50376 10.4445 1.97465 10.4622 2.49615 10.4732C3.01764 10.4842 3.49073 10.4864 3.8318 10.4886C4.01765 10.4791 4.20398 10.4865 4.3885 10.5106C4.20662 10.552 4.02052 10.572 3.834 10.5701C3.61396 10.5833 3.3235 10.5899 3.00884 10.5921C3.55014 10.6141 4.06944 10.6207 4.50512 10.5921H4.54033C4.54033 10.5194 4.54033 10.4467 4.54033 10.3719C4.54033 10.297 4.54033 10.1648 4.54033 10.0635L4.50952 10.0437C3.30589 9.32566 1.57637 8.80807 0.143908 8.41602C0.127025 8.53438 0.15125 8.65496 0.21253 8.75759C0.273809 8.86022 0.368428 8.93868 0.48057 8.97986L0.449768 8.78164C0.804034 8.93581 0.900847 9.41376 0.788626 9.78378C0.705935 10.0192 0.590368 10.2416 0.445363 10.4445L0.779829 10.4644C0.720415 10.4635 0.661601 10.4523 0.605995 10.4313ZM3.68657 10.1208C3.9359 10.1465 4.17994 10.2096 4.4105 10.308C4.16036 10.3208 3.9097 10.2963 3.66676 10.2353C3.41811 10.2098 3.17476 10.1467 2.94503 10.0481C3.19445 10.0351 3.4444 10.0596 3.68657 10.1208Z" fill="black"/>
<path d="M1.13092 7.17155C1.33327 7.23809 1.52917 7.32286 1.71622 7.42484L2.17171 7.64509C2.57658 7.81909 2.99906 7.9953 3.41054 8.15828C3.79073 8.29648 4.18249 8.40041 4.58116 8.46884C4.66251 8.47801 4.74481 8.46428 4.8188 8.42919C4.83004 8.42158 4.84038 8.41272 4.84961 8.40276C4.89361 8.27281 4.93982 8.14507 4.99263 8.01732C4.79019 7.91821 4.48214 7.75082 4.13887 7.55259C3.77196 7.36679 3.4241 7.14548 3.10028 6.89183C3.48295 7.04684 3.85113 7.23553 4.20048 7.45568L4.55695 7.67593C3.43995 6.87663 2.28007 6.13914 1.08251 5.4668C1.01209 5.88087 1.17052 6.40948 1.04289 6.83897C1.01294 6.93008 0.972317 7.01732 0.921875 7.09887L1.18593 7.2112C1.15072 7.19137 1.12872 7.17375 1.13092 7.17155Z" fill="black"/>
<path d="M3.2577 4.60766C3.4023 4.7143 3.53574 4.83532 3.65597 4.96887C3.89582 5.18912 4.23028 5.51069 4.61315 5.83666C4.99602 6.16264 5.35909 6.44236 5.62534 6.64059L5.71556 6.70886C5.79257 6.60314 5.86958 6.49963 5.9532 6.40051L5.94 6.37849C5.82338 6.23973 5.67815 6.05251 5.52412 5.83887C5.31172 5.57424 5.1356 5.2824 5.00043 4.97107C5.1288 5.0929 5.24118 5.23056 5.33489 5.38074C4.79921 4.54278 4.21127 3.73946 3.57456 2.97559C3.39059 3.00415 3.22202 3.09513 3.09707 3.23328C2.85283 3.53062 2.94304 3.99756 2.82422 4.34996C3.04426 4.55259 3.30611 4.77725 3.57456 5.01072C3.45314 4.8896 3.34675 4.75427 3.2577 4.60766Z" fill="black"/>
<path d="M6.25869 3.92532C6.80879 4.62132 7.26867 5.17636 7.25767 5.2116C7.35889 5.14259 7.46231 5.07651 7.56793 5.01337C7.56793 4.99795 7.55693 4.98474 7.55032 4.97152C7.13665 3.91431 6.38631 2.25801 5.88461 1.04883C5.80464 1.08477 5.72677 1.12522 5.65137 1.16997C5.2839 1.39022 5.16288 1.86817 4.96484 2.25801C5.09247 2.4254 5.23769 2.62143 5.39172 2.83287C5.54575 3.04431 5.88682 3.45619 6.25869 3.92532ZM6.82639 3.60596C6.96737 3.83131 7.08673 4.06951 7.18286 4.31737C7.31249 4.5495 7.41934 4.79365 7.50191 5.04641C7.16695 4.62596 6.93554 4.13251 6.82639 3.60596Z" fill="black"/>
<path d="M8.17702 1.44946C8.22802 1.60938 8.26339 1.77387 8.28264 1.94063C8.33545 2.24237 8.40807 2.66305 8.50268 3.12338C8.5819 3.52644 8.65891 3.88766 8.72273 4.17619C8.75353 4.2709 8.78433 4.3568 8.81514 4.43609C8.93176 4.39644 9.05058 4.3612 9.17381 4.32816C9.12021 4.08792 9.08272 3.84437 9.06158 3.59913C9.00954 3.35446 8.98446 3.10481 8.98677 2.85467C9.09568 3.08417 9.15991 3.33235 9.17601 3.58591C9.19581 3.73128 9.20461 3.86784 9.20901 3.98457C9.20901 2.84586 9.23322 1.38118 9.23102 0.222656C9.04839 0.396656 8.91416 0.700603 8.61931 1.1367C8.56692 1.20942 8.49912 1.26964 8.42075 1.31305C8.34239 1.35646 8.25539 1.38198 8.16602 1.38779L8.17922 1.47369C8.17262 1.46047 8.17482 1.44946 8.17702 1.44946Z" fill="black"/>
<path d="M10.9476 2.63642C10.9366 3.27736 10.9168 3.83239 10.8926 4.11652C11.0422 4.11652 11.1918 4.11652 11.3327 4.14075C11.5695 3.76901 11.7337 3.35572 11.8168 2.92275C12.0104 2.14967 12.2766 0.90744 12.4923 0C12.3559 0.00898078 12.223 0.0472967 12.1028 0.112331C11.7639 0.299546 11.3525 1.11888 11.139 1.12329C11.1005 1.12033 11.063 1.1094 11.0289 1.0912C10.9948 1.07301 10.9649 1.04793 10.941 1.01757V1.11007C10.9476 1.37878 10.9476 1.96025 10.9476 2.63642Z" fill="black"/>
</g>
</svg>
