<svg width="26" height="26" viewBox="0 0 26 26" fill="none" xmlns="http://www.w3.org/2000/svg">
<path d="M7.00002 10.0037H4C2.34314 10.0037 1 11.3466 1 13.0031V22.0007C1 23.6572 2.34314 25.0001 4 25.0001H4.00518L13.0052 24.9846C14.66 24.9817 16 23.6396 16 21.9851V18.9969" stroke="#3C5A40" stroke-linecap="round" stroke-linejoin="round"/>
<path d="M8.5 16.0017H4" stroke="#3C5A40" stroke-linecap="round" stroke-linejoin="round"/>
<path d="M10.7505 18.2468C10.2505 18.7467 9.75048 19.2466 9.25049 19.7466C8.75049 20.2465 7.50049 20.9963 5.50049 21.9962" stroke="#3C5A40" stroke-linecap="round" stroke-linejoin="round"/>
<path d="M5.50055 16.002C6.00055 17.7508 6.75055 18.9998 7.75055 19.7489C8.75055 20.498 10.0005 21.247 11.5005 21.9961" stroke="#3C5A40" stroke-linecap="round" stroke-linejoin="round"/>
<path fill-rule="evenodd" clip-rule="evenodd" d="M25 12.9978V3.99946C25 2.3429 23.6568 1 22 1H13C11.3431 1 10 2.3429 10 3.99946V12.9978C10 14.6544 11.3431 15.9973 13 15.9973H22C23.6568 15.9973 25 14.6544 25 12.9978Z" stroke="#3C5A40" stroke-linecap="round" stroke-linejoin="round"/>
<path d="M16.125 10.105L16.255 9.405C16.5783 9.405 16.86 9.39667 17.1 9.38C17.34 9.36 17.5383 9.33167 17.695 9.295C17.855 9.255 17.9733 9.20333 18.05 9.14C18.13 9.07667 18.17 9 18.17 8.91C18.17 8.79 18.15 8.64667 18.11 8.48C18.07 8.31 18.0183 8.13833 17.955 7.965L18.61 7.775C18.6533 7.88833 18.695 8.01333 18.735 8.15C18.775 8.28333 18.8067 8.41833 18.83 8.555C18.8567 8.68833 18.87 8.81333 18.87 8.93C18.87 9.13667 18.825 9.315 18.735 9.465C18.645 9.61167 18.495 9.73333 18.285 9.83C18.0783 9.92333 17.7983 9.99167 17.445 10.035C17.0917 10.0817 16.6517 10.105 16.125 10.105ZM16.12 10.105C15.76 10.105 15.455 10.0767 15.205 10.02C14.9583 9.96667 14.7567 9.89 14.6 9.79C14.4467 9.68667 14.335 9.56667 14.265 9.43C14.195 9.29333 14.16 9.14333 14.16 8.98C14.16 8.87333 14.1683 8.76667 14.185 8.66C14.205 8.55 14.2283 8.44333 14.255 8.34C14.285 8.23667 14.3117 8.14333 14.335 8.06L14.96 8.205C14.9467 8.265 14.9317 8.33 14.915 8.4C14.8983 8.47 14.885 8.53833 14.875 8.605C14.865 8.66833 14.86 8.72667 14.86 8.78C14.86 8.90333 14.9033 9.01333 14.99 9.11C15.08 9.20333 15.2267 9.27667 15.43 9.33C15.6333 9.38 15.9067 9.405 16.25 9.405L16.35 9.945L16.12 10.105ZM16.505 11.275C16.4083 11.275 16.325 11.2417 16.255 11.175C16.1883 11.1083 16.155 11.0267 16.155 10.93C16.155 10.8333 16.1883 10.7483 16.255 10.675C16.325 10.605 16.4083 10.57 16.505 10.57C16.6017 10.57 16.6833 10.605 16.75 10.675C16.82 10.7483 16.855 10.8333 16.855 10.93C16.855 11.0267 16.82 11.1083 16.75 11.175C16.6833 11.2417 16.6017 11.275 16.505 11.275ZM19.5121 10L19.4171 6.69H20.1171L20.2121 10H19.5121ZM19.2371 6.37L19.1521 6.02C19.2687 6 19.3554 5.98333 19.4121 5.97C19.4721 5.95667 19.5354 5.94167 19.6021 5.925L19.5521 6.05C19.4654 6.02 19.3821 5.96167 19.3021 5.875C19.2254 5.785 19.1871 5.68333 19.1871 5.57C19.1871 5.45 19.2137 5.35333 19.2671 5.28C19.3204 5.20667 19.3887 5.15333 19.4721 5.12C19.5554 5.08667 19.6421 5.07 19.7321 5.07C19.7821 5.07 19.8287 5.07333 19.8721 5.08C19.9187 5.08667 19.9604 5.09667 19.9971 5.11L19.9571 5.47C19.9237 5.46333 19.8904 5.45667 19.8571 5.45C19.8237 5.44333 19.7871 5.44 19.7471 5.44C19.7037 5.44 19.6637 5.455 19.6271 5.485C19.5937 5.51167 19.5771 5.545 19.5771 5.585C19.5771 5.64167 19.5971 5.69167 19.6371 5.735C19.6771 5.77833 19.7237 5.81333 19.7771 5.84C19.8337 5.86333 19.8804 5.87667 19.9171 5.88L19.6421 5.91C19.7321 5.88667 19.8171 5.86333 19.8971 5.84C19.9771 5.81333 20.0521 5.78667 20.1221 5.76L20.2221 6.095C20.1387 6.125 20.0404 6.15833 19.9271 6.195C19.8171 6.22833 19.7021 6.26 19.5821 6.29C19.4654 6.32 19.3504 6.34667 19.2371 6.37Z" fill="#3C5A40"/>
</svg>
