<svg width="126" height="89" viewBox="0 0 126 89" fill="none" xmlns="http://www.w3.org/2000/svg">
<path d="M75.2145 26.6598C73.8994 27.7184 72.8833 27.4126 66.5184 25.8856C58.42 23.9367 57.4121 22.5026 57.4121 21.6413C57.4121 20.6911 57.6306 19.9324 58.0902 19.3344C59.6608 17.2964 63.0494 17.399 65.1436 17.4764C67.4995 17.5635 72.976 17.0061 74.8022 20.8556C75.6267 22.5955 76.6573 25.4985 75.2145 26.6598Z" fill="#3A5A40"/>
<path d="M92.6723 48.1675C92.8993 48.3195 93.0911 48.513 93.2361 48.7365C93.3812 48.9601 93.4764 49.2089 93.5161 49.468C93.5558 49.727 93.5391 49.991 93.4671 50.2438C93.395 50.4967 93.2691 50.7332 93.0969 50.939C87.1463 57.9779 79.1221 62.9963 65.8337 62.9963C47.4027 62.9963 32.5664 49.7545 32.5664 31.6704V31.4982C32.5664 13.8476 47.0338 0 66.5758 0C78.8006 0 86.9814 4.46877 92.6599 11.0548C92.8316 11.257 92.9584 11.4895 93.0328 11.7385C93.1072 11.9874 93.1278 12.2479 93.0932 12.5044C93.0586 12.761 92.9696 13.0084 92.8315 13.2321C92.6933 13.4558 92.5088 13.6513 92.2889 13.8069L87.1586 17.4377C86.9216 17.6048 86.649 17.7219 86.3593 17.7811C86.0697 17.8403 85.7699 17.8401 85.4803 17.7806C85.1908 17.7211 84.9183 17.6036 84.6815 17.4362C84.4447 17.2688 84.2491 17.0554 84.1081 16.8106C81.7336 12.0148 77.8834 9.02464 72.5655 7.77632C72.124 7.66835 71.733 7.42583 71.454 7.08679C71.175 6.74775 71.0237 6.33135 71.0238 5.90288V4.52103C70.9393 2.58566 70.2508 1.93344 68.1072 1.93344H62.2885C60.2274 1.93344 59.4565 2.59146 59.5554 4.52103V5.86611C59.5554 6.30945 59.3932 6.73933 59.096 7.08386C58.7989 7.42839 58.3848 7.66669 57.923 7.7589C49.3815 9.51622 44.8345 14.5172 44.8345 21.6258C44.8345 26.2959 46.8256 29.9731 49.2001 31.8988C50.5781 33.0362 52.1923 33.8929 53.9408 34.4148C57.857 35.8508 60.0666 36.0676 64.3538 36.5727C70.4013 37.1533 73.388 38.0842 73.388 40.9563C73.388 44.0529 70.4796 45.5567 64.663 45.5567C60.2974 45.5567 57.4716 44.1207 56.241 41.1731C55.2393 39.0887 54.1799 38.6765 51.9538 39.4467L46.7473 41.175C44.6861 41.8924 43.9991 43.1859 44.6861 45.0555C46.8916 50.5113 51.2509 53.933 57.8982 55.2684C58.3638 55.3576 58.7822 55.5952 59.0827 55.9408C59.3832 56.2864 59.5473 56.7189 59.5472 57.1651V58.4947C59.4688 60.5055 60.248 61.1558 62.3009 61.1558H68.1237C70.2673 61.1558 70.9558 60.5055 70.8321 58.4947V56.9928C70.8317 56.558 70.9873 56.1358 71.2737 55.7942C71.5602 55.4526 71.9608 55.2114 72.411 55.1097C78.8006 53.6756 83.0755 50.4803 84.8625 45.967C84.9704 45.6865 85.1459 45.4332 85.3753 45.2269C85.6046 45.0206 85.8817 44.8668 86.1847 44.7776C86.4878 44.6885 86.8088 44.6663 87.1225 44.7128C87.4363 44.7593 87.7343 44.8733 87.9934 45.0458L92.6723 48.1675Z" fill="#353535"/>
<path d="M16.7248 84.419C16.1573 84.8258 15.5475 85.1779 14.9048 85.4699C14.2254 85.7759 13.5081 86.0015 12.7694 86.1415C11.9255 86.3012 11.0662 86.3784 10.2053 86.3718C8.80753 86.3855 7.42175 86.1286 6.13448 85.617C4.92592 85.1376 3.83032 84.4384 2.9108 83.5597C1.99079 82.674 1.26524 81.6271 0.775425 80.4786C0.252483 79.2652 -0.0108571 77.967 0.000427965 76.6581C-0.0119319 75.3587 0.243536 74.0693 0.752755 72.8609C1.23926 71.6992 1.96763 70.6402 2.89524 69.746C3.82285 68.8517 4.93108 68.1401 6.15509 67.6528C7.47832 67.1275 8.9027 66.8639 10.3393 66.8787C11.1842 66.8766 12.0273 66.9538 12.856 67.109C13.5695 67.2409 14.266 67.444 14.9336 67.7148C15.5498 67.9664 16.1363 68.2777 16.6836 68.6438C17.2193 69.0034 17.727 69.3985 18.2027 69.8263L15.9354 72.2765C15.1732 71.6023 14.3143 71.0317 13.3836 70.5811C12.4312 70.138 11.3793 69.9163 10.3166 69.9346C9.40291 69.9262 8.49827 70.1052 7.66593 70.4591C6.87002 70.7988 6.15397 71.2837 5.55941 71.8855C4.95932 72.4995 4.49235 73.2173 4.18461 73.9989C3.85368 74.834 3.68813 75.7188 3.69611 76.6098C3.68908 77.505 3.85458 78.3941 4.18461 79.2341C4.49322 80.02 4.95998 80.7427 5.55941 81.363C6.1504 81.9721 6.86709 82.462 7.66593 82.8029C8.49827 83.1569 9.40291 83.3359 10.3166 83.3274C11.4098 83.3563 12.4935 83.1295 13.4702 82.6675C14.4185 82.1805 15.2951 81.5793 16.0776 80.8792L18.3449 83.0313C17.8485 83.5369 17.3064 84.0011 16.7248 84.419Z" fill="#353535"/>
<path d="M41.2463 86.0485H37.5197L35.4853 81.5004H26.0039L23.9428 86.0485H20.3213L29.1493 67.0819H32.4183L41.2463 86.0485ZM30.7343 71.03L27.2881 78.5664H34.195L30.7343 71.03Z" fill="#353535"/>
<path d="M65.3785 78.1077V86.0428H61.8745V67.2097H65.3785V75.044H75.0083V67.2097H78.5123V86.0486H75.0083V78.1135L65.3785 78.1077Z" fill="#353535"/>
<path d="M102.869 86.0485H99.1427L97.1083 81.5004H87.6269L85.5657 86.0485H81.9463L90.7743 67.0819H94.0413L102.869 86.0485ZM92.3573 71.03L88.911 78.5664H95.818L92.3573 71.03Z" fill="#353535"/>
<path d="M112.213 86.0486H108.66V70.2772H102.297V67.2097H118.58V70.2772H112.213V86.0486Z" fill="#353535"/>
<path d="M126 67.2097V86.0486H122.496V67.2097H126Z" fill="#353535"/>
<path d="M49.9035 88.9999C49.4295 88.8761 49.2852 88.5587 49.2852 88.129C49.2852 87.6181 49.2852 87.1052 49.2481 86.5962C49.2295 86.2749 49.1347 86.182 48.7905 86.1124C48.1433 85.9808 47.4817 85.9014 46.8468 85.7253C46.1883 85.5422 45.5443 85.3159 44.9196 85.0479C44.3549 84.8079 44.258 84.5621 44.4167 84.0028C44.6043 83.339 44.8124 82.6829 45.0144 82.0229C45.0476 81.9242 45.0883 81.8279 45.136 81.7346C45.2906 81.4288 45.4596 81.3591 45.7936 81.4888C46.0924 81.603 46.3789 81.7442 46.6737 81.8758C47.7366 82.3069 48.8685 82.5685 50.0231 82.65C50.7132 82.7057 51.4073 82.5972 52.041 82.3345C53.422 81.7675 53.6652 80.2908 52.5336 79.3521C51.9297 78.8509 51.1876 78.578 50.458 78.2973C49.3285 77.858 48.1763 77.4651 47.1457 76.8265C46.1151 76.1878 45.303 75.4543 44.8537 74.3859C44.3852 73.2335 44.3787 71.9604 44.8352 70.8038C45.2917 69.6471 46.1802 68.6855 47.3353 68.0979C47.8649 67.8447 48.41 67.6211 48.9678 67.4283C49.1287 67.3872 49.2697 67.2953 49.3669 67.168C49.4641 67.0408 49.5117 66.886 49.5016 66.7296C49.5016 66.1955 49.514 65.6594 49.5366 65.1252C49.5552 64.653 49.6933 64.4885 50.1859 64.4691C50.8234 64.4433 51.4618 64.4485 52.0987 64.4846C52.5831 64.5117 52.7273 64.6665 52.7603 65.1155C52.7933 65.5645 52.7933 65.9613 52.8036 66.3851C52.8201 66.9561 52.9273 67.0896 53.525 67.1786C54.4514 67.2998 55.3588 67.5259 56.2272 67.8521L56.4622 67.947C56.9919 68.1715 57.1279 68.4366 56.9651 68.9611C56.759 69.6191 56.5529 70.2791 56.3468 70.9333C56.1406 71.5139 55.9345 71.5893 55.3574 71.3203C54.1735 70.7836 52.8709 70.5183 51.5566 70.5462C51.0358 70.5289 50.518 70.6277 50.0458 70.8345C48.9822 71.3629 48.8338 72.5048 49.7407 73.2499C50.3116 73.7202 51.0001 73.9989 51.6844 74.2853C52.785 74.7479 53.929 75.1466 54.9555 75.7252C57.0743 76.9174 58.1276 78.727 57.8411 81.0572C57.5938 83.1203 56.3117 84.5408 54.3227 85.406C54.0094 85.5414 53.6693 85.6285 53.3395 85.735C52.8386 85.8937 52.6531 86.122 52.6511 86.6175C52.649 87.113 52.6408 87.6239 52.6511 88.1271C52.6511 88.5548 52.5212 88.878 52.0327 88.998L49.9035 88.9999Z" fill="#3A5A40"/>
</svg>
