<svg width="25" height="25" viewBox="0 0 25 25" fill="none" xmlns="http://www.w3.org/2000/svg">
<path d="M16.8755 20.0308L17.2762 21.0375L15.246 21.7556C15.0018 21.8419 14.7454 21.8937 14.4839 21.9096C14.3929 21.9153 14.3018 21.9158 14.208 21.9136C13.7342 21.8946 13.2638 21.7883 12.8207 21.5999C12.6537 21.5324 12.4902 21.4555 12.3311 21.3697C12.1624 21.2824 11.9882 21.1794 11.8217 21.074C11.5989 20.9311 11.384 20.7756 11.1783 20.6084C10.9528 20.4287 10.7296 20.236 10.5113 20.0277C10.3514 19.8678 10.1888 19.7051 10.0236 19.5398C7.68751 17.0348 5.95821 13.0597 5.66043 9.50876C5.63917 9.26349 5.61792 9.01821 5.6204 8.78651C5.6074 8.44769 5.6127 8.1119 5.63375 7.78169C5.6548 7.45147 5.67375 7.25662 5.70714 7.01003C5.74052 6.76343 5.77305 6.59232 5.81806 6.39808C5.86307 6.20383 5.91074 6.01226 5.96653 5.83389C6.11144 5.33988 6.33356 4.87506 6.6249 4.45616C6.69362 4.38746 6.74103 4.29743 6.80443 4.2234C7.05698 3.91381 7.37061 3.66009 7.72729 3.47681C7.83457 3.4224 7.94572 3.37541 8.05998 3.33617L9.97903 2.65455L10.3466 3.57714C10.4518 3.62127 10.5623 3.67072 10.6729 3.72539C11.1203 3.9542 11.5439 4.22952 11.9364 4.54656C12.1858 4.74509 12.4329 4.96179 12.6726 5.19134C12.9866 5.49669 13.2843 5.81835 13.5644 6.15484C15.6001 8.70502 16.9178 11.7355 17.3723 14.9126C17.4403 15.3777 17.4741 15.829 17.4922 16.2747C17.5078 16.6425 17.5049 17.0101 17.4836 17.3759C17.4561 17.8892 17.385 18.3971 17.2712 18.8943C17.1775 19.2869 17.0449 19.6676 16.8755 20.0308Z" fill="#80BF88"/>
<path opacity="0.15" d="M5.99883 11.6329L10.1315 10.1671L10.5769 11.7582L6.44424 13.2239C6.27072 12.699 6.11793 12.1695 5.99883 11.6329Z" fill="white"/>
<path opacity="0.05" d="M15.2524 21.7611C15.0082 21.8474 14.7518 21.8993 14.4903 21.9151C14.3993 21.9208 14.3082 21.9213 14.2144 21.9191C13.7405 21.9001 13.2702 21.7938 12.8271 21.6054L12.6483 21.5283L16.8868 20.026L17.2875 21.0327L15.2524 21.7611Z" fill="#3C5A40"/>
<path opacity="0.15" d="M15.1259 15.9685L15.619 16.6909L9.44301 18.8666C9.26347 18.6463 9.08625 18.413 8.91678 18.1772L15.1259 15.9685Z" fill="white"/>
<path opacity="0.15" d="M7.7327 16.2649L13.0845 14.3694L13.5765 15.9459L8.60204 17.72C8.28915 17.2492 7.99141 16.7579 7.7327 16.2649Z" fill="white"/>
<path opacity="0.15" d="M9.96732 2.65944L10.3349 3.58203C10.44 3.62615 10.5505 3.67561 10.6612 3.73028C11.1086 3.95909 11.5322 4.23441 11.9247 4.55145C12.1741 4.74998 12.4212 4.96668 12.6609 5.19623C12.9749 5.50158 13.2726 5.82323 13.5527 6.15973C13.8232 6.48634 14.0838 6.83357 14.3317 7.19351L5.74087 10.2371C5.70652 9.98891 5.6907 9.75419 5.6589 9.50346C5.62709 9.25274 5.61637 9.01292 5.61886 8.78122C5.60586 8.4424 5.61116 8.10662 5.63221 7.7764C5.65326 7.44619 5.67222 7.25134 5.70561 7.00474C5.739 6.75814 5.77152 6.58704 5.81653 6.39279C5.86154 6.19854 5.90921 6.00697 5.965 5.8286C6.10991 5.33459 6.33203 4.86977 6.62337 4.45087C6.6921 4.38217 6.7395 4.29214 6.8029 4.2181C7.05545 3.90852 7.36907 3.65479 7.72575 3.47151C7.83303 3.4171 7.94418 3.37012 8.05843 3.33088L9.96732 2.65944Z" fill="white"/>
<path opacity="0.15" d="M6.61486 4.46038C6.68359 4.39168 6.73099 4.30165 6.79438 4.22762C7.04693 3.91803 7.36056 3.6643 7.71724 3.48103C7.82452 3.42662 7.93567 3.37963 8.04993 3.34038L9.96899 2.65877L10.3365 3.58136L10.3472 3.93315L6.07765 5.44514C6.21697 5.09539 6.39725 4.76493 6.61486 4.46038Z" fill="white"/>
<path d="M19.6458 16.6111C19.6636 16.2522 19.6681 15.8852 19.6518 15.5124C19.6357 15.0569 19.5965 14.6014 19.5345 14.1478C19.0773 10.9717 17.7589 7.9425 15.7241 5.39258C15.4453 5.05491 15.1475 4.73318 14.8322 4.42909C14.5988 4.20084 14.354 3.98474 14.0986 3.78175C13.7052 3.46541 13.2807 3.19095 12.8325 2.96313C12.4014 2.73923 11.9395 2.58675 11.4655 2.51191C10.8548 2.41321 10.2374 2.5081 9.70099 2.78311C9.3436 2.96749 9.02918 3.22202 8.77559 3.53224C8.7094 3.5984 8.65667 3.68309 8.59606 3.765C8.30661 4.18506 8.08462 4.64958 7.93768 5.14273C7.88189 5.3211 7.83156 5.51002 7.79176 5.70439C7.75196 5.89876 7.70985 6.10608 7.68096 6.32154C7.65206 6.53699 7.62218 6.82274 7.6049 7.09054C7.58762 7.35835 7.58109 7.754 7.59155 8.09536C7.59706 8.33506 7.61033 8.57232 7.63414 8.81505C7.93203 12.3712 9.66132 16.3463 11.9947 18.8486C12.16 19.014 12.3225 19.1766 12.4825 19.3366C12.6957 19.5499 12.9239 19.7375 13.1494 19.9173C13.3571 20.0823 13.5727 20.2368 13.7954 20.3802C13.9588 20.4893 14.128 20.5889 14.3022 20.6785C14.4622 20.7652 14.6266 20.843 14.7945 20.9114C15.2368 21.099 15.7063 21.2044 16.1792 21.2224C16.273 21.2246 16.3641 21.2241 16.4578 21.2211C16.85 21.1946 17.2292 21.0892 17.573 20.9113C18.1232 20.6034 18.5705 20.1452 18.8653 19.5875C19.1131 19.1376 19.2964 18.653 19.4103 18.1472C19.5339 17.6451 19.6127 17.1312 19.6458 16.6111Z" fill="#F0F0F0"/>
<path opacity="0.15" d="M7.74103 9.54374C7.70668 9.29556 7.69086 9.06083 7.66148 8.80235C7.6321 8.54387 7.61642 8.31435 7.6189 8.08266C7.6059 7.74383 7.61121 7.40805 7.63226 7.07784C7.65331 6.74762 7.67226 6.55276 7.70831 6.30883C7.74437 6.0649 7.77423 5.89114 7.81912 5.69168C7.864 5.49222 7.90925 5.30841 7.96504 5.13004C8.11198 4.63689 8.33395 4.17236 8.62341 3.75231C8.69468 3.68106 8.74208 3.59103 8.80293 3.51954C9.05653 3.20932 9.37094 2.95479 9.72834 2.77041C10.2648 2.4954 10.8821 2.40051 11.4928 2.49921C11.9668 2.57405 12.4288 2.72653 12.8598 2.95043C13.308 3.17825 13.7325 3.45272 14.126 3.76906C14.3488 3.94613 14.564 4.13605 14.7797 4.3416L7.74103 9.54374Z" fill="white"/>
<path opacity="0.15" d="M8.09489 4.73008C8.22507 4.38413 8.39675 4.05684 8.60629 3.75513C8.67756 3.68388 8.72496 3.59385 8.78582 3.52236C9.03941 3.21214 9.35382 2.95762 9.71121 2.77324C10.1468 2.55388 10.6369 2.45323 11.1341 2.48102L8.09489 4.73008Z" fill="white"/>
<path opacity="0.15" d="M8.42937 12.518C8.2437 11.9929 8.09697 11.4626 7.98918 10.9271L15.6296 5.28334L15.7309 5.38466C16.029 5.74318 16.3096 6.11563 16.5716 6.50061L8.42937 12.518Z" fill="white"/>
<path opacity="0.15" d="M10.5834 17.0053C10.2785 16.5425 9.99144 16.0619 9.72207 15.5582L18.1332 9.34657C18.3693 9.87289 18.5796 10.4142 18.764 10.9602L10.5834 17.0053Z" fill="white"/>
<path opacity="0.15" d="M11.437 18.1643C11.2549 17.9413 11.0776 17.708 10.908 17.4671L18.9478 11.5254C19.0407 11.827 19.1232 12.1284 19.2004 12.4297L11.437 18.1643Z" fill="white"/>
<path opacity="0.3" d="M19.5962 17.1462C19.5812 17.2891 19.5636 17.4293 19.5407 17.5642L19.5177 17.699L19.4923 17.8365L19.4313 18.1319C19.3175 18.6377 19.1341 19.1223 18.8864 19.5722C18.5915 20.1299 18.1443 20.5881 17.594 20.896C17.2503 21.0739 16.871 21.1793 16.4788 21.2058C16.3852 21.2088 16.294 21.2093 16.2002 21.2071C15.7274 21.1891 15.2579 21.0836 14.8156 20.8961L14.6341 20.8163L19.5962 17.1462Z" fill="#80BF88"/>
<path d="M18.1134 15.3696C18.2874 12.1786 16.5821 8.11556 14.2592 6.07178C14.166 5.97846 14.0599 5.89786 13.9673 5.83059C11.5005 3.87198 9.34167 4.99587 9.16036 8.32212C8.97905 11.6484 10.8402 15.9234 13.3119 17.8717L13.6192 18.0976C15.9532 19.7198 17.9287 18.55 18.1134 15.3696Z" fill="#80BF88"/>
<path d="M17.9158 15.2111L17.927 14.9015C17.9777 11.8977 16.3801 8.21733 14.2354 6.33135L14.1794 6.27536L13.9512 6.08775C13.5422 5.75524 13.0814 5.49418 12.5898 5.31637C12.1371 5.13798 11.6448 5.11266 11.1906 5.24441C10.7363 5.37615 10.3458 5.65748 10.0807 6.04407C9.69522 6.6195 9.46113 7.28725 9.39889 7.98892C9.37898 8.14209 9.3644 8.30059 9.3629 8.46201C9.36141 8.62342 9.35167 8.7664 9.35272 8.92527C9.35405 9.25995 9.3748 9.59518 9.41486 9.92926C9.70723 12.3686 10.7194 14.6984 12.3211 16.6192C12.5347 16.8583 12.7617 17.0853 13.0007 17.2991C13.1047 17.4031 13.2239 17.4918 13.3379 17.5804C13.4519 17.669 13.5314 17.7281 13.6266 17.7929L13.706 17.8468C14.2392 18.2357 14.8691 18.4617 15.515 18.4958C16.4552 18.5048 17.2127 17.9236 17.6173 16.8368C17.7961 16.316 17.8967 15.7683 17.9158 15.2111Z" fill="#80BF88"/>
<path opacity="0.13" d="M17.9158 15.2111L17.927 14.9015C17.9777 11.8977 16.3801 8.21733 14.2354 6.33135L14.1794 6.27536L13.9512 6.08775C13.5422 5.75524 13.0814 5.49418 12.5898 5.31637C12.1371 5.13798 11.6448 5.11266 11.1906 5.24441C10.7363 5.37615 10.3458 5.65748 10.0807 6.04407C9.69522 6.6195 9.46113 7.28725 9.39889 7.98892C9.37898 8.14209 9.3644 8.30059 9.3629 8.46201C9.36141 8.62342 9.35167 8.7664 9.35272 8.92527C9.35405 9.25995 9.3748 9.59518 9.41486 9.92926C9.70723 12.3686 10.7194 14.6984 12.3211 16.6192C12.5347 16.8583 12.7617 17.0853 13.0007 17.2991C13.1047 17.4031 13.2239 17.4918 13.3379 17.5804C13.4519 17.669 13.5314 17.7281 13.6266 17.7929L13.706 17.8468C14.2392 18.2357 14.8691 18.4617 15.515 18.4958C16.4552 18.5048 17.2127 17.9236 17.6173 16.8368C17.7961 16.316 17.8967 15.7683 17.9158 15.2111Z" fill="#3C5A40"/>
<path d="M17.169 15.1732L17.1579 15.4828C17.1354 16.046 17.0297 16.599 16.8441 17.1238C16.6597 17.6856 16.2976 18.1653 15.8106 18.4927C15.7072 18.5044 15.603 18.5106 15.4985 18.5115C14.8526 18.4773 14.2227 18.2513 13.6895 17.8624L13.6101 17.8085C13.5149 17.7438 13.4169 17.6712 13.3214 17.596C13.2259 17.5209 13.0958 17.4111 12.9842 17.3147C12.7452 17.101 12.5182 16.8739 12.3046 16.6348C10.7029 14.7141 9.69074 12.3842 9.39837 9.9449C9.35831 9.61082 9.33756 9.2756 9.33623 8.94091C9.33518 8.78205 9.33946 8.62852 9.34641 8.47765C9.35336 8.32678 9.37013 8.1501 9.3824 8.00457C9.44464 7.30289 9.67873 6.63515 10.0642 6.05972C10.2323 5.82852 10.4421 5.63144 10.6836 5.4779C11.0629 5.42678 11.4532 5.46806 11.8217 5.59827C12.3148 5.77263 12.7761 6.03403 13.183 6.36964C13.2523 6.43897 13.3369 6.49303 13.4113 6.55726L13.4673 6.61325C15.6222 8.48906 17.2146 12.1745 17.169 15.1732Z" fill="#80BF88"/>
<path d="M16.1998 21.2074C13.5148 20.9701 11.4607 18.3806 10.1203 16.1437C8.20592 12.7267 7.07275 8.63018 7.99731 5.12602C8.23784 4.13663 8.85062 3.29349 9.71117 2.76785C8.82088 3.27093 8.17508 4.10741 7.90825 5.10311C7.07814 7.95849 7.74788 11.2656 9.00047 14.2139C10.3677 17.165 12.7342 20.8816 16.1998 21.2074Z" fill="#F5F5F5"/>
<path d="M10.4681 8.65162C10.4481 9.81774 11.0371 10.7481 11.7148 11.5686L11.3701 11.4121L10.319 11.7911C10.3547 12.0145 10.4059 12.2358 10.4722 12.4535C10.5871 12.8303 10.7458 13.1942 10.945 13.5374C11.2751 14.098 11.6873 14.6083 12.1672 15.0503L12.1518 16.0785L13.3612 17.0338L14.4021 16.665L14.4117 16.4048L14.4104 16.3475C14.4979 16.3386 14.5833 16.3178 14.6642 16.2857C14.6911 16.2768 14.717 16.2652 14.7415 16.2511C14.8651 16.1914 15.4625 16.0101 15.7025 15.9194C15.7304 15.9096 15.7572 15.8972 15.7824 15.8822C16.0604 15.7429 16.2245 15.403 16.2321 14.8303C16.2348 14.2505 16.0898 13.6728 15.8107 13.1513L15.7427 13.0221L15.6641 12.8875L15.5937 12.7712L15.5537 12.7312L15.497 12.644C15.3333 12.4042 15.1568 12.1732 14.9681 11.952C14.8775 11.8613 14.8022 11.7554 14.7194 11.6675L15.1746 11.8735L16.2156 11.5046C15.9709 10.3407 15.3545 9.27153 14.4608 8.46119L14.4736 7.43031L13.2624 6.50881L12.2215 6.87766L12.2158 7.19782C12.1448 7.20316 12.0752 7.21727 12.0084 7.23984C11.8485 7.3038 11.1533 7.53491 10.9753 7.60626C10.6545 7.69771 10.4775 8.03991 10.4681 8.65162Z" fill="#80BF88"/>
<path opacity="0.1" d="M15.6611 15.929C15.395 16.0243 14.8651 16.1916 14.7491 16.2435C14.7236 16.2581 14.6969 16.2705 14.6692 16.2807C14.5884 16.3128 14.503 16.3336 14.4155 16.3425L14.4297 15.6033C14.5948 15.7572 14.7947 15.8679 15.0103 15.925C15.2259 15.982 15.45 15.9833 15.6611 15.929Z" fill="#3C5A40"/>
<path opacity="0.2" d="M13.113 9.40399C13.1189 9.09425 13.3063 8.97624 13.8152 9.36312C14.0548 9.53019 14.2599 9.74306 14.4178 9.9886C14.5758 10.2341 14.6831 10.5071 14.7334 10.7908L16.2226 11.461L15.1816 11.8246L14.729 11.6213L14.7024 11.5947L14.3097 11.1662L14.1525 11.0089C13.8595 10.7234 13.591 10.4139 13.35 10.084C13.2522 9.94742 13.1806 9.7946 13.1392 9.63375C13.1193 9.55833 13.1105 9.48092 13.113 9.40399Z" fill="#3C5A40"/>
<path opacity="0.13" d="M12.2039 7.14645L12.2096 6.82629L13.2479 6.45998L13.2325 7.4882C12.9263 7.27652 12.5683 7.15759 12.2039 7.14645Z" fill="#3C5A40"/>
<path opacity="0.1" d="M13.2058 15.6975L14.4178 16.6555L13.3769 17.0244L12.1648 16.0664L12.1829 15.0409C11.702 14.5981 11.2889 14.0869 10.9581 13.5253C10.7589 13.1821 10.6002 12.8182 10.4853 12.4414C10.419 12.2237 10.3678 12.0024 10.332 11.779L11.3729 11.4102C11.4637 12.024 11.6748 12.6193 11.9939 13.1616C12.3247 13.7231 12.7378 14.2343 13.2187 14.6771L13.2058 15.6975Z" fill="#3C5A40"/>
<path opacity="0.13" d="M12.1742 15.0487C11.7531 14.7182 11.3867 14.3224 11.0901 13.8775C10.7938 13.4429 10.5851 12.9572 10.4766 12.4492C10.6701 12.9266 10.9128 13.3844 11.2006 13.815C11.344 14.0326 11.4984 14.2431 11.663 14.4456C11.824 14.6525 11.9977 14.8466 12.1742 15.0487Z" fill="#3C5A40"/>
<path opacity="0.13" d="M10.9479 7.56535C11.1259 7.494 11.8185 7.26543 11.981 7.19893C11.6792 7.32467 11.5076 7.6722 11.4982 8.28391C11.4799 9.64016 12.2537 10.679 13.0844 11.5864C13.8484 12.4219 14.5515 12.993 14.5406 13.649C14.5344 14.0603 14.2606 14.0408 13.8604 13.7372C13.6081 13.5425 13.3958 13.3003 13.2363 13.0253C13.0769 12.7502 12.9737 12.4482 12.933 12.1375L11.7067 11.5776C11.0161 10.7594 10.4527 9.81403 10.4626 8.6581C10.4771 8.04129 10.6541 7.6991 10.9479 7.56535Z" fill="#3C5A40"/>
<path d="M13.6859 11.1672L14.7268 10.7984L16.216 11.4686L15.1751 11.8374L13.6859 11.1672Z" fill="#80BF88"/>
<path opacity="0.1" d="M13.6859 11.1672L14.7268 10.7984L16.216 11.4686L15.1751 11.8374L13.6859 11.1672Z" fill="#3C5A40"/>
<path d="M13.2479 6.45998L13.2325 7.4882L12.2014 7.14899L12.207 6.82884L13.2479 6.45998Z" fill="#80BF88"/>
<path opacity="0.2" d="M13.2479 6.45998L13.2325 7.4882L12.2014 7.14899L12.207 6.82884L13.2479 6.45998Z" fill="#3C5A40"/>
<path d="M14.4158 16.4003L14.4287 15.6038C14.6 15.7654 14.8095 15.88 15.0352 15.9356C15.2609 15.9913 15.4946 15.986 15.7119 15.9203C15.7398 15.9105 15.7666 15.8981 15.7918 15.8831C16.0698 15.7438 16.2339 15.4039 16.2415 14.8312C16.2442 14.2514 16.0992 13.6736 15.8202 13.1522L15.7521 13.023L15.6735 12.8883L15.6031 12.7721L15.5631 12.7321L15.5064 12.6449C15.3427 12.4051 15.1662 12.1741 14.9775 11.9529C14.8789 11.8542 14.7956 11.7403 14.7021 11.6365L14.3068 11.2055L14.1495 11.0481C13.8608 10.7602 13.5943 10.4509 13.3523 10.1233C13.2553 9.98691 13.183 9.83525 13.1389 9.67563C13.1218 9.59721 13.1139 9.51751 13.1152 9.43812C13.1211 9.12838 13.3084 9.01038 13.8173 9.39726C14.0569 9.56433 14.2621 9.7772 14.42 10.0227C14.5779 10.2683 14.6853 10.5413 14.7355 10.8249L16.2247 11.4951C15.9801 10.3312 15.3637 9.26199 14.47 8.45165L14.4827 7.42078L13.2715 6.49927L13.2561 7.52749C12.7413 7.22119 12.3246 7.10468 12.0176 7.2303C11.7158 7.35605 11.5442 7.70357 11.5375 8.31795C11.5138 9.66887 12.2903 10.7104 13.1184 11.6151C13.8848 12.4481 14.5881 13.0244 14.5772 13.6803C14.571 14.0916 14.2945 14.0695 13.8943 13.7659C13.6425 13.5708 13.4305 13.3285 13.2711 13.0535C13.1117 12.7786 13.0083 12.4767 12.967 12.1662L11.3985 11.4473C11.4328 11.6709 11.484 11.8923 11.5517 12.1097C11.6666 12.4865 11.8254 12.8503 12.0245 13.1936C12.3546 13.7541 12.7668 14.2644 13.2467 14.7064L13.244 15.7219L14.4534 16.6772L14.4158 16.4003Z" fill="#80BF88"/>
<path d="M14.4158 16.4003L14.4287 15.6038C14.6 15.7654 14.8095 15.88 15.0352 15.9356C15.2609 15.9913 15.4946 15.986 15.7119 15.9203C15.7398 15.9105 15.7666 15.8981 15.7918 15.8831C16.0698 15.7438 16.2339 15.4039 16.2415 14.8312C16.2442 14.2514 16.0992 13.6736 15.8202 13.1522L15.7521 13.023L15.6735 12.8883L15.6031 12.7721L15.5631 12.7321L15.5064 12.6449C15.3427 12.4051 15.1662 12.1741 14.9775 11.9529C14.8789 11.8542 14.7956 11.7403 14.7021 11.6365L14.3068 11.2055L14.1495 11.0481C13.8608 10.7602 13.5943 10.4509 13.3523 10.1233C13.2553 9.98691 13.183 9.83525 13.1389 9.67563C13.1218 9.59721 13.1139 9.51751 13.1152 9.43812C13.1211 9.12838 13.3084 9.01038 13.8173 9.39726C14.0569 9.56433 14.2621 9.7772 14.42 10.0227C14.5779 10.2683 14.6853 10.5413 14.7355 10.8249L16.2247 11.4951C15.9801 10.3312 15.3637 9.26199 14.47 8.45165L14.4827 7.42078L13.2715 6.49927L13.2561 7.52749C12.7413 7.22119 12.3246 7.10468 12.0176 7.2303C11.7158 7.35605 11.5442 7.70357 11.5375 8.31795C11.5138 9.66887 12.2903 10.7104 13.1184 11.6151C13.8848 12.4481 14.5881 13.0244 14.5772 13.6803C14.571 14.0916 14.2945 14.0695 13.8943 13.7659C13.6425 13.5708 13.4305 13.3285 13.2711 13.0535C13.1117 12.7786 13.0083 12.4767 12.967 12.1662L11.3985 11.4473C11.4328 11.6709 11.484 11.8923 11.5517 12.1097C11.6666 12.4865 11.8254 12.8503 12.0245 13.1936C12.3546 13.7541 12.7668 14.2644 13.2467 14.7064L13.244 15.7219L14.4534 16.6772L14.4158 16.4003Z" fill="#F0F0F0"/>
<path d="M11.5098 8.2832C11.5175 8.79043 11.632 9.2953 11.8459 9.76491C12.0718 10.2429 12.3626 10.6898 12.7097 11.0923C13.0474 11.5117 13.4285 11.8929 13.797 12.287C13.9833 12.4819 14.1537 12.6914 14.3061 12.9134C14.4598 13.1334 14.5415 13.3934 14.5393 13.6558C14.524 13.3985 14.429 13.1488 14.2677 12.9411C14.1106 12.7247 13.9361 12.5211 13.7459 12.3326C13.3648 11.9513 12.9837 11.5701 12.6458 11.1455C12.2982 10.7319 12.0104 10.2725 11.7916 9.78188C11.5825 9.30673 11.4852 8.79442 11.5072 8.28575L11.5098 8.2832Z" fill="white"/>
<path d="M13.1974 15.705L12.1565 16.0738L12.1719 15.0456L13.2128 14.6768L13.1974 15.705Z" fill="#80BF88"/>
<path opacity="0.13" d="M13.1974 15.705L12.1565 16.0738L12.1719 15.0456L13.2128 14.6768L13.1974 15.705Z" fill="#3C5A40"/>
<path d="M14.4068 16.6603L13.3138 15.6686L13.2129 14.6768L13.1975 15.705L14.4068 16.6603Z" fill="#FAFAFA"/>
<path d="M14.4566 8.42252L14.3662 7.4361L13.2475 6.45948L14.4693 7.39165L14.4566 8.42252Z" fill="#FAFAFA"/>
<path opacity="0.15" d="M16.2147 11.4688C16.1744 11.2698 16.122 11.0729 16.0579 10.8792L15.6227 11.2024L16.2147 11.4688Z" fill="white"/>
<path opacity="0.15" d="M11.5072 8.32794C11.5084 8.88718 11.6445 9.44416 11.9039 9.95169L14.4618 8.06115L14.4698 7.39211L13.6376 6.7581L13.2381 7.05082L13.2326 7.48816C13.1198 7.42015 13.0036 7.35831 12.8846 7.30295L11.5072 8.32794Z" fill="white"/>
<path opacity="0.15" d="M16.234 14.6197C16.2163 14.2977 16.152 13.9777 16.0429 13.67L13.2443 15.7372L13.9576 16.2981L14.4262 15.9523L14.4337 15.5983C14.5068 15.6639 14.5857 15.7224 14.6695 15.7731L16.234 14.6197Z" fill="white"/>
<path opacity="0.15" d="M15.739 12.9987L15.6604 12.864L15.59 12.7478L15.5501 12.7078L15.4934 12.6205C15.3297 12.3808 15.1531 12.1497 14.9645 11.9285L14.8285 11.7925L13.9017 12.4791C14.281 12.8942 14.5368 13.2622 14.5304 13.663C14.524 14.0639 14.2477 14.0522 13.8476 13.7486C13.5814 13.5462 13.3619 13.2882 13.2053 12.9941L12.2911 13.6679C12.5573 14.0389 12.8602 14.3829 13.1949 14.6942L13.1908 15.0821L15.7947 13.1562L15.732 13.0323L15.739 12.9987Z" fill="white"/>
</svg>
