<svg width="24" height="24" viewBox="0 0 24 24" fill="none" xmlns="http://www.w3.org/2000/svg">
<path d="M18.6667 16.8H21.3333V2.4H8V4.8H18.6667V16.8ZM18.6667 19.2V22.8C18.6667 23.4624 18.0667 24 17.324 24H1.34267C1.16684 24.0009 0.99253 23.9706 0.829763 23.9107C0.666997 23.8509 0.518978 23.7626 0.394211 23.6511C0.269445 23.5396 0.170391 23.407 0.102739 23.261C0.0350875 23.1149 0.000172499 22.9582 0 22.8L0.00400003 5.99999C0.00400003 5.3376 0.604 4.8 1.34667 4.8H5.33333V1.2C5.33333 0.881739 5.47381 0.576515 5.72386 0.351472C5.97391 0.126428 6.31305 0 6.66667 0H22.6667C23.0203 0 23.3594 0.126428 23.6095 0.351472C23.8595 0.576515 24 0.881739 24 1.2V18C24 18.3182 23.8595 18.6235 23.6095 18.8485C23.3594 19.0736 23.0203 19.2 22.6667 19.2H18.6667ZM2.67067 7.19999L2.66667 21.6H16V7.19999H2.67067ZM5.33333 16.8H11.3333C11.5101 16.8 11.6797 16.7368 11.8047 16.6243C11.9298 16.5117 12 16.3591 12 16.2C12 16.0409 11.9298 15.8882 11.8047 15.7757C11.6797 15.6632 11.5101 15.6 11.3333 15.6H7.33333C6.44928 15.6 5.60143 15.2839 4.97631 14.7213C4.35119 14.1587 4 13.3956 4 12.6C4 11.8043 4.35119 11.0413 4.97631 10.4787C5.60143 9.91606 6.44928 9.59999 7.33333 9.59999H8V8.39999H10.6667V9.59999H13.3333V12H7.33333C7.15652 12 6.98695 12.0632 6.86193 12.1757C6.7369 12.2882 6.66667 12.4409 6.66667 12.6C6.66667 12.7591 6.7369 12.9117 6.86193 13.0243C6.98695 13.1368 7.15652 13.2 7.33333 13.2H11.3333C12.2174 13.2 13.0652 13.5161 13.6904 14.0787C14.3155 14.6413 14.6667 15.4043 14.6667 16.2C14.6667 16.9956 14.3155 17.7587 13.6904 18.3213C13.0652 18.8839 12.2174 19.2 11.3333 19.2H10.6667V20.4H8V19.2H5.33333V16.8Z" fill="#3C5A40"/>
</svg>
