<svg width="24" height="24" viewBox="0 0 24 24" fill="none" xmlns="http://www.w3.org/2000/svg">
<path d="M23.617 21.7021H0.382979C0.171472 21.7021 0 21.8736 0 22.0851C0 22.2966 0.171472 22.4681 0.382979 22.4681H23.617C23.8286 22.4681 24 22.2966 24 22.0851C24 21.8736 23.8286 21.7021 23.617 21.7021Z" fill="#80BF88"/>
<path d="M23.617 23.2339H0.382979C0.171472 23.2339 0 23.4054 0 23.6169C0 23.8284 0.171472 23.9998 0.382979 23.9998H23.617C23.8286 23.9998 24 23.8284 24 23.6169C24 23.4054 23.8286 23.2339 23.617 23.2339Z" fill="#80BF88"/>
<path d="M23.617 1.53191H22.3404V1.14894C22.3404 0.515387 21.825 0 21.1915 0C20.558 0 20.0426 0.515387 20.0426 1.14894V1.53191H16.2128V1.14894C16.2128 0.515387 15.6973 0 15.0638 0C14.4303 0 13.9149 0.515387 13.9149 1.14894V1.53191H10.0851V1.14894C10.0851 0.515387 9.56972 0 8.93617 0C8.30262 0 7.78723 0.515387 7.78723 1.14894V1.53191H3.95745V1.14894C3.95745 0.515387 3.44206 0 2.80851 0C2.17496 0 1.65957 0.515387 1.65957 1.14894V1.53191H0.382979C0.171472 1.53191 0 1.70339 0 1.91489V20.5532C0 20.7647 0.171472 20.9362 0.382979 20.9362H23.617C23.8286 20.9362 24 20.7647 24 20.5532V1.91489C24 1.70339 23.8286 1.53191 23.617 1.53191ZM20.8085 1.14894C20.8085 0.937736 20.9803 0.765957 21.1915 0.765957C21.4027 0.765957 21.5745 0.937736 21.5745 1.14894V2.68085C21.5745 2.89205 21.4027 3.06383 21.1915 3.06383C20.9803 3.06383 20.8085 2.89205 20.8085 2.68085V1.14894ZM14.6809 1.14894C14.6809 0.937736 14.8526 0.765957 15.0638 0.765957C15.275 0.765957 15.4468 0.937736 15.4468 1.14894V2.68085C15.4468 2.89205 15.275 3.06383 15.0638 3.06383C14.8526 3.06383 14.6809 2.89205 14.6809 2.68085V1.14894ZM8.55319 1.14894C8.55319 0.937736 8.72497 0.765957 8.93617 0.765957C9.14737 0.765957 9.31915 0.937736 9.31915 1.14894V2.68085C9.31915 2.89205 9.14737 3.06383 8.93617 3.06383C8.72497 3.06383 8.55319 2.89205 8.55319 2.68085V1.14894ZM2.42553 1.14894C2.42553 0.937736 2.59731 0.765957 2.80851 0.765957C3.01971 0.765957 3.19149 0.937736 3.19149 1.14894V2.68085C3.19149 2.89205 3.01971 3.06383 2.80851 3.06383C2.59731 3.06383 2.42553 2.89205 2.42553 2.68085V1.14894ZM1.65957 2.29787V2.68085C1.65957 3.3144 2.17496 3.82979 2.80851 3.82979C3.44206 3.82979 3.95745 3.3144 3.95745 2.68085V2.29787H7.78723V2.68085C7.78723 3.3144 8.30262 3.82979 8.93617 3.82979C9.56972 3.82979 10.0851 3.3144 10.0851 2.68085V2.29787H13.9149V2.68085C13.9149 3.3144 14.4303 3.82979 15.0638 3.82979C15.6973 3.82979 16.2128 3.3144 16.2128 2.68085V2.29787H20.0426V2.68085C20.0426 3.3144 20.558 3.82979 21.1915 3.82979C21.825 3.82979 22.3404 3.3144 22.3404 2.68085V2.29787H23.234V6.24511H0.765957V2.29787H1.65957ZM0.765957 20.1702V7.01106H23.234V20.1702H0.765957Z" fill="#80BF88"/>
<path d="M21.0379 11.5811H19.506C19.2945 11.5811 19.123 11.7525 19.123 11.964C19.123 12.1755 19.2945 12.347 19.506 12.347H21.0379C21.2495 12.347 21.4209 12.1755 21.4209 11.964C21.4209 11.7525 21.2495 11.5811 21.0379 11.5811Z" fill="#80BF88"/>
<path d="M16.9032 11.5811H15.3713C15.1597 11.5811 14.9883 11.7525 14.9883 11.964C14.9883 12.1755 15.1597 12.347 15.3713 12.347H16.9032C17.1147 12.347 17.2862 12.1755 17.2862 11.964C17.2862 11.7525 17.1147 11.5811 16.9032 11.5811Z" fill="#80BF88"/>
<path d="M12.7665 11.5811H11.2345C11.023 11.5811 10.8516 11.7525 10.8516 11.964C10.8516 12.1755 11.023 12.347 11.2345 12.347H12.7665C12.978 12.347 13.1494 12.1755 13.1494 11.964C13.1494 11.7525 12.978 11.5811 12.7665 11.5811Z" fill="#80BF88"/>
<path d="M8.62974 11.5811H7.09782C6.88632 11.5811 6.71484 11.7525 6.71484 11.964C6.71484 12.1755 6.88632 12.347 7.09782 12.347H8.62974C8.84124 12.347 9.01272 12.1755 9.01272 11.964C9.01272 11.7525 8.84124 11.5811 8.62974 11.5811Z" fill="#80BF88"/>
<path d="M4.49302 11.5811H2.9611C2.7496 11.5811 2.57812 11.7525 2.57812 11.964C2.57812 12.1755 2.7496 12.347 2.9611 12.347H4.49302C4.70452 12.347 4.876 12.1755 4.876 11.964C4.876 11.7525 4.70452 11.5811 4.49302 11.5811Z" fill="#80BF88"/>
<path d="M16.9032 14.3389H15.3713C15.1597 14.3389 14.9883 14.5103 14.9883 14.7218C14.9883 14.9334 15.1597 15.1048 15.3713 15.1048H16.9032C17.1147 15.1048 17.2862 14.9334 17.2862 14.7218C17.2862 14.5103 17.1147 14.3389 16.9032 14.3389Z" fill="#80BF88"/>
<path d="M12.7665 14.3389H11.2345C11.023 14.3389 10.8516 14.5103 10.8516 14.7218C10.8516 14.9334 11.023 15.1048 11.2345 15.1048H12.7665C12.978 15.1048 13.1494 14.9334 13.1494 14.7218C13.1494 14.5103 12.978 14.3389 12.7665 14.3389Z" fill="#80BF88"/>
<path d="M8.62974 14.3389H7.09782C6.88632 14.3389 6.71484 14.5103 6.71484 14.7218C6.71484 14.9334 6.88632 15.1048 7.09782 15.1048H8.62974C8.84124 15.1048 9.01272 14.9334 9.01272 14.7218C9.01272 14.5103 8.84124 14.3389 8.62974 14.3389Z" fill="#80BF88"/>
<path d="M4.49302 14.3389H2.9611C2.7496 14.3389 2.57812 14.5103 2.57812 14.7218C2.57812 14.9334 2.7496 15.1048 2.9611 15.1048H4.49302C4.70452 15.1048 4.876 14.9334 4.876 14.7218C4.876 14.5103 4.70452 14.3389 4.49302 14.3389Z" fill="#80BF88"/>
<path d="M16.9032 17.0962H15.3713C15.1597 17.0962 14.9883 17.2677 14.9883 17.4792C14.9883 17.6907 15.1597 17.8621 15.3713 17.8621H16.9032C17.1147 17.8621 17.2862 17.6907 17.2862 17.4792C17.2862 17.2677 17.1147 17.0962 16.9032 17.0962Z" fill="#80BF88"/>
<path d="M21.0379 14.3389H19.506C19.2945 14.3389 19.123 14.5103 19.123 14.7218C19.123 14.9334 19.2945 15.1048 19.506 15.1048H21.0379C21.2495 15.1048 21.4209 14.9334 21.4209 14.7218C21.4209 14.5103 21.2495 14.3389 21.0379 14.3389Z" fill="#80BF88"/>
<path d="M21.0379 17.0962H19.506C19.2945 17.0962 19.123 17.2677 19.123 17.4792C19.123 17.6907 19.2945 17.8621 19.506 17.8621H21.0379C21.2495 17.8621 21.4209 17.6907 21.4209 17.4792C21.4209 17.2677 21.2495 17.0962 21.0379 17.0962Z" fill="#80BF88"/>
<path d="M12.7665 17.0962H11.2345C11.023 17.0962 10.8516 17.2677 10.8516 17.4792C10.8516 17.6907 11.023 17.8621 11.2345 17.8621H12.7665C12.978 17.8621 13.1494 17.6907 13.1494 17.4792C13.1494 17.2677 12.978 17.0962 12.7665 17.0962Z" fill="#80BF88"/>
<path d="M8.62974 17.0962H7.09782C6.88632 17.0962 6.71484 17.2677 6.71484 17.4792C6.71484 17.6907 6.88632 17.8621 7.09782 17.8621H8.62974C8.84124 17.8621 9.01272 17.6907 9.01272 17.4792C9.01272 17.2677 8.84124 17.0962 8.62974 17.0962Z" fill="#80BF88"/>
<path d="M4.49302 17.0962H2.9611C2.7496 17.0962 2.57812 17.2677 2.57812 17.4792C2.57812 17.6907 2.7496 17.8621 2.9611 17.8621H4.49302C4.70452 17.8621 4.876 17.6907 4.876 17.4792C4.876 17.2677 4.70452 17.0962 4.49302 17.0962Z" fill="#80BF88"/>
<path d="M21.0379 8.82373H19.506C19.2945 8.82373 19.123 8.9952 19.123 9.20671C19.123 9.41822 19.2945 9.58969 19.506 9.58969H21.0379C21.2495 9.58969 21.4209 9.41822 21.4209 9.20671C21.4209 8.9952 21.2495 8.82373 21.0379 8.82373Z" fill="#80BF88"/>
<path d="M16.9032 8.82373H15.3713C15.1597 8.82373 14.9883 8.9952 14.9883 9.20671C14.9883 9.41822 15.1597 9.58969 15.3713 9.58969H16.9032C17.1147 9.58969 17.2862 9.41822 17.2862 9.20671C17.2862 8.9952 17.1147 8.82373 16.9032 8.82373Z" fill="#80BF88"/>
<path d="M12.7665 8.82373H11.2345C11.023 8.82373 10.8516 8.9952 10.8516 9.20671C10.8516 9.41822 11.023 9.58969 11.2345 9.58969H12.7665C12.978 9.58969 13.1494 9.41822 13.1494 9.20671C13.1494 8.9952 12.978 8.82373 12.7665 8.82373Z" fill="#80BF88"/>
<path d="M8.62974 8.82373H7.09782C6.88632 8.82373 6.71484 8.9952 6.71484 9.20671C6.71484 9.41822 6.88632 9.58969 7.09782 9.58969H8.62974C8.84124 9.58969 9.01272 9.41822 9.01272 9.20671C9.01272 8.9952 8.84124 8.82373 8.62974 8.82373Z" fill="#80BF88"/>
<path d="M4.49302 8.82373H2.9611C2.7496 8.82373 2.57812 8.9952 2.57812 9.20671C2.57812 9.41822 2.7496 9.58969 2.9611 9.58969H4.49302C4.70452 9.58969 4.876 9.41822 4.876 9.20671C4.876 8.9952 4.70452 8.82373 4.49302 8.82373Z" fill="#80BF88"/>
</svg>
