<svg width="24" height="24" viewBox="0 0 24 24" fill="none" xmlns="http://www.w3.org/2000/svg">
<path d="M21.9998 0H1.9993C0.89462 0 0 1.02504 0 2.28945V17.1746C0 18.439 0.895557 19.464 1.9993 19.464H16.0356L19.9986 24V19.464H21.9998C23.1044 19.464 24 18.439 24 17.1746V2.28945C24 1.02504 23.1044 0 21.9998 0ZM22.9994 17.1746C22.9994 17.8057 22.5502 18.3188 21.9998 18.3188H18.9989V21.2361L16.4501 18.3188H1.9993C1.4479 18.3188 0.999648 17.8057 0.999648 17.1746V2.28945C0.999648 1.65832 1.44883 1.14526 1.9993 1.14526H21.9998C22.5512 1.14526 22.9994 1.65832 22.9994 2.28945V17.1746Z" fill="#80BF88"/>
<path d="M11.9996 8.59082C11.4473 8.59082 11 9.10388 11 9.73501C11 10.3661 11.4473 10.8792 11.9996 10.8792C12.552 10.8792 12.9993 10.3672 12.9993 9.73501C12.9993 9.10388 12.552 8.59082 11.9996 8.59082Z" fill="#80BF88"/>
<path d="M15.9996 8.59082C15.4473 8.59082 15 9.10388 15 9.73501C15 10.3661 15.4473 10.8792 15.9996 10.8792C16.552 10.8792 16.9993 10.3672 16.9993 9.73501C16.9993 9.10388 16.552 8.59082 15.9996 8.59082Z" fill="#80BF88"/>
<path d="M8.0934 8.59082C7.54106 8.59082 7.09375 9.10388 7.09375 9.73501C7.09375 10.3661 7.54106 10.8792 8.0934 10.8792C8.64574 10.8792 9.09305 10.3672 9.09305 9.73501C9.09305 9.10388 8.64574 8.59082 8.0934 8.59082Z" fill="#80BF88"/>
</svg>
