<svg width="16" height="10" viewBox="0 0 16 10" fill="none" xmlns="http://www.w3.org/2000/svg">
<path d="M16 0.711715C15.9993 0.900963 15.934 1.08217 15.8184 1.21559L8.43262 9.79217C8.3173 9.92528 8.16131 10 7.99871 10C7.8361 10 7.68011 9.92528 7.56479 9.79217L0.178978 1.21559C0.0643438 1.08168 0 0.900532 0 0.711715C0 0.522897 0.0643438 0.341751 0.178978 0.207841C0.294297 0.0747242 0.450293 6.67572e-06 0.612895 6.67572e-06C0.775497 6.67572e-06 0.931493 0.0747242 1.04681 0.207841L7.99871 8.27697L14.9506 0.207841C15.0367 0.10849 15.1461 0.0409012 15.2652 0.0135708C15.3842 -0.0137596 15.5076 0.000387192 15.6197 0.0542355C15.7319 0.108083 15.8278 0.199227 15.8955 0.316211C15.9631 0.433193 15.9995 0.570794 16 0.711715Z" fill="white"/>
</svg>
