<svg width="24" height="24" viewBox="0 0 24 24" fill="none" xmlns="http://www.w3.org/2000/svg">
<path d="M23.7289 4.26405L19.7365 0.271186C19.5628 0.0975133 19.3273 0 19.0818 0C18.8363 0 18.6008 0.0975133 18.4272 0.271062L14.4341 4.26417C14.4336 4.26467 14.4331 4.26541 14.4325 4.2659L6.77361 11.9248C6.60685 12.0917 6.51007 12.3156 6.50291 12.5513L6.37763 16.6692C6.36985 16.9244 6.46786 17.1714 6.64832 17.3519C6.82224 17.5257 7.05775 17.623 7.3029 17.623C7.31228 17.623 7.32178 17.6229 7.33116 17.6225L11.4489 17.4969C11.6846 17.4897 11.9086 17.3929 12.0754 17.2263L23.7289 5.57307C24.0904 5.21178 24.0904 4.62559 23.7289 4.26405ZM19.0814 7.60197L16.3979 4.91887L19.0818 2.23503L21.765 4.91862L19.0814 7.60197ZM11.0257 15.6577L8.25816 15.7422L8.34234 12.9746L15.0887 6.22814L17.7723 8.91136L11.0257 15.6577Z" fill="#3C5A40"/>
<path d="M16.3166 14.4532C15.8053 14.4532 15.3908 14.8676 15.3908 15.3789V22.1486H1.85152V8.6093H8.62118C9.13245 8.6093 9.54695 8.19493 9.54695 7.68354C9.54695 7.17215 9.13245 6.75778 8.62118 6.75778H0.925761C0.414494 6.75778 0 7.17215 0 7.68354V23.0742C0 23.5856 0.414494 24 0.925761 24H16.3165C16.8277 24 17.2422 23.5856 17.2422 23.0742V15.3788C17.2424 14.8676 16.8279 14.4532 16.3166 14.4532Z" fill="#3C5A40"/>
</svg>
