<svg width="10" height="16" viewBox="0 0 10 16" fill="none" xmlns="http://www.w3.org/2000/svg">
<path d="M0.711715 0C0.900963 0.000686646 1.08217 0.0659828 1.21559 0.181567L9.79217 7.56738C9.92528 7.6827 10 7.83869 10 8.00129C10 8.1639 9.92528 8.31989 9.79217 8.43521L1.21559 15.821C1.08168 15.9357 0.900532 16 0.711715 16C0.522897 16 0.341751 15.9357 0.207841 15.821C0.0747242 15.7057 6.67572e-06 15.5497 6.67572e-06 15.3871C6.67572e-06 15.2245 0.0747242 15.0685 0.207841 14.9532L8.27697 8.00129L0.207841 1.0494C0.10849 0.963335 0.0409012 0.853897 0.0135708 0.734845C-0.0137596 0.615794 0.000387192 0.49244 0.0542355 0.380294C0.108083 0.268147 0.199227 0.172212 0.316211 0.104548C0.433193 0.0368824 0.570794 0.000509262 0.711715 0Z" fill="#80BF88" fill-opacity="0.5"/>
</svg>
