<svg width="108" height="94" viewBox="0 0 108 94" fill="none" xmlns="http://www.w3.org/2000/svg">
<path d="M108 69.0693H0V69.1223H108V69.0693Z" fill="#EBEBEB"/>
<path d="M93.6988 71.3242H86.5449V71.3772H93.6988V71.3242Z" fill="#EBEBEB"/>
<path d="M67.6231 71.2988H65.7461V71.3518H67.6231V71.2988Z" fill="#EBEBEB"/>
<path d="M97.1782 72.4805H93.0332V72.5335H97.1782V72.4805Z" fill="#EBEBEB"/>
<path d="M24.7529 73.1836H15.4238V73.2366H24.7529V73.1836Z" fill="#EBEBEB"/>
<path d="M23.9513 70.8691H22.584V70.9221H23.9513V70.8691Z" fill="#EBEBEB"/>
<path d="M53.6661 71.0957H40.5117V71.1487H53.6661V71.0957Z" fill="#EBEBEB"/>
<path d="M51.1926 59.6138H9.48511C9.15837 59.6132 8.84522 59.4854 8.61439 59.2585C8.38355 59.0315 8.25391 58.7239 8.25391 58.4032V0.860076C8.25675 0.541234 8.38765 0.236368 8.61818 0.0116985C8.8487 -0.212971 9.16024 -0.339298 9.48511 -0.339844H51.1926C51.5197 -0.339844 51.8334 -0.212307 52.0647 0.0147094C52.296 0.241726 52.4259 0.549626 52.4259 0.870676V58.4032C52.4259 58.7243 52.296 59.0322 52.0647 59.2592C51.8334 59.4862 51.5197 59.6138 51.1926 59.6138ZM9.48511 -0.297444C9.1727 -0.296882 8.87328 -0.174682 8.65257 0.0423343C8.43186 0.259351 8.30791 0.55345 8.30791 0.860076V58.4032C8.30791 58.7099 8.43186 59.004 8.65257 59.221C8.87328 59.438 9.1727 59.5602 9.48511 59.5608H51.1926C51.5052 59.5602 51.8048 59.4381 52.0259 59.2211C52.2469 59.0042 52.3713 58.7101 52.3719 58.4032V0.860076C52.3713 0.553255 52.2469 0.259161 52.0259 0.0422049C51.8048 -0.174751 51.5052 -0.296883 51.1926 -0.297444H9.48511Z" fill="#EBEBEB"/>
<path d="M97.9156 59.6138H56.206C55.8791 59.6132 55.5657 59.4855 55.3345 59.2586C55.1034 59.0317 54.9732 58.7241 54.9727 58.4032V0.860076C54.9761 0.54104 55.1074 0.236177 55.3383 0.0115659C55.5692 -0.213045 55.8809 -0.339304 56.206 -0.339844H97.9156C98.2401 -0.33874 98.5511 -0.212167 98.7812 0.0124426C99.0112 0.237052 99.1418 0.5416 99.1447 0.860076V58.4032C99.1447 58.7236 99.0153 59.0308 98.7849 59.2577C98.5546 59.4846 98.242 59.6126 97.9156 59.6138ZM56.206 -0.297444C55.8934 -0.296883 55.5938 -0.174751 55.3727 0.0422049C55.1517 0.259161 55.0272 0.553255 55.0267 0.860076V58.4032C55.0272 58.7101 55.1517 59.0042 55.3727 59.2211C55.5938 59.4381 55.8934 59.5602 56.206 59.5608H97.9156C98.2282 59.5602 98.5279 59.4381 98.7489 59.2211C98.97 59.0042 99.0944 58.7101 99.095 58.4032V0.860076C99.0944 0.553255 98.97 0.259161 98.7489 0.0422049C98.5279 -0.174751 98.2282 -0.296883 97.9156 -0.297444H56.206Z" fill="#EBEBEB"/>
<path d="M92.6399 8.42188H15.3594V39.9866H92.6399V8.42188Z" fill="#F0F0F0"/>
<path d="M91.1289 38.5049V9.9082L16.8724 9.9082V38.5049H91.1289Z" fill="#FAFAFA"/>
<path d="M26.6484 38.5029L34.2646 9.90625H39.8806L32.2644 38.5029H26.6484Z" fill="white"/>
<path d="M33.5605 38.5029L41.1767 9.90625H43.6888L36.0726 38.5029H33.5605Z" fill="white"/>
<path d="M45.8496 38.5029L53.4679 9.90625H59.0839L51.4656 38.5029H45.8496Z" fill="white"/>
<path d="M60.0117 38.5029L67.6279 9.90625H70.1421L62.5238 38.5029H60.0117Z" fill="white"/>
<path d="M36.7656 38.5049V9.9082H36.3811V38.5049H36.7656Z" fill="#E0E0E0"/>
<path d="M17.2559 38.5049L17.2559 9.9082H16.8714V38.5049H17.2559Z" fill="#E0E0E0"/>
<path d="M36.3809 38.5049V9.9082H34.8689V38.5049H36.3809Z" fill="#F0F0F0"/>
<path d="M55.5117 38.5049V9.9082H55.1272V38.5049H55.5117Z" fill="#E0E0E0"/>
<path d="M55.127 38.5049V9.9082H53.615V38.5049H55.127Z" fill="#F0F0F0"/>
<path d="M74.2676 38.5029V9.90625H73.8831V38.5029H74.2676Z" fill="#E0E0E0"/>
<path d="M73.8828 38.5029V9.90625H72.3708V38.5029H73.8828Z" fill="#F0F0F0"/>
<path d="M93.0254 39.9866V8.42188H92.6409V39.9866H93.0254Z" fill="#E0E0E0"/>
<path d="M93.8896 6.25502H14.1121C14.0235 6.25447 13.9387 6.21967 13.876 6.15816C13.8134 6.09666 13.7779 6.0134 13.7773 5.92642C13.7773 5.83908 13.8125 5.75528 13.8753 5.69332C13.938 5.63135 14.0232 5.59626 14.1121 5.5957H93.8896C93.9786 5.59626 94.0637 5.63135 94.1265 5.69332C94.1892 5.75528 94.2244 5.83908 94.2244 5.92642C94.2238 6.0134 94.1884 6.09666 94.1257 6.15816C94.063 6.21967 93.9782 6.25447 93.8896 6.25502Z" fill="#E0E0E0"/>
<g opacity="0.6">
<path d="M30.7448 4.95996H14.4238V62.554H30.7448V4.95996Z" fill="#F5F5F5"/>
<path d="M23.2677 63.0247H21.9004L22.2849 5.43066H22.8962L23.2677 63.0247Z" fill="#E6E6E6"/>
<path d="M18.7371 63.0247H18.0762L18.2619 5.43066H18.5579L18.7371 63.0247Z" fill="#E6E6E6"/>
<path d="M27.8094 63.0247H27.1484L27.3342 5.43066H27.6301L27.8094 63.0247Z" fill="#E6E6E6"/>
</g>
<g opacity="0.6">
<path d="M93.3815 4.95996H77.0605V62.554H93.3815V4.95996Z" fill="#F5F5F5"/>
<path d="M83.4571 63.0247H82.0898L82.4743 5.43066H83.0856L83.4571 63.0247Z" fill="#E6E6E6"/>
<path d="M80.4381 63.0247H79.7793L79.9629 5.43066H80.2588L80.4381 63.0247Z" fill="#E6E6E6"/>
<path d="M87.4225 63.0247H86.7637L86.9494 5.43066H87.2432L87.4225 63.0247Z" fill="#E6E6E6"/>
<path d="M90.7838 63.0247H90.125L90.3086 5.43066H90.6045L90.7838 63.0247Z" fill="#E6E6E6"/>
</g>
<path d="M70.2453 68.709H73.3125V51.4564H70.2453V68.709Z" fill="#E6E6E6"/>
<path d="M34.6883 68.709H71.4277V51.4564H34.6883V68.709Z" fill="#F0F0F0"/>
<path d="M70.6023 68.709H69.4964H36.2734V69.0694H69.4964H70.6023H71.7277V68.709H70.6023Z" fill="#E0E0E0"/>
<path opacity="0.5" d="M35.7347 59.4971L70.3789 59.4971V52.535L35.7347 52.535V59.4971Z" fill="#FAFAFA"/>
<path opacity="0.5" d="M35.7347 67.583H70.3789V60.6209L35.7347 60.6209V67.583Z" fill="#FAFAFA"/>
<path d="M40.9853 56.0163C40.9853 56.1677 40.9396 56.3156 40.8539 56.4415C40.7682 56.5673 40.6464 56.6654 40.5039 56.7234C40.3615 56.7813 40.2047 56.7964 40.0534 56.7669C39.9022 56.7374 39.7632 56.6645 39.6542 56.5575C39.5451 56.4504 39.4709 56.3141 39.4408 56.1656C39.4107 56.0171 39.4261 55.8633 39.4851 55.7234C39.5442 55.5836 39.6441 55.4641 39.7723 55.38C39.9006 55.2959 40.0513 55.251 40.2055 55.251C40.3079 55.251 40.4093 55.2708 40.5039 55.3092C40.5985 55.3477 40.6845 55.4041 40.7569 55.4751C40.8293 55.5462 40.8868 55.6306 40.9259 55.7234C40.9651 55.8163 40.9853 55.9158 40.9853 56.0163Z" fill="#E0E0E0"/>
<path d="M66.6865 56.0163C66.6865 56.1677 66.6407 56.3156 66.5551 56.4415C66.4694 56.5673 66.3476 56.6654 66.2051 56.7234C66.0626 56.7813 65.9058 56.7964 65.7546 56.7669C65.6033 56.7374 65.4644 56.6645 65.3553 56.5575C65.2463 56.4504 65.172 56.3141 65.1419 56.1656C65.1119 56.0171 65.1273 55.8633 65.1863 55.7234C65.2453 55.5836 65.3453 55.4641 65.4735 55.38C65.6017 55.2959 65.7525 55.251 65.9067 55.251C66.0091 55.251 66.1105 55.2708 66.2051 55.3092C66.2997 55.3477 66.3857 55.4041 66.4581 55.4751C66.5305 55.5462 66.5879 55.6306 66.6271 55.7234C66.6663 55.8163 66.6865 55.9158 66.6865 56.0163Z" fill="#E0E0E0"/>
<path d="M40.2055 64.8676C40.6362 64.8676 40.9853 64.5249 40.9853 64.1022C40.9853 63.6796 40.6362 63.3369 40.2055 63.3369C39.7749 63.3369 39.4258 63.6796 39.4258 64.1022C39.4258 64.5249 39.7749 64.8676 40.2055 64.8676Z" fill="#E0E0E0"/>
<path d="M66.6865 64.1081C66.6865 64.2595 66.6407 64.4074 66.5551 64.5333C66.4694 64.6591 66.3476 64.7572 66.2051 64.8152C66.0626 64.8731 65.9058 64.8882 65.7546 64.8587C65.6033 64.8292 65.4644 64.7563 65.3553 64.6493C65.2463 64.5422 65.172 64.4059 65.1419 64.2574C65.1119 64.1089 65.1273 63.9551 65.1863 63.8152C65.2453 63.6754 65.3453 63.5558 65.4735 63.4717C65.6017 63.3877 65.7525 63.3428 65.9067 63.3428C66.1135 63.3428 66.3119 63.4234 66.4581 63.5669C66.6043 63.7105 66.6865 63.9051 66.6865 64.1081Z" fill="#E0E0E0"/>
<path d="M53.8349 56.0163C53.8349 56.1677 53.7892 56.3156 53.7035 56.4415C53.6178 56.5673 53.496 56.6654 53.3536 56.7234C53.2111 56.7813 53.0543 56.7964 52.903 56.7669C52.7518 56.7374 52.6128 56.6645 52.5038 56.5575C52.3947 56.4504 52.3205 56.3141 52.2904 56.1656C52.2603 56.0171 52.2757 55.8633 52.3347 55.7234C52.3938 55.5836 52.4937 55.4641 52.6219 55.38C52.7502 55.2959 52.9009 55.251 53.0552 55.251C53.1576 55.251 53.2589 55.2708 53.3536 55.3092C53.4482 55.3477 53.5341 55.4041 53.6065 55.4751C53.6789 55.5462 53.7364 55.6306 53.7756 55.7234C53.8147 55.8163 53.8349 55.9158 53.8349 56.0163Z" fill="#E0E0E0"/>
<path d="M53.0552 64.8676C53.4858 64.8676 53.8349 64.5249 53.8349 64.1022C53.8349 63.6796 53.4858 63.3369 53.0552 63.3369C52.6245 63.3369 52.2754 63.6796 52.2754 64.1022C52.2754 64.5249 52.6245 64.8676 53.0552 64.8676Z" fill="#E0E0E0"/>
<path d="M69.1538 48.5264C69.1538 49.3034 68.8393 50.0486 68.2795 50.5981C67.7197 51.1475 66.9604 51.4562 66.1687 51.4562C65.377 51.4562 64.6177 51.1475 64.0579 50.5981C63.4981 50.0486 63.1836 49.3034 63.1836 48.5264H69.1538Z" fill="#F0F0F0"/>
<path d="M45.5529 47.9961C45.5529 48.912 45.1822 49.7904 44.5223 50.4381C43.8624 51.0857 42.9675 51.4496 42.0343 51.4496C41.1011 51.4496 40.2061 51.0857 39.5462 50.4381C38.8863 49.7904 38.5156 48.912 38.5156 47.9961H45.5529Z" fill="#F0F0F0"/>
<path d="M60.678 49.4229C60.678 49.9621 60.4598 50.4792 60.0713 50.8605C59.6829 51.2417 59.156 51.4559 58.6066 51.4559C58.0572 51.4559 57.5303 51.2417 57.1419 50.8605C56.7534 50.4792 56.5352 49.9621 56.5352 49.4229H60.678Z" fill="#F0F0F0"/>
<path d="M53.9994 78.6424C77.1292 78.6424 95.8796 77.568 95.8796 76.2426C95.8796 74.9172 77.1292 73.8428 53.9994 73.8428C30.8696 73.8428 12.1191 74.9172 12.1191 76.2426C12.1191 77.568 30.8696 78.6424 53.9994 78.6424Z" fill="#F5F5F5"/>
<path d="M75.2004 12.4558C74.7403 12.0043 73.8547 10.2934 74.7036 9.48785C75.5525 8.68225 76.3085 9.41365 76.3668 9.80585C76.4251 10.198 76.2696 13.5031 75.2004 12.4558Z" fill="#263238"/>
<path d="M75.0065 73.9977L73.0776 74.0147L72.5527 69.639L74.4795 69.6221L75.0065 73.9977Z" fill="#FF8B7B"/>
<path d="M73.075 73.7964L75.1789 73.7773C75.2177 73.7779 75.2553 73.7905 75.2863 73.8134C75.3174 73.8362 75.3403 73.8681 75.3517 73.9045L75.8614 75.5815C75.875 75.6205 75.8787 75.6622 75.8724 75.7029C75.8661 75.7437 75.8498 75.7823 75.825 75.8156C75.8002 75.8489 75.7676 75.8758 75.73 75.8941C75.6923 75.9124 75.6507 75.9215 75.6087 75.9207C74.8506 75.9207 73.749 75.8804 72.8007 75.8889C71.6862 75.8889 71.1894 75.9652 69.8804 75.9779C69.0898 75.9779 68.8004 75.202 69.1352 75.1299C70.6191 74.7928 71.3859 74.7483 72.6279 73.9491C72.7586 73.8565 72.914 73.8035 73.075 73.7964Z" fill="#263238"/>
<path opacity="0.2" d="M72.5527 69.641L72.8249 71.8967L74.7516 71.8797L74.4816 69.624L72.5527 69.641Z" fill="black"/>
<path d="M72.2783 74.1329C72.4863 74.1292 72.6933 74.1044 72.896 74.0587C72.9056 74.0573 72.9145 74.0528 72.9211 74.0458C72.9278 74.0389 72.9319 74.03 72.9327 74.0205C72.9336 74.0114 72.9316 74.0022 72.927 73.9942C72.9223 73.9863 72.9153 73.9799 72.9068 73.976C72.8161 73.9315 72.0061 73.552 71.7836 73.6856C71.7631 73.6984 71.7463 73.7164 71.7349 73.7376C71.7235 73.7587 71.718 73.7825 71.7188 73.8064C71.7183 73.8472 71.7274 73.8875 71.7454 73.9243C71.7634 73.9611 71.7898 73.9933 71.8225 74.0184C71.9576 74.1044 72.1177 74.1447 72.2783 74.1329ZM72.7405 73.9972C72.3236 74.0693 72.0061 74.0544 71.8765 73.9527C71.8541 73.9355 71.8362 73.9132 71.8246 73.8877C71.8129 73.8622 71.8077 73.8343 71.8096 73.8064C71.8083 73.7977 71.8097 73.7889 71.8135 73.7809C71.8173 73.773 71.8235 73.7664 71.8311 73.7619C71.9521 73.6898 72.41 73.8594 72.7405 73.9972Z" fill="#80BF88"/>
<path d="M72.8876 74.0721C72.8979 74.0714 72.9076 74.0677 72.9157 74.0615C72.9222 74.0567 72.9272 74.0501 72.9299 74.0426C72.9326 74.035 72.9329 74.0269 72.9308 74.0191C72.9308 73.9852 72.7796 73.1711 72.3217 73.222C72.2008 73.2347 72.1662 73.2962 72.1597 73.3429C72.1273 73.5549 72.622 73.9661 72.8682 74.0679L72.8876 74.0721ZM72.3606 73.3089C72.6371 73.3089 72.7753 73.752 72.8228 73.9449C72.568 73.805 72.231 73.4828 72.2504 73.3556C72.2504 73.3556 72.2504 73.3195 72.3325 73.3111L72.3606 73.3089Z" fill="#80BF88"/>
<path d="M73.6438 22.0104L73.4451 22.2224L73.2593 22.4026C73.1362 22.5213 73.0088 22.6337 72.8813 22.7439C72.6279 22.9672 72.3687 23.1792 72.1037 23.3799C71.569 23.797 71.0061 24.1781 70.4189 24.5205C70.123 24.6922 69.8184 24.8554 69.5096 25.0102C69.2007 25.165 68.8745 25.2985 68.5462 25.4342C67.8729 25.6978 67.1715 25.8863 66.4553 25.996L66.2955 26.0193C66.1916 26.0324 66.087 26.0388 65.9823 26.0384C65.7417 26.0362 65.5037 25.9902 65.2803 25.9027C65.0587 25.8154 64.8558 25.6881 64.682 25.5275C64.5435 25.3979 64.423 25.2511 64.3234 25.0908C64.1855 24.8581 64.0815 24.6076 64.0145 24.3466C63.9621 24.1445 63.9239 23.9391 63.9 23.7318C63.8607 23.3735 63.8499 23.0127 63.8676 22.6528C63.8828 22.3093 63.9108 21.9786 63.9497 21.6542C64.0318 21.0034 64.1484 20.3822 64.291 19.7462C64.4336 19.1102 64.5956 18.523 64.8051 17.9082L66.2242 18.1838C66.1724 19.3752 66.114 20.5964 66.1529 21.7496C66.16 22.2852 66.2178 22.8189 66.3257 23.3439C66.347 23.4409 66.3767 23.5359 66.4143 23.628C66.4445 23.7 66.4812 23.7446 66.4791 23.7255C66.4665 23.6932 66.4466 23.6642 66.4208 23.6407C66.362 23.5849 66.2931 23.5403 66.2177 23.5092C66.1401 23.4772 66.0576 23.4579 65.9736 23.452C65.9348 23.452 65.9175 23.452 65.8937 23.452H65.9175L65.9628 23.4393C66.4745 23.3103 66.9722 23.1328 67.4489 22.9093C67.9477 22.673 68.4304 22.4054 68.894 22.1079C69.3627 21.8026 69.8249 21.4719 70.2699 21.1221C70.4859 20.9483 70.7127 20.766 70.9179 20.5815L71.2332 20.3017L71.3844 20.1639L71.5162 20.0409L73.6438 22.0104Z" fill="#FF8B7B"/>
<path d="M74.787 21.2623C74.7135 19.2631 73.0417 18.5677 70.9465 19.9309C70.0228 20.5057 69.1336 21.1321 68.2832 21.8071L69.6375 26.0768C69.6375 26.0768 72.2295 25.2691 73.7286 23.6833C74.7373 22.6063 74.8129 21.9428 74.787 21.2623Z" fill="#263238"/>
<path opacity="0.2" d="M72.2364 22.1152C72.2364 22.1152 70.9858 23.8706 70.543 25.7362C71.1578 25.4789 71.7502 25.1726 72.3142 24.8204L72.2364 22.1152Z" fill="black"/>
<path d="M66.1529 18.8186L66.8786 17.2095L64.8245 16.6201C64.8245 16.6201 64.4724 17.3897 64.6733 18.7104L66.1529 18.8186Z" fill="#FF8B7B"/>
<path d="M67.0965 15.3223L65.3102 15.5321L64.8242 16.6197L66.8784 17.2091L67.0965 15.3223Z" fill="#FF8B7B"/>
<path d="M72.2479 35.7545C72.2479 35.7545 70.9217 46.664 70.7748 52.5025C70.6236 58.5678 71.8353 70.8023 71.8353 70.8023L75.3151 70.7302C75.3151 70.7302 75.7341 57.6329 76.2396 51.6311C76.7882 45.0888 78.1706 35.6357 78.1706 35.6357L72.2479 35.7545Z" fill="#80BF88"/>
<path opacity="0.6" d="M72.2479 35.7545C72.2479 35.7545 70.9217 46.664 70.7748 52.5025C70.6236 58.5678 71.8353 70.8023 71.8353 70.8023L75.3151 70.7302C75.3151 70.7302 75.7341 57.6329 76.2396 51.6311C76.7882 45.0888 78.1706 35.6357 78.1706 35.6357L72.2479 35.7545Z" fill="white"/>
<path opacity="0.2" d="M76.3925 38.8434C74.8373 42.2078 75.2542 49.7232 76.1377 52.9456C76.1701 52.4771 76.2046 52.034 76.2392 51.6249C76.5999 47.3128 77.3192 41.7393 77.7749 38.4385C77.3516 37.8364 76.8785 37.7898 76.3925 38.8434Z" fill="black"/>
<path d="M75.743 70.8768L71.652 70.9574L71.3496 69.6239L75.6934 69.6133L75.743 70.8768Z" fill="#80BF88"/>
<path d="M83.602 73.9977L81.6753 74.0147L81.1504 69.639L83.0771 69.6221L83.602 73.9977Z" fill="#FF8B7B"/>
<path d="M81.6705 73.7964L83.7765 73.7773C83.8153 73.7782 83.8527 73.791 83.8837 73.8138C83.9147 73.8366 83.9376 73.8683 83.9493 73.9045L84.4591 75.5815C84.4721 75.6205 84.4755 75.662 84.4689 75.7026C84.4624 75.7431 84.4461 75.7816 84.4214 75.8147C84.3967 75.8479 84.3643 75.8748 84.3269 75.8932C84.2895 75.9116 84.2482 75.921 84.2064 75.9207C83.4461 75.9207 82.3466 75.8804 81.3984 75.8889C80.2838 75.8889 79.7849 75.9652 78.4781 75.9779C77.6875 75.9779 77.398 75.202 77.7328 75.1299C79.2146 74.7928 79.9814 74.7483 81.2256 73.9491C81.3555 73.8566 81.5102 73.8035 81.6705 73.7964Z" fill="#263238"/>
<path opacity="0.2" d="M81.1504 69.641L81.4204 71.8967L83.3493 71.8797L83.0793 69.624L81.1504 69.641Z" fill="black"/>
<path d="M80.876 74.1329C81.084 74.129 81.291 74.1041 81.4938 74.0587C81.5032 74.0572 81.5117 74.0526 81.518 74.0457C81.5243 74.0387 81.528 74.0298 81.5284 74.0205C81.5297 74.0116 81.5282 74.0024 81.5239 73.9944C81.5196 73.9864 81.5129 73.98 81.5046 73.976C81.4117 73.9315 80.6017 73.552 80.3814 73.6856C80.3605 73.6981 80.3435 73.716 80.3321 73.7372C80.3207 73.7585 80.3153 73.7824 80.3166 73.8064C80.3161 73.847 80.3251 73.8871 80.3426 73.9238C80.3602 73.9605 80.386 73.9929 80.4181 74.0184C80.5541 74.1042 80.7148 74.1443 80.876 74.1329ZM81.3383 73.9972C80.9214 74.0693 80.6039 74.0544 80.4743 73.9527C80.452 73.9352 80.4341 73.9129 80.4221 73.8876C80.4101 73.8622 80.4043 73.8344 80.4052 73.8064C80.4039 73.7977 80.4053 73.7889 80.4091 73.7809C80.4129 73.773 80.4191 73.7664 80.4268 73.7619C80.5477 73.6898 81.0013 73.8594 81.3383 73.9972Z" fill="#80BF88"/>
<path d="M81.4832 74.0721C81.4898 74.0719 81.4963 74.0703 81.5023 74.0674C81.5083 74.0646 81.5136 74.0605 81.5178 74.0555C81.5221 74.0505 81.5253 74.0447 81.5271 74.0384C81.5289 74.0322 81.5294 74.0256 81.5285 74.0191C81.5285 73.9852 81.3773 73.1711 80.9194 73.222C80.7984 73.2347 80.7639 73.2962 80.7552 73.3429C80.725 73.5549 81.2196 73.9661 81.4659 74.0679L81.4832 74.0721ZM80.9583 73.3089C81.2326 73.3089 81.373 73.752 81.4205 73.9449C81.1656 73.805 80.8265 73.4828 80.846 73.3556C80.846 73.3556 80.846 73.3195 80.928 73.3111L80.9583 73.3089Z" fill="#80BF88"/>
<path d="M75.6445 35.6832C75.6445 35.6832 76.6057 47.4217 77.3077 53.2135C78.0356 59.2385 80.4332 70.7968 80.4332 70.7968L83.913 70.7247C83.913 70.7247 82.9583 57.6019 82.5889 51.5896C82.185 45.0282 82.0813 35.5391 82.0813 35.5391L75.6445 35.6832Z" fill="#80BF88"/>
<path opacity="0.6" d="M75.6445 35.6832C75.6445 35.6832 76.6057 47.4217 77.3077 53.2135C78.0356 59.2385 80.4332 70.7968 80.4332 70.7968L83.913 70.7247C83.913 70.7247 82.9583 57.6019 82.5889 51.5896C82.185 45.0282 82.0813 35.5391 82.0813 35.5391L75.6445 35.6832Z" fill="white"/>
<path d="M84.3407 70.8768L80.2475 70.9574L79.9473 69.6239L84.291 69.6133L84.3407 70.8768Z" fill="#80BF88"/>
<path d="M72.0086 19.4073C72.0086 19.4073 70.5851 24.5928 72.2483 35.7546C75.3544 35.6889 80.5708 35.5701 82.0806 35.5426C82.1195 33.9886 80.951 26.3693 82.3183 19.0235C81.3346 18.8568 80.3397 18.7619 79.3418 18.7395C77.881 18.6871 76.4184 18.7183 74.9613 18.8327C73.9633 18.9486 72.9761 19.1407 72.0086 19.4073Z" fill="#263238"/>
<path opacity="0.2" d="M81.7225 24.2514L80.1133 22.9434C80.2191 23.9652 81.1609 26.4689 81.6577 27.7367C81.649 26.6258 81.6598 25.4534 81.7225 24.2514Z" fill="black"/>
<path d="M75.966 22.4138L74.2099 25.8249C74.1728 25.8965 74.1599 25.9778 74.1729 26.0572C74.1859 26.1365 74.2242 26.2097 74.2823 26.2663C74.3405 26.3229 74.4154 26.3599 74.4963 26.372C74.5772 26.3841 74.66 26.3707 74.7327 26.3337L75.8796 25.7146C75.942 25.6817 76.0125 25.6667 76.0831 25.6712C76.1538 25.6757 76.2217 25.6995 76.2792 25.7401L77.4089 26.5393C77.4738 26.5857 77.5521 26.6103 77.6324 26.6095C77.7126 26.6087 77.7904 26.5826 77.8544 26.5351C77.9183 26.4875 77.965 26.421 77.9875 26.3455C78.0099 26.2699 78.007 26.1892 77.9791 26.1153L76.6594 22.4732C76.6364 22.4039 76.5932 22.3428 76.5352 22.2974C76.4771 22.2521 76.4067 22.2245 76.3327 22.2182C76.2588 22.2119 76.1846 22.227 76.1194 22.2618C76.0542 22.2966 76.0008 22.3495 75.966 22.4138Z" fill="white"/>
<path d="M78.8011 13.8975C78.5548 15.2882 78.3345 17.8279 79.3411 18.7289C79.3411 18.7289 79.0473 19.9882 76.3668 20.4249C74.5653 19.8568 74.9606 18.8307 74.9606 18.8307C76.5244 18.4279 76.4575 17.2852 76.1616 16.2167L78.8011 13.8975Z" fill="#FF8B7B"/>
<path opacity="0.2" d="M77.7259 14.8408L76.1621 16.2061C76.2349 16.455 76.2855 16.7097 76.3133 16.9672C76.9138 16.8697 77.7238 16.204 77.7735 15.5871C77.8041 15.3376 77.788 15.0846 77.7259 14.8408Z" fill="black"/>
<path d="M79.6591 12.1873C79.1385 13.9935 78.929 15.0768 77.7799 15.8167C76.0519 16.9276 73.9329 15.6047 73.8919 13.6776C73.853 11.9477 74.7084 9.28287 76.6999 8.94367C77.1373 8.8675 77.5873 8.90222 78.0073 9.04454C78.4272 9.18685 78.8032 9.43205 79.0995 9.75689C79.3959 10.0817 79.6028 10.4755 79.7008 10.9008C79.7987 11.3261 79.7843 11.7689 79.6591 12.1873Z" fill="#FF8B7B"/>
<path d="M78.5521 13.2935C78.3101 12.7168 78.1352 10.8173 79.1439 10.3509C80.1526 9.88451 81.2002 11.023 80.9345 11.5614C80.5263 12.3967 79.1137 14.6291 78.5521 13.2935Z" fill="#263238"/>
<path d="M79.1533 11.0206C78.9049 10.3846 75.9435 10.0242 75.5288 9.33943C75.0363 8.52535 77.0559 8.42783 78.4448 8.84123C79.6652 9.20587 80.4795 9.55779 80.337 10.4482C80.257 10.9527 79.1533 11.0206 79.1533 11.0206Z" fill="#263238"/>
<path d="M79.7969 10.3658C79.7969 10.3658 80.4449 10.5396 80.7991 10.0732C80.6868 10.5354 80.136 11.0018 79.7969 10.3658Z" fill="#263238"/>
<path d="M76.8326 8.40473C75.9427 7.72633 74.731 8.52345 74.8454 9.40749C74.9599 10.2915 77.9602 10.9636 77.9602 10.9636C77.9602 10.9636 78.0142 9.30573 76.8326 8.40473Z" fill="#263238"/>
<path d="M74.8477 9.41195C74.9837 10.031 75.4438 10.5165 76.3748 10.8769C75.8359 10.4858 75.4277 9.94641 75.2019 9.32715L74.8477 9.41195Z" fill="#263238"/>
<path d="M76.7156 12.0953C76.6832 12.2458 76.5774 12.3497 76.478 12.3285C76.3787 12.3073 76.3247 12.1674 76.3571 12.019C76.3895 11.8706 76.4975 11.7667 76.5968 11.7879C76.6962 11.8091 76.7502 11.9554 76.7156 12.0953Z" fill="#263238"/>
<path d="M75.001 11.7307C74.9664 11.8791 74.8606 11.983 74.7612 11.9618C74.6619 11.9406 74.6079 11.8028 74.6403 11.6544C74.6727 11.506 74.7807 11.4021 74.88 11.4212C74.9794 11.4403 75.0334 11.5823 75.001 11.7307Z" fill="#263238"/>
<path d="M75.5302 11.9219C75.2482 12.3389 74.9088 12.7156 74.5215 13.0412C74.7375 13.3444 75.2192 13.3296 75.2192 13.3296L75.5302 11.9219Z" fill="#FF5652"/>
<path d="M75.5677 13.8363C75.7705 13.8857 75.9825 13.8863 76.1856 13.8379C76.3887 13.7896 76.5769 13.6937 76.7341 13.5585C76.7384 13.5544 76.7418 13.5495 76.7442 13.544C76.7465 13.5385 76.7477 13.5327 76.7477 13.5267C76.7477 13.5208 76.7465 13.515 76.7442 13.5095C76.7418 13.504 76.7384 13.4991 76.7341 13.4949C76.7253 13.4869 76.7137 13.4824 76.7017 13.4824C76.6897 13.4824 76.6781 13.4869 76.6693 13.4949C76.5218 13.6168 76.3473 13.703 76.1598 13.7468C75.9723 13.7907 75.7769 13.7908 75.5893 13.7472C75.5773 13.7447 75.5647 13.747 75.5544 13.7535C75.5441 13.7601 75.5368 13.7704 75.5342 13.7822C75.5317 13.794 75.534 13.8063 75.5406 13.8165C75.5473 13.8266 75.5578 13.8337 75.5699 13.8363H75.5677Z" fill="#263238"/>
<path d="M77.3522 11.6636C77.3688 11.6669 77.386 11.6656 77.4019 11.66C77.4178 11.6544 77.4318 11.6446 77.4425 11.6318C77.4532 11.6189 77.46 11.6034 77.4624 11.587C77.4648 11.5706 77.4625 11.5538 77.4559 11.5385C77.3976 11.408 77.3083 11.2929 77.1957 11.203C77.083 11.113 76.95 11.0507 76.8079 11.0213C76.7839 11.0182 76.7596 11.0245 76.7403 11.0387C76.7209 11.053 76.708 11.0741 76.7042 11.0976C76.7024 11.1091 76.7029 11.1209 76.7057 11.1323C76.7085 11.1437 76.7135 11.1544 76.7205 11.1638C76.7276 11.1733 76.7364 11.1813 76.7466 11.1874C76.7568 11.1935 76.768 11.1975 76.7798 11.1993C76.8919 11.2235 76.9964 11.2737 77.0847 11.3456C77.1731 11.4175 77.2425 11.5091 77.2874 11.6127C77.2935 11.6256 77.3025 11.6369 77.3137 11.6457C77.325 11.6545 77.3381 11.6607 77.3522 11.6636Z" fill="#263238"/>
<path d="M74.3748 10.9908C74.3917 10.9954 74.4097 10.9948 74.4263 10.9891C74.4429 10.9834 74.4573 10.9729 74.4676 10.959C74.536 10.8689 74.625 10.7959 74.7275 10.7458C74.8299 10.6957 74.9429 10.67 75.0573 10.6707C75.0814 10.6729 75.1054 10.6657 75.124 10.6506C75.1426 10.6355 75.1544 10.6137 75.1567 10.5901C75.159 10.5665 75.1516 10.5429 75.1362 10.5247C75.1208 10.5064 75.0987 10.4948 75.0746 10.4926C74.9297 10.4884 74.7859 10.5185 74.6554 10.5805C74.5249 10.6425 74.4116 10.7345 74.3251 10.8487C74.3174 10.8578 74.3117 10.8683 74.3083 10.8796C74.3049 10.8909 74.3039 10.9028 74.3053 10.9145C74.3067 10.9262 74.3105 10.9375 74.3165 10.9477C74.3225 10.9579 74.3306 10.9668 74.3402 10.9738C74.35 10.9823 74.3619 10.9882 74.3748 10.9908Z" fill="#263238"/>
<path d="M82.7891 20.4697C83.1822 21.1439 83.5106 21.7968 83.8518 22.4689C84.1931 23.1409 84.4998 23.8172 84.7914 24.5083C85.083 25.1994 85.366 25.9012 85.6122 26.6283C85.8683 27.3535 86.0846 28.0916 86.2602 28.8395L86.392 29.4182C86.4496 29.69 86.4743 29.9676 86.4654 30.245C86.4471 30.7606 86.3306 31.2683 86.122 31.7418C85.7552 32.5396 85.2336 33.2597 84.5862 33.8618C84.0088 34.409 83.3796 34.9009 82.707 35.3309C82.3809 35.5429 82.0439 35.738 81.7048 35.9245C81.3657 36.1111 81.0287 36.2828 80.6507 36.446L79.9336 35.2143C80.195 35.0023 80.4822 34.7903 80.7501 34.5614C81.0179 34.3324 81.2793 34.0992 81.5385 33.866C82.039 33.4103 82.5033 32.9177 82.9274 32.3926C83.3045 31.9423 83.597 31.4297 83.7914 30.8789C83.8582 30.6737 83.8846 30.4578 83.8691 30.2429C83.8628 30.1565 83.8461 30.0711 83.8194 29.9885L83.6726 29.5136C83.2361 28.1964 82.7167 26.9071 82.1174 25.6531C81.8214 25.0171 81.5061 24.3811 81.1907 23.7451C80.8754 23.1091 80.5427 22.4731 80.2209 21.8689L82.7891 20.4697Z" fill="#FF8B7B"/>
<path d="M82.3921 19.0343C84.1935 19.4159 85.4463 24.029 85.4463 24.029L82.2258 26.8973C81.2018 25.7793 80.3964 24.4857 79.8498 23.0813C78.9966 20.7727 80.4654 18.623 82.3921 19.0343Z" fill="#263238"/>
<path d="M80.3253 34.9961L78.2539 35.0173L79.5499 37.0673C79.5499 37.0673 81.0252 36.7091 81.1569 35.9819L80.3253 34.9961Z" fill="#FF8B7B"/>
<path d="M76.9629 36.2281L78.1055 37.8732L79.5376 37.0676L78.2524 35.0176L76.9629 36.2281Z" fill="#FF8B7B"/>
<path d="M80.2256 13.8406C79.9955 14.2562 79.6073 14.5656 79.1456 14.7013C78.5322 14.8773 78.219 14.3409 78.3831 13.7706C78.5322 13.2576 79.0311 12.5474 79.6446 12.6216C80.258 12.6958 80.4999 13.3297 80.2256 13.8406Z" fill="#FF8B7B"/>
<path d="M61.8635 48.918L59.5605 49.082L59.5762 49.2935L61.8792 49.1295L61.8635 48.918Z" fill="#80BF88"/>
<path d="M63.9338 48.771L62.8027 48.8516L62.8184 49.063L63.9494 48.9825L63.9338 48.771Z" fill="#80BF88"/>
<path d="M73.8711 23.8855L35.7341 26.5842C34.9404 26.645 34.2031 27.0106 33.6822 27.6015C33.1614 28.1925 32.899 28.9613 32.952 29.7409L34.248 47.3836C34.3094 48.1638 34.6822 48.8886 35.2854 49.4004C35.8885 49.9122 36.6732 50.1694 37.4686 50.1162L39.6286 49.9636C39.7855 49.9525 39.9405 50.003 40.0596 50.1039C40.1786 50.2049 40.252 50.3481 40.2636 50.5021L40.5056 53.7711C40.5095 53.8344 40.5326 53.8951 40.572 53.9454C40.6114 53.9957 40.6652 54.0333 40.7265 54.0534C40.7878 54.0734 40.8538 54.0751 40.9161 54.058C40.9783 54.0409 41.0339 54.006 41.0758 53.9577L44.6916 49.8555C44.8437 49.6837 45.0587 49.5777 45.29 49.5608L75.5991 47.4175C76.3932 47.3572 77.131 46.9919 77.6523 46.4009C78.1736 45.8098 78.4363 45.0408 78.3833 44.2608L77.0873 26.6182C77.0259 25.8388 76.6537 25.1146 76.0515 24.6029C75.4493 24.0913 74.6658 23.8335 73.8711 23.8855Z" fill="#80BF88"/>
<path d="M41.3047 34.6822L43.3653 34.5359L43.5338 36.8255L45.7845 36.6665L45.616 34.3769L47.6853 34.2285L48.167 40.7708L46.0977 40.9171L45.9033 38.2714L43.6526 38.4325L43.847 41.0782L41.7885 41.2245L41.3047 34.6822Z" fill="white"/>
<path opacity="0.2" d="M35.7341 26.584C34.9404 26.6448 34.2031 27.0103 33.6822 27.6013C33.1614 28.1923 32.899 28.961 32.952 29.7407L34.248 47.3833C34.3094 48.1635 34.6822 48.8884 35.2854 49.4002C35.8885 49.9119 36.6732 50.1692 37.4686 50.116L37.7861 50.0927C38.3137 50.0553 38.8139 49.848 39.2092 49.503C39.6044 49.158 39.8726 48.6946 39.972 48.1847L44.3158 25.9756L35.7341 26.584Z" fill="black"/>
<path d="M54.6325 38.3841L50.9216 38.6469C50.9501 38.8829 51.051 39.1047 51.2111 39.2829C51.3029 39.3777 51.4157 39.4504 51.5409 39.4953C51.666 39.5401 51.8001 39.556 51.9325 39.5416C52.1144 39.5288 52.2899 39.4704 52.4423 39.372C52.5615 39.2834 52.6632 39.1742 52.7425 39.0497L54.5785 39.0858C54.3787 39.5301 54.0544 39.9095 53.6432 40.1797C53.2659 40.4143 52.7087 40.5557 51.9714 40.6037C51.4559 40.6626 50.9336 40.6083 50.4421 40.4447C50.0481 40.2824 49.71 40.0123 49.4679 39.6667C49.1905 39.2732 49.0311 38.8112 49.0079 38.3332C48.9693 38.0012 49.0021 37.665 49.104 37.3463C49.2059 37.0275 49.3748 36.7332 49.5997 36.4824C50.049 35.9906 50.697 35.7143 51.5437 35.6535C52.1043 35.5881 52.6726 35.6535 53.2026 35.8443C53.6084 36.0145 53.9503 36.3041 54.1811 36.6732C54.4453 37.1317 54.5935 37.6457 54.6131 38.1721L54.6325 38.3841ZM52.6885 37.6463C52.6622 37.3706 52.5411 37.1119 52.3451 36.9128C52.2463 36.8382 52.133 36.7843 52.0122 36.7545C51.8913 36.7247 51.7656 36.7196 51.6426 36.7394C51.5197 36.7593 51.4022 36.8038 51.2975 36.8701C51.1928 36.9364 51.1031 37.0231 51.0339 37.1248C50.9186 37.3242 50.8604 37.5506 50.8655 37.7799L52.6885 37.6463Z" fill="white"/>
<path d="M55.2051 33.6969L57.0605 33.5654L57.5422 40.1056L55.6868 40.2371L55.2051 33.6969Z" fill="white"/>
<path d="M58.3047 33.4762L60.1601 33.3447L60.6418 39.8849L58.7885 40.0164L58.3047 33.4762Z" fill="white"/>
<path d="M61.4231 37.4617C61.388 37.1299 61.4245 36.7946 61.5302 36.4776C61.6359 36.1605 61.8084 35.8689 62.0365 35.6216C62.4988 35.117 63.1532 34.8343 64 34.7736C64.9648 34.7057 65.715 34.929 66.2507 35.4435C66.6956 35.904 66.9527 36.5089 66.973 37.1433C66.9933 37.7776 66.7754 38.3972 66.3608 38.8843C65.9029 39.3846 65.2391 39.6672 64.3693 39.7323C63.6937 39.8118 63.0111 39.6541 62.4426 39.2871C62.1402 39.0811 61.8907 38.809 61.7138 38.4922C61.5369 38.1755 61.4374 37.8227 61.4231 37.4617ZM63.2785 37.3261C63.2751 37.6607 63.3921 37.9858 63.609 38.244C63.6965 38.3319 63.8024 38.4001 63.9194 38.4439C64.0364 38.4876 64.1617 38.5059 64.2866 38.4974C64.4115 38.489 64.5331 38.454 64.6428 38.3948C64.7526 38.3357 64.8479 38.2539 64.9223 38.155C65.0968 37.8599 65.1624 37.5147 65.108 37.1777C65.1102 36.8497 64.9947 36.5315 64.7819 36.2788C64.6987 36.1892 64.5956 36.1197 64.4806 36.0756C64.3656 36.0314 64.2418 36.0139 64.1188 36.0244C63.9905 36.0302 63.8653 36.065 63.7529 36.1261C63.6405 36.1871 63.544 36.2727 63.4708 36.3763C63.2967 36.6615 63.2316 36.9981 63.2872 37.3261H63.2785Z" fill="white"/>
<path d="M67.5566 32.8196L69.533 32.6797L69.6432 34.1637L69.4812 37.1847L68.2586 37.2716L67.6646 34.3036L67.5566 32.8196ZM67.9886 37.755L69.8333 37.6235L69.9521 39.2262L68.1053 39.3556L67.9886 37.755Z" fill="white"/>
<path d="M35.2077 20.775C35.198 21.0853 35.2146 21.3959 35.2574 21.7035C33.3001 22.3451 31.2127 22.5074 29.177 22.1763C29.2747 21.8137 29.334 21.4421 29.3541 21.0675C29.286 21.4447 29.1523 21.8076 28.9588 22.1403C28.5743 22.0682 28.3583 22.0067 28.3583 22.0067C28.3583 22.0067 28.7514 19.9206 28.043 18.4027C27.3345 16.8848 27.6887 16.0368 28.2244 15.7972C29.218 12.7995 32.9526 13.2723 34.2162 14.4892C35.819 16.0325 35.8276 20.3807 36.1127 21.3749C35.8773 21.4746 35.6462 21.5657 35.415 21.6463C35.2993 21.3685 35.2293 21.0744 35.2077 20.775Z" fill="#263238"/>
<path d="M36.752 25.4414L36.9464 26.0456C37.0177 26.2576 37.089 26.4696 37.1624 26.671C37.3072 27.095 37.4584 27.519 37.6204 27.926C37.7824 28.3331 37.9379 28.7613 38.1064 29.1768L38.3569 29.8128L38.4196 29.9697L38.4347 30.0058C38.408 29.9828 38.3772 29.9649 38.344 29.9528C38.2964 29.9358 38.277 29.9528 38.3072 29.9528C38.3593 29.9526 38.4109 29.9447 38.4606 29.9294C38.6295 29.8769 38.7918 29.8058 38.9444 29.7174C39.3128 29.5068 39.6651 29.2701 39.9985 29.0094C40.3484 28.7422 40.6919 28.456 41.0288 28.1614C41.3658 27.8667 41.7049 27.5593 42.0311 27.2582L42.6942 27.8094C42.4177 28.1995 42.1261 28.5557 41.8302 28.9182C41.5343 29.2807 41.2016 29.6199 40.8604 29.957C40.5091 30.3089 40.1267 30.6296 39.7177 30.9152C39.4837 31.0761 39.2324 31.2112 38.9682 31.318C38.8005 31.384 38.6248 31.4282 38.4455 31.4495C38.2021 31.4792 37.9549 31.4464 37.7284 31.3541C37.4814 31.2508 37.271 31.0782 37.1236 30.858C37.0912 30.8092 37.0609 30.7605 37.0372 30.716L36.9788 30.6015L36.9011 30.4467C36.7996 30.2347 36.6851 30.0227 36.5965 29.8234C36.4 29.3994 36.2034 28.9754 36.0241 28.5514C35.8448 28.1274 35.6699 27.6907 35.5036 27.254C35.4258 27.042 35.348 26.8109 35.2746 26.5883C35.2012 26.3657 35.1299 26.1474 35.0586 25.8866L36.752 25.4414Z" fill="#FFC3BD"/>
<path d="M36.241 23.5586C36.9862 23.7451 37.5067 26.7513 37.5067 26.7513L35.4547 28.1208C35.4547 28.1208 33.4891 25.0871 34.0615 24.2836C34.6577 23.4483 35.1545 23.2872 36.241 23.5586Z" fill="#80BF88"/>
<path d="M36.241 23.5586C36.9862 23.7451 37.5067 26.7513 37.5067 26.7513L35.4547 28.1208C35.4547 28.1208 33.4891 25.0871 34.0615 24.2836C34.6577 23.4483 35.1545 23.2872 36.241 23.5586Z" fill="#80BF88"/>
<path opacity="0.4" d="M36.241 23.5586C36.9862 23.7451 37.5067 26.7513 37.5067 26.7513L35.4547 28.1208C35.4547 28.1208 33.4891 25.0871 34.0615 24.2836C34.6577 23.4483 35.1545 23.2872 36.241 23.5586Z" fill="white"/>
<path opacity="0.3" d="M36.1728 24.2305L36.7452 27.26L35.5918 28.0274L36.1728 24.2305Z" fill="black"/>
<path d="M41.9961 27.3296L42.6808 25.71L43.5254 27.3296C43.5254 27.3296 42.9767 28.1352 42.2531 27.9381L41.9961 27.3296Z" fill="#FFC3BD"/>
<path d="M43.4357 25.543L44.52 25.9712L43.5264 27.3301L42.6797 25.7105L43.4357 25.543Z" fill="#FFC3BD"/>
<path d="M32.2109 74.167H34.0189L34.1398 70.0605H32.3319L32.2109 74.167Z" fill="#FFC3BD"/>
<path d="M20.0898 68.8773L21.7509 69.5727L23.926 66.0196L22.2628 65.3242L20.0898 68.8773Z" fill="#FFC3BD"/>
<path d="M22.0707 69.3319L20.3427 68.2888C20.3131 68.2702 20.2776 68.2629 20.2429 68.2684C20.2083 68.2739 20.1769 68.2917 20.1548 68.3185L19.1158 69.5418C19.09 69.5738 19.0714 69.6108 19.0613 69.6505C19.0513 69.6901 19.05 69.7314 19.0576 69.7716C19.0652 69.8117 19.0814 69.8498 19.1052 69.8833C19.1291 69.9168 19.1599 69.9449 19.1957 69.9658C19.8048 70.3198 20.1159 70.4597 20.8762 70.9176C21.3449 71.2017 21.9972 71.6596 22.6431 72.0497C23.2889 72.4398 23.7231 71.8377 23.4833 71.6151C22.4357 70.6336 22.466 70.1671 22.2694 69.5863C22.2367 69.4807 22.1661 69.3903 22.0707 69.3319Z" fill="#263238"/>
<path d="M34.0806 73.9619H32.0523C32.0174 73.9615 31.9835 73.9736 31.9569 73.9958C31.9303 74.018 31.9128 74.0489 31.9076 74.0828L31.6765 75.66C31.6708 75.7005 31.6742 75.7417 31.6864 75.7807C31.6985 75.8198 31.7192 75.8558 31.7469 75.8862C31.7747 75.9167 31.8088 75.9408 31.847 75.957C31.8852 75.9733 31.9265 75.9812 31.9681 75.9802C32.6766 75.9696 33.0178 75.9272 33.9121 75.9272C34.4607 75.9272 35.5969 75.9844 36.355 75.9844C37.1132 75.9844 37.1521 75.2488 36.8367 75.1809C35.4219 74.882 34.8646 74.4707 34.3873 74.0785C34.3028 74.0046 34.1938 73.9631 34.0806 73.9619Z" fill="#263238"/>
<path opacity="0.2" d="M34.1379 70.0625L34.0775 72.1783H32.2695L32.3322 70.0625H34.1379Z" fill="black"/>
<path opacity="0.2" d="M22.2636 65.3271L23.9247 66.0204L22.8036 67.8521L21.1426 67.1567L22.2636 65.3271Z" fill="black"/>
<path d="M36.2403 23.5585C36.2403 23.5585 37.1043 23.8553 35.3763 34.2581H28.0323C28.1554 31.3283 28.1598 29.522 26.7363 23.5076C27.7632 23.2993 28.8042 23.1647 29.851 23.1048C30.9606 23.0263 32.0744 23.0263 33.1839 23.1048C34.6182 23.232 36.2403 23.5585 36.2403 23.5585Z" fill="#80BF88"/>
<path opacity="0.4" d="M36.2403 23.5585C36.2403 23.5585 37.1043 23.8553 35.3763 34.2581H28.0323C28.1554 31.3283 28.1598 29.522 26.7363 23.5076C27.7632 23.2993 28.8042 23.1647 29.851 23.1048C30.9606 23.0263 32.0744 23.0263 33.1839 23.1048C34.6182 23.232 36.2403 23.5585 36.2403 23.5585Z" fill="white"/>
<path d="M29.8553 23.1023C30.9649 23.0258 32.0786 23.0258 33.1882 23.1023C33.3675 23.1192 33.5511 23.1383 33.7325 23.1595C33.808 23.2709 33.8565 23.3979 33.8741 23.5306C33.8917 23.6633 33.878 23.7981 33.834 23.9248C33.5986 24.4951 32.754 24.5608 32.1406 24.5608C29.8704 24.5608 29.4859 23.2591 29.4708 23.204L29.4492 23.1256L29.8553 23.1023Z" fill="white"/>
<path d="M30.1859 19.4229C30.4019 20.4829 30.6071 22.4036 29.8555 23.1053C29.8555 23.1053 30.1492 24.1653 32.1407 24.1653C34.331 24.1653 33.1883 23.1053 33.1883 23.1053C31.9917 22.8255 32.0241 21.9541 32.2315 21.1379L30.1859 19.4229Z" fill="#FFC3BD"/>
<path d="M30.4035 18.6738C30.1465 19.507 30.5029 21.4786 31.0321 22.2418C29.9888 21.6545 29.6367 19.8653 29.6367 19.8653L30.4035 18.6738Z" fill="#263238"/>
<path opacity="0.2" d="M31.0197 20.1221L32.2315 21.1354C32.1783 21.3254 32.1436 21.5199 32.1278 21.7163C31.6721 21.6506 31.0478 21.1587 30.996 20.6902C30.9691 20.501 30.9772 20.3085 31.0197 20.1221Z" fill="black"/>
<path d="M29.1966 17.5437C29.6157 19.2546 29.7539 19.9881 30.8037 20.7237C32.3826 21.8283 34.4325 20.9506 34.5426 19.1507C34.642 17.531 33.9422 15.0061 32.0954 14.616C31.6884 14.5278 31.2653 14.5432 30.8662 14.6606C30.467 14.778 30.105 14.9936 29.8146 15.2869C29.5242 15.5803 29.315 15.9415 29.2068 16.3365C29.0987 16.7315 29.0952 17.1471 29.1966 17.5437Z" fill="#FFC3BD"/>
<path d="M35.3786 34.2581C35.3786 34.2581 36.802 47.9152 36.6746 53.3212C36.5515 58.9434 34.452 71.7652 34.452 71.7652H32.0112C32.0112 71.7652 32.3978 59.2678 32.1818 53.7452C31.9464 47.7244 29.998 34.2539 29.998 34.2539L35.3786 34.2581Z" fill="#80BF88"/>
<path opacity="0.4" d="M35.3786 34.2581C35.3786 34.2581 36.802 47.9152 36.6746 53.3212C36.5515 58.9434 34.452 71.7652 34.452 71.7652H32.0112C32.0112 71.7652 32.3978 59.2678 32.1818 53.7452C31.9464 47.7244 29.998 34.2539 29.998 34.2539L35.3786 34.2581Z" fill="black"/>
<path d="M31.8077 71.8547H34.6719L34.8836 70.9579L31.6738 70.8477L31.8077 71.8547Z" fill="#80BF88"/>
<path opacity="0.2" d="M32.2141 37.6562C34.0156 41.2136 32.5749 47.7029 31.9377 50.1176C31.6115 46.4924 31.0607 42.0616 30.6309 38.8032C30.903 36.9715 31.3825 36.0154 32.2141 37.6562Z" fill="black"/>
<path d="M33.4414 34.2578C33.4414 34.2578 31.7782 48.4618 30.5233 53.0135C29.035 58.4258 23.3694 67.6415 23.3694 67.6415L21.1035 66.6959C21.1035 66.6959 24.6092 56.2316 25.7497 53.3802C28.1797 47.2958 26.0996 38.2286 28.0414 34.2578H33.4414Z" fill="#80BF88"/>
<path opacity="0.4" d="M33.4414 34.2578C33.4414 34.2578 31.7782 48.4618 30.5233 53.0135C29.035 58.4258 23.3694 67.6415 23.3694 67.6415L21.1035 66.6959C21.1035 66.6959 24.6092 56.2316 25.7497 53.3802C28.1797 47.2958 26.0996 38.2286 28.0414 34.2578H33.4414Z" fill="black"/>
<path d="M20.7891 66.7025L23.6014 67.877L24.2775 67.135L21.0331 65.6064L20.7891 66.7025Z" fill="#80BF88"/>
<path d="M31.9675 17.5679C31.9934 17.7078 32.0884 17.8096 32.1835 17.7926C32.2785 17.7757 32.3325 17.6485 32.3066 17.5086C32.2807 17.3686 32.1856 17.2669 32.0906 17.2817C31.9955 17.2966 31.9307 17.4259 31.9675 17.5679Z" fill="#263238"/>
<path d="M33.5786 17.2876C33.6023 17.4276 33.6995 17.5293 33.7946 17.5124C33.8896 17.4954 33.9458 17.3682 33.9199 17.2283C33.8939 17.0884 33.7989 16.9866 33.7039 17.0014C33.6088 17.0163 33.5527 17.1456 33.5786 17.2876Z" fill="#263238"/>
<path d="M33.6641 17.0184L33.9902 16.8594C33.9902 16.8594 33.8606 17.1541 33.6641 17.0184Z" fill="#263238"/>
<path d="M33.1934 17.6035C33.3788 17.9027 33.6056 18.1753 33.8673 18.4134C33.8032 18.477 33.7257 18.5263 33.6403 18.5578C33.555 18.5893 33.4636 18.6022 33.3726 18.5957L33.1934 17.6035Z" fill="#ED847E"/>
<path d="M32.7223 19.259C32.8041 19.2588 32.8858 19.2517 32.9663 19.2378C32.9725 19.2375 32.9786 19.236 32.9841 19.2332C32.9896 19.2305 32.9944 19.2267 32.9983 19.2219C33.0022 19.2172 33.0049 19.2117 33.0065 19.2059C33.008 19.2 33.0082 19.1939 33.0071 19.1879C33.006 19.1819 33.0037 19.1763 33.0001 19.1713C32.9966 19.1663 32.9921 19.1621 32.9868 19.159C32.9815 19.1559 32.9756 19.1539 32.9694 19.1533C32.9633 19.1526 32.9571 19.1532 32.9512 19.1551C32.7734 19.1899 32.5896 19.1828 32.4151 19.1346C32.2405 19.0863 32.08 18.9982 31.9468 18.8774C31.9387 18.8696 31.9279 18.8652 31.9166 18.8652C31.9053 18.8652 31.8944 18.8696 31.8863 18.8774C31.8821 18.8811 31.8788 18.8857 31.8765 18.8908C31.8742 18.8959 31.873 18.9015 31.873 18.907C31.873 18.9126 31.8742 18.9181 31.8765 18.9232C31.8788 18.9284 31.8821 18.9329 31.8863 18.9367C32.1118 19.1466 32.4116 19.2621 32.7223 19.259Z" fill="#263238"/>
<path d="M29.8078 16.5418C29.8551 16.9926 29.9272 17.4406 30.0238 17.8838C30.0238 17.8838 31.1038 16.5418 31.2831 15.8231C31.2403 16.1061 31.1566 16.3816 31.0347 16.6415C31.0347 16.6415 32.4884 16.3298 32.6309 15.3885C32.6285 15.8099 32.5807 16.2299 32.4884 16.6415C32.4884 16.6415 33.8751 16.1072 33.7477 15.2041C33.6202 14.301 31.4905 13.9512 30.5077 14.2565C29.5249 14.5617 28.5637 15.5518 28.8531 16.9128C29.1425 18.2739 29.6977 18.7848 29.6977 18.7848C29.6977 18.7848 29.2981 17.4131 29.8078 16.5418Z" fill="#263238"/>
<path d="M29.1209 18.8333C29.2542 19.1473 29.509 19.3966 29.8293 19.5265C30.2613 19.6961 30.5184 19.3336 30.4428 18.9138C30.3758 18.5343 30.0713 17.9916 29.6241 18.0001C29.5263 18.0044 29.4311 18.0325 29.3471 18.0819C29.2631 18.1313 29.1929 18.2005 29.143 18.2831C29.093 18.3658 29.0649 18.4594 29.061 18.5554C29.0571 18.6515 29.0777 18.747 29.1209 18.8333Z" fill="#FFC3BD"/>
<path d="M30.0683 15.8887C29.8523 16.7367 30.3015 18.6871 30.8675 19.4227C29.7875 18.8864 29.3555 17.114 29.3555 17.114L30.0683 15.8887Z" fill="#263238"/>
<path d="M31.3759 17.0837C31.387 17.0804 31.3973 17.075 31.4062 17.0677C31.4151 17.0604 31.4225 17.0515 31.4278 17.0413C31.4733 16.9457 31.5413 16.862 31.6261 16.7972C31.711 16.7323 31.8103 16.6881 31.9159 16.6682C31.9383 16.665 31.9585 16.6536 31.9726 16.6363C31.9866 16.619 31.9934 16.597 31.9915 16.5749C31.9905 16.5638 31.9871 16.5531 31.9817 16.5433C31.9763 16.5335 31.969 16.5249 31.9601 16.518C31.9512 16.511 31.941 16.5059 31.9301 16.503C31.9191 16.5 31.9077 16.4993 31.8965 16.5007C31.7625 16.5235 31.636 16.5776 31.5278 16.6584C31.4195 16.7392 31.3326 16.8444 31.2744 16.965C31.2671 16.9798 31.2642 16.9963 31.2663 17.0125C31.2683 17.0288 31.2751 17.0442 31.2858 17.0568C31.2966 17.0693 31.3108 17.0786 31.3268 17.0833C31.3428 17.0881 31.3599 17.0883 31.3759 17.0837Z" fill="#263238"/>
<path d="M34.1685 16.4273C34.1793 16.4277 34.1902 16.4259 34.2002 16.4219C34.2103 16.4178 34.2193 16.4117 34.2268 16.404C34.2426 16.3881 34.2515 16.3668 34.2515 16.3446C34.2515 16.3224 34.2426 16.3011 34.2268 16.2852C34.1347 16.1874 34.0204 16.1122 33.8932 16.0658C33.766 16.0194 33.6294 16.0031 33.4946 16.0181C33.4833 16.0202 33.4726 16.0244 33.463 16.0305C33.4535 16.0366 33.4452 16.0445 33.4388 16.0538C33.4324 16.0631 33.4279 16.0735 33.4256 16.0845C33.4233 16.0954 33.4232 16.1068 33.4254 16.1178C33.4301 16.1392 33.4431 16.158 33.4616 16.1703C33.4801 16.1825 33.5028 16.1873 33.5248 16.1835C33.6311 16.1718 33.7388 16.1849 33.839 16.2218C33.9392 16.2586 34.0291 16.3181 34.1015 16.3955C34.1096 16.4053 34.1197 16.4133 34.1313 16.4188C34.1429 16.4243 34.1556 16.4272 34.1685 16.4273Z" fill="#263238"/>
<path d="M27.6319 26.024C27.3317 26.9547 27.0444 27.932 26.8003 28.8945C26.5546 29.8447 26.3749 30.8101 26.2625 31.7841L26.2452 31.9622C26.2452 32.0194 26.2452 32.0321 26.2452 32.083C26.2476 32.183 26.2555 32.2828 26.2689 32.3819C26.2965 32.6141 26.3361 32.8448 26.3877 33.073C26.4893 33.5458 26.6037 34.0334 26.7506 34.5168C26.8975 35.0001 27.0228 35.492 27.1697 35.9796L27.6017 37.4424L26.8003 37.7667C26.3078 36.8424 25.8801 35.9011 25.4805 34.9302C25.2883 34.4426 25.1004 33.9507 24.9449 33.4313C24.8671 33.1727 24.7937 32.9077 24.7289 32.6194C24.6981 32.4667 24.6765 32.3124 24.6641 32.1572C24.6641 32.0788 24.6641 31.9622 24.6641 31.8922V31.6802C24.6824 31.14 24.7329 30.6013 24.8153 30.0669C24.8865 29.5369 24.9924 29.0196 25.1069 28.5044C25.3316 27.4727 25.6201 26.4553 25.9709 25.458L27.6319 26.024Z" fill="#FFC3BD"/>
<path d="M26.7409 23.5074C26.0065 23.7194 25.123 26.2104 25.123 26.2104L27.9742 28.2117C27.9742 28.2117 29.0154 26.1383 28.7065 25.2055C28.3846 24.2346 27.5811 23.2573 26.7409 23.5074Z" fill="#80BF88"/>
<path opacity="0.4" d="M26.7409 23.5074C26.0065 23.7194 25.123 26.2104 25.123 26.2104L27.9742 28.2117C27.9742 28.2117 29.0154 26.1383 28.7065 25.2055C28.3846 24.2346 27.5811 23.2573 26.7409 23.5074Z" fill="white"/>
<path d="M22.8009 70.0053C22.836 69.9932 22.868 69.9736 22.8945 69.9479C22.921 69.9223 22.9414 69.8912 22.9542 69.8569C22.9667 69.8348 22.9733 69.81 22.9733 69.7848C22.9733 69.7596 22.9667 69.7348 22.9542 69.7127C22.8246 69.5262 22.1702 69.541 22.0902 69.5431C22.082 69.5433 22.0739 69.5457 22.067 69.5502C22.0601 69.5547 22.0547 69.5611 22.0514 69.5686C22.0471 69.5753 22.0449 69.583 22.0449 69.5908C22.0449 69.5987 22.0471 69.6064 22.0514 69.6131C22.222 69.7806 22.5417 70.054 22.7663 70.0116L22.8009 70.0053ZM22.1939 69.6194C22.4553 69.6194 22.8052 69.6555 22.8743 69.7551C22.8802 69.7647 22.8833 69.7757 22.8833 69.7869C22.8833 69.7981 22.8802 69.8091 22.8743 69.8187C22.8648 69.8443 22.8489 69.8672 22.8282 69.8853C22.8075 69.9034 22.7825 69.9162 22.7555 69.9226C22.6367 69.9523 22.4294 69.8314 22.1939 69.6194Z" fill="#80BF88"/>
<path d="M22.3853 69.575C22.584 69.5135 22.7957 69.4054 22.8411 69.2846C22.8523 69.2531 22.8525 69.2189 22.8415 69.1874C22.8306 69.1558 22.8091 69.1288 22.7806 69.1107C22.7554 69.0901 22.7258 69.0754 22.694 69.0677C22.6622 69.06 22.629 69.0595 22.597 69.0662C22.3399 69.1107 22.0635 69.5432 22.0527 69.5623C22.0489 69.5687 22.0469 69.5761 22.0469 69.5835C22.0469 69.5909 22.0489 69.5983 22.0527 69.6047C22.0565 69.6109 22.0619 69.6161 22.0683 69.6198C22.0747 69.6235 22.082 69.6256 22.0894 69.6259C22.19 69.6231 22.2897 69.606 22.3853 69.575ZM22.584 69.151H22.6121C22.6324 69.1469 22.6534 69.1472 22.6736 69.152C22.6937 69.1567 22.7126 69.1658 22.7287 69.1786C22.7719 69.2125 22.7676 69.2379 22.7611 69.257C22.7179 69.3736 22.3896 69.5135 22.1715 69.5411C22.2707 69.3781 22.4133 69.2447 22.584 69.1553V69.151Z" fill="#80BF88"/>
<path d="M34.7586 74.2706C34.9109 74.2829 35.0629 74.2449 35.1906 74.1625C35.2203 74.1362 35.2429 74.103 35.2565 74.0661C35.27 74.0291 35.2741 73.9894 35.2684 73.9505C35.2667 73.9275 35.2591 73.9054 35.2462 73.8861C35.2334 73.8668 35.2157 73.851 35.1949 73.8403C34.9789 73.7216 34.2554 74.082 34.1733 74.1222C34.1653 74.1254 34.1586 74.1309 34.1538 74.1379C34.149 74.1448 34.1465 74.1531 34.1465 74.1615C34.1465 74.1699 34.149 74.1781 34.1538 74.1851C34.1586 74.1921 34.1653 74.1975 34.1733 74.2007C34.3655 74.2433 34.5616 74.2668 34.7586 74.2706ZM35.0805 73.9039C35.108 73.9022 35.1354 73.9073 35.1604 73.9187C35.1689 73.9233 35.176 73.9301 35.181 73.9383C35.1859 73.9465 35.1885 73.9558 35.1885 73.9654C35.1925 73.9898 35.1903 74.0147 35.182 74.0381C35.1737 74.0614 35.1596 74.0823 35.1409 74.0989C35.0308 74.1965 34.7327 74.2134 34.3331 74.1477C34.5664 74.0255 34.8191 73.943 35.0805 73.9039Z" fill="#80BF88"/>
<path d="M34.1995 74.2092H34.2168C34.4328 74.1138 34.8648 73.7322 34.8259 73.5308C34.8259 73.482 34.7827 73.4248 34.6639 73.4121C34.6214 73.4074 34.5783 73.4114 34.5374 73.4238C34.4965 73.4362 34.4587 73.4567 34.4263 73.4841C34.2103 73.6707 34.1584 74.1477 34.1563 74.1668C34.156 74.1742 34.1576 74.1816 34.161 74.1883C34.1644 74.195 34.1695 74.2007 34.1757 74.2049C34.1828 74.2093 34.1913 74.2108 34.1995 74.2092ZM34.6315 73.4905H34.6574C34.7352 73.4905 34.7416 73.5308 34.7416 73.5392C34.7632 73.6601 34.4738 73.9633 34.2535 74.0926C34.2708 73.8911 34.3515 73.6999 34.4846 73.5456C34.5242 73.5103 34.5758 73.4906 34.6293 73.4905H34.6315Z" fill="#80BF88"/>
<path d="M27.9301 33.8368L27.7443 34.4728C27.7184 34.5215 27.7789 34.5724 27.8631 34.5724H35.4231C35.4901 34.5724 35.5441 34.5406 35.5484 34.5003L35.6154 33.8643C35.6154 33.8198 35.5614 33.7817 35.4901 33.7817H28.0511C28.0278 33.7799 28.0044 33.784 27.9832 33.7937C27.962 33.8033 27.9438 33.8182 27.9301 33.8368Z" fill="#263238"/>
<path d="M28.9281 34.6499H28.7272C28.6883 34.6499 28.6581 34.6308 28.6603 34.6054L28.7531 33.7574C28.7531 33.7341 28.792 33.7129 28.8309 33.7129H29.0296C29.0707 33.7129 29.0987 33.7341 29.0966 33.7574L29.0037 34.6054C29.0037 34.6393 28.9691 34.6499 28.9281 34.6499Z" fill="#80BF88"/>
<path opacity="0.4" d="M28.9281 34.6499H28.7272C28.6883 34.6499 28.6581 34.6308 28.6603 34.6054L28.7531 33.7574C28.7531 33.7341 28.792 33.7129 28.8309 33.7129H29.0296C29.0707 33.7129 29.0987 33.7341 29.0966 33.7574L29.0037 34.6054C29.0037 34.6393 28.9691 34.6499 28.9281 34.6499Z" fill="black"/>
<path d="M34.8537 34.6499H34.655C34.6161 34.6499 34.5858 34.6308 34.588 34.6054L34.683 33.7574C34.683 33.7341 34.7198 33.7129 34.7586 33.7129H34.9574C34.9984 33.7129 35.0286 33.7341 35.0243 33.7574L34.9314 34.6054C34.9293 34.6393 34.8947 34.6499 34.8537 34.6499Z" fill="#80BF88"/>
<path opacity="0.4" d="M34.8537 34.6499H34.655C34.6161 34.6499 34.5858 34.6308 34.588 34.6054L34.683 33.7574C34.683 33.7341 34.7198 33.7129 34.7586 33.7129H34.9574C34.9984 33.7129 35.0286 33.7341 35.0243 33.7574L34.9314 34.6054C34.9293 34.6393 34.8947 34.6499 34.8537 34.6499Z" fill="black"/>
<path d="M31.893 34.6499H31.6943C31.6533 34.6499 31.623 34.6308 31.6274 34.6054L31.7202 33.7574C31.7202 33.7341 31.757 33.7129 31.798 33.7129H31.9967C32.0356 33.7129 32.0658 33.7341 32.0637 33.7574L31.9708 34.6054C31.9686 34.6393 31.9319 34.6499 31.893 34.6499Z" fill="#80BF88"/>
<path opacity="0.4" d="M31.893 34.6499H31.6943C31.6533 34.6499 31.623 34.6308 31.6274 34.6054L31.7202 33.7574C31.7202 33.7341 31.757 33.7129 31.798 33.7129H31.9967C32.0356 33.7129 32.0658 33.7341 32.0637 33.7574L31.9708 34.6054C31.9686 34.6393 31.9319 34.6499 31.893 34.6499Z" fill="black"/>
<path d="M32.041 17.2965L32.3672 17.1396C32.3672 17.1396 32.2376 17.4343 32.041 17.2965Z" fill="#263238"/>
<path d="M27.5428 37.2031L29.0915 38.3691L27.2965 38.7571C27.2965 38.7571 26.534 37.9091 26.7976 37.2095L27.5428 37.2031Z" fill="#FFC3BD"/>
<path d="M29.4712 39.8129L27.9505 40.0567L27.1211 38.526L29.091 38.3691L29.4712 39.8129Z" fill="#FFC3BD"/>
</svg>
