<svg width="24" height="24" viewBox="0 0 24 24" fill="none" xmlns="http://www.w3.org/2000/svg">
<path d="M15.2 0H0V15.4576H8.8V24H24V8.54237H15.2V0ZM6.61525 3.66102L4.10465 10.9475H5.8L6.2083 9.76271H8.8V13.8305H1.6V1.62712H13.6V8.54237H10.2666L8.585 3.66102H6.61525ZM8.4311 8.13559H6.7689L7.6 5.72349L8.4311 8.13559ZM22.4 10.1695V22.3729H10.4V10.1695H22.4Z" fill="#304534"/>
<path d="M14.7259 18.3716C14.9095 18.6714 15.1117 18.959 15.3312 19.2327C14.6352 19.6142 13.8448 19.8053 12.96 19.806V21.7575C14.4084 21.7575 15.7026 21.3667 16.8 20.6095C17.8974 21.3667 19.1915 21.7575 20.64 21.7575V19.806C19.757 19.806 18.9666 19.6147 18.2688 19.2323C18.4883 18.9587 18.6904 18.6713 18.8741 18.3716C19.4274 17.4572 19.8344 16.4593 20.0797 15.4151H21.12V13.4636H17.76V12H15.84V13.4636H12.48V15.4151H13.5203C13.7656 16.4593 14.1725 17.4572 14.7259 18.3716ZM18.0918 15.4151C17.8932 16.0905 17.6088 16.7367 17.2458 17.3373C17.1102 17.5588 16.9613 17.7716 16.8 17.9745C16.6504 17.7866 16.5116 17.59 16.3842 17.3859C16.0065 16.7719 15.7117 16.109 15.5079 15.4151H18.0918Z" fill="#304534"/>
</svg>
