<svg width="21" height="24" viewBox="0 0 21 24" fill="none" xmlns="http://www.w3.org/2000/svg">
<path d="M20.7444 15.5607H18.5836V9.71254C18.5836 6.69987 16.5998 4.14213 13.87 3.27612C13.8185 1.46105 12.3269 0 10.4996 0H10.4423C8.63516 0 7.15566 1.42886 7.07349 3.21608C4.24152 4.01843 2.16076 6.62703 2.16076 9.71254V15.5607H0V21.1065H6.97945C7.24037 22.7442 8.66221 24 10.3722 24C12.0821 24 13.504 22.7442 13.7649 21.1065H20.7444V15.5607H20.7444ZM10.4423 1.08505H10.4996C11.6431 1.08505 12.5934 1.92842 12.7611 3.02583C12.4575 2.98388 12.1476 2.96167 11.8326 2.96167H8.91163C8.66627 2.96167 8.42394 2.9752 8.1853 3.00088C8.36354 1.91576 9.30753 1.08505 10.4423 1.08505ZM10.3722 22.9149C9.26261 22.9149 8.33077 22.142 8.08512 21.1065H12.6592C12.4136 22.142 11.4817 22.9149 10.3722 22.9149ZM19.6594 20.0214H1.08505V16.6457H3.24588V9.71247C3.24588 6.58833 5.78757 4.04665 8.9117 4.04665H11.8327C14.9569 4.04665 17.4985 6.58833 17.4985 9.71247V16.6457H19.6594V20.0214V20.0214Z" fill="#3C5A40"/>
</svg>
