<svg width="24" height="24" viewBox="0 0 24 24" fill="none" xmlns="http://www.w3.org/2000/svg">
<path d="M20.1104 13.8416C19.6592 13.3908 18.8728 13.3908 18.4216 13.8416L12.2656 19.998L11.4172 23.1096L11.2096 23.3172C11.0544 23.4724 11.054 23.7228 11.2072 23.8792L11.2052 23.8872L11.2128 23.8852C11.2904 23.9612 11.3912 24 11.492 24C11.5944 24 11.6968 23.9608 11.7748 23.8828L11.9828 23.6748L15.094 22.8264L21.25 16.67C21.7156 16.2044 21.7156 15.4468 21.25 14.9812L20.1104 13.8416ZM13.1892 20.206L17.2864 16.1088L18.9836 17.806L14.8864 21.9032L13.1892 20.206ZM12.828 20.976L14.116 22.264L12.3448 22.7472L12.828 20.976ZM20.6844 16.1048L19.5488 17.2404L17.8516 15.5432L18.9872 14.4076C19.136 14.2584 19.3956 14.2584 19.5444 14.4076L20.6844 15.5476C20.8384 15.7008 20.8384 15.9512 20.6844 16.1048Z" fill="#3C5A40"/>
<path d="M11.6 10.4084C11.024 10.558 10.5732 11.0168 10.4416 11.6H7.60001C7.37921 11.6 7.20001 11.7788 7.20001 12C7.20001 12.2212 7.37921 12.4 7.60001 12.4H10.472C10.6672 13.0632 11.2744 13.5516 12 13.5516C12.8824 13.5516 13.6 12.834 13.6 11.9516C13.6 11.208 13.088 10.5872 12.4 10.4084V6.3516C12.4 6.1304 12.2208 5.9516 12 5.9516C11.7792 5.9516 11.6 6.1304 11.6 6.3516V10.4084ZM12.8 11.9516C12.8 12.3928 12.4412 12.7516 12 12.7516C11.5588 12.7516 11.2 12.3928 11.2 11.9516C11.2 11.5104 11.5588 11.1516 12 11.1516C12.4412 11.1516 12.8 11.5104 12.8 11.9516Z" fill="#3C5A40"/>
<path d="M12 3.9516C12.2208 3.9516 12.4 3.7728 12.4 3.5516V3.1516C12.4 2.9304 12.2208 2.7516 12 2.7516C11.7792 2.7516 11.6 2.9304 11.6 3.1516V3.5516C11.6 3.7728 11.7792 3.9516 12 3.9516Z" fill="#3C5A40"/>
<path d="M20.4 12.3516H20.8C21.0208 12.3516 21.2 12.1728 21.2 11.9516C21.2 11.7304 21.0208 11.5516 20.8 11.5516H20.4C20.1792 11.5516 20 11.7304 20 11.9516C20 12.1728 20.1792 12.3516 20.4 12.3516Z" fill="#3C5A40"/>
<path d="M3.19999 11.5516C2.97919 11.5516 2.79999 11.7304 2.79999 11.9516C2.79999 12.1728 2.97919 12.3516 3.19999 12.3516H3.59999C3.82079 12.3516 3.99999 12.1728 3.99999 11.9516C3.99999 11.7304 3.82079 11.5516 3.59999 11.5516H3.19999Z" fill="#3C5A40"/>
<path d="M18.2224 6.2944L18.5052 6.0116C18.6616 5.8552 18.6616 5.6024 18.5052 5.446C18.3488 5.2896 18.096 5.2896 17.9396 5.446L17.6568 5.7288C17.5004 5.8852 17.5004 6.138 17.6568 6.2944C17.7348 6.3724 17.8372 6.4116 17.9396 6.4116C18.042 6.4116 18.1444 6.3728 18.2224 6.2944Z" fill="#3C5A40"/>
<path d="M5.7776 17.6084L5.4948 17.8912C5.3384 18.0476 5.3384 18.3004 5.4948 18.4568C5.5728 18.5348 5.6752 18.574 5.7776 18.574C5.88 18.574 5.9824 18.5348 6.0604 18.4568L6.3432 18.174C6.4996 18.0176 6.4996 17.7648 6.3432 17.6084C6.1868 17.452 5.9336 17.452 5.7776 17.6084Z" fill="#3C5A40"/>
<path d="M6.3432 5.7288L6.0604 5.446C5.904 5.2896 5.6512 5.2896 5.4948 5.446C5.3384 5.6024 5.3384 5.8552 5.4948 6.0116L5.7776 6.2944C5.8556 6.3724 5.958 6.4116 6.0604 6.4116C6.1628 6.4116 6.2652 6.3724 6.3432 6.2944C6.4996 6.1384 6.4996 5.8852 6.3432 5.7288Z" fill="#3C5A40"/>
<path d="M12 0C5.3832 0 0 5.3832 0 12C0 17.53 3.744 22.3204 9.1048 23.6484C9.1372 23.6564 9.1696 23.66 9.2016 23.66C9.3812 23.66 9.5444 23.538 9.5896 23.356C9.6428 23.1416 9.512 22.9248 9.2976 22.8716C4.294 21.6324 0.8 17.1616 0.8 12C0.8 5.8244 5.8244 0.8 12 0.8C18.1756 0.8 23.2 5.8244 23.2 12C23.2 13.3872 22.9468 14.7452 22.4468 16.0376C22.3672 16.2436 22.4696 16.4752 22.6756 16.5548C22.8812 16.6352 23.1132 16.532 23.1928 16.326C23.7284 14.9416 24 13.486 24 12C24 5.3832 18.6168 0 12 0Z" fill="#3C5A40"/>
</svg>
